<svg id="Camada_1" data-name="Camada 1" xmlns="http://www.w3.org/2000/svg" viewBox="0 0 502.6 105"><defs><style>.cls-1{fill:#ec1c24;}.cls-2{fill:#005129;}.cls-3,.cls-7{fill:#fff;}.cls-4,.cls-6{fill:#003800;}.cls-5{fill:#a00000;}.cls-13,.cls-14,.cls-15,.cls-5,.cls-6{fill-rule:evenodd;}.cls-7{stroke:#fff;stroke-linecap:round;stroke-linejoin:round;stroke-width:3.3px;}.cls-8{fill:#1d1d1b;}.cls-9{fill:#c8161f;}.cls-10{fill:#278135;}.cls-11,.cls-13{fill:#4a8b2c;}.cls-12{fill:#d02c2f;}.cls-14{fill:#2b7f3f;}.cls-15{fill:#c12e2b;}</style></defs><title>GRUPO EPOCA</title><polygon class="cls-1" points="388.88 67.89 387.03 66.05 388.88 66.05 388.88 67.89"/><path class="cls-2" d="M351.54,67.07a3,3,0,0,0-1-.63,4.23,4.23,0,0,0-1.37-.22h-3.79v9.41h2V72.35a.09.09,0,0,1,.08-.08h1.68a4.23,4.23,0,0,0,1.37-.22,3,3,0,0,0,1-.63,2.64,2.64,0,0,0,.65-1,3.38,3.38,0,0,0,0-2.45A2.41,2.41,0,0,0,351.54,67.07ZM350,70.17a1.39,1.39,0,0,1-1,.34h-1.55a.07.07,0,0,1-.08-.08V68.06a.07.07,0,0,1,.08-.08H349a1.35,1.35,0,0,1,1,.35,1.21,1.21,0,0,1,.36.92A1.19,1.19,0,0,1,350,70.17Zm9.13.49a2.46,2.46,0,0,0-1.07-1.39,3.7,3.7,0,0,0-3.68,0,2.41,2.41,0,0,0-1.06,1.39,4.67,4.67,0,0,0-.17.74,5.8,5.8,0,0,0-.06.88,5.7,5.7,0,0,0,.06.88,4.67,4.67,0,0,0,.17.74,2.43,2.43,0,0,0,1.06,1.4,3.77,3.77,0,0,0,3.68,0,2.49,2.49,0,0,0,1.07-1.4,4.64,4.64,0,0,0,.16-.74,5.7,5.7,0,0,0,.06-.88,5.8,5.8,0,0,0-.06-.88A4.64,4.64,0,0,0,359.15,70.66ZM357.38,73a2.73,2.73,0,0,1-.1.48,1.11,1.11,0,0,1-2.08,0,4,4,0,0,1-.09-.48,5.7,5.7,0,0,1,0-.67,5.82,5.82,0,0,1,0-.67,4,4,0,0,1,.09-.48,1.11,1.11,0,0,1,2.08,0,2.73,2.73,0,0,1,.1.48c0,.16,0,.39,0,.67S357.39,72.79,357.38,73Zm5.47-6h-1.93v2h-.64v1.43h.64v3.13a2.43,2.43,0,0,0,.49,1.68,2.12,2.12,0,0,0,1.65.54h.87V74.08h-.47a.63.63,0,0,1-.47-.15.75.75,0,0,1-.14-.52v-3h1.08l.51-1.43h-1.59Zm8.33,4.52a3.66,3.66,0,0,0-.07-.42,3.15,3.15,0,0,0-.09-.36,2.62,2.62,0,0,0-1-1.38,3.31,3.31,0,0,0-1.86-.5,3.39,3.39,0,0,0-1.84.49,2.54,2.54,0,0,0-1,1.41,3.42,3.42,0,0,0-.17.7,5.92,5.92,0,0,0-.05.9,5.8,5.8,0,0,0,.06.9,4.35,4.35,0,0,0,.17.69,2.6,2.6,0,0,0,1.05,1.41,3.38,3.38,0,0,0,1.91.5,4.26,4.26,0,0,0,1.65-.3,3.46,3.46,0,0,0,1.2-.82l-1.12-1a2.08,2.08,0,0,1-1.53.6,1.66,1.66,0,0,1-.89-.23,1.1,1.1,0,0,1-.5-.66A1.43,1.43,0,0,1,367,73c0-.06,0-.09.08-.09h4.21v-.14c0-.28,0-.53,0-.74A4.26,4.26,0,0,0,371.18,71.44Zm-1.93.14H367s-.08,0-.08-.09a2.13,2.13,0,0,1,0-.27,1.74,1.74,0,0,1,0-.22,1,1,0,0,1,.41-.54,1.36,1.36,0,0,1,1.42,0,1,1,0,0,1,.41.54c0,.07,0,.15.05.22a2.13,2.13,0,0,1,0,.27C369.33,71.55,369.3,71.58,369.25,71.58ZM378,69.49a1.89,1.89,0,0,0-.72-.51,2.48,2.48,0,0,0-1-.18,2.26,2.26,0,0,0-1.07.22,1.86,1.86,0,0,0-.66.53h0v-.62l-1.94.51v6.19h1.94v-4a1.37,1.37,0,0,1,.27-.89,1,1,0,0,1,.78-.33.92.92,0,0,1,.78.33,1.43,1.43,0,0,1,.26.89v4h1.93V71.28a3.57,3.57,0,0,0-.14-1A2.14,2.14,0,0,0,378,69.49Zm4,1.64a.94.94,0,0,1,.38-.54,1.15,1.15,0,0,1,.65-.18,1.25,1.25,0,0,1,.61.14,1.62,1.62,0,0,1,.46.45l1.44-1a2.79,2.79,0,0,0-1-.91,3.19,3.19,0,0,0-1.52-.35,3.37,3.37,0,0,0-1.83.48,2.49,2.49,0,0,0-1.06,1.42,2.69,2.69,0,0,0-.16.69,6.15,6.15,0,0,0,0,.91,6.29,6.29,0,0,0,0,.92,2.9,2.9,0,0,0,.16.69,2.53,2.53,0,0,0,1.06,1.42,3.46,3.46,0,0,0,1.83.47,3.19,3.19,0,0,0,1.52-.35,2.79,2.79,0,0,0,1-.91l-1.44-1a1.57,1.57,0,0,1-.46.44,1.25,1.25,0,0,1-.61.14,1.15,1.15,0,0,1-.65-.18.94.94,0,0,1-.38-.54A2,2,0,0,1,382,73a6.26,6.26,0,0,1,0-.68,6.39,6.39,0,0,1,0-.68A2.17,2.17,0,0,1,382.06,71.13Zm4.89-2.2v6.7h1.94v-6.7Zm8.62.44a2.26,2.26,0,0,0-.92-.44,5.52,5.52,0,0,0-1.39-.15,5.15,5.15,0,0,0-1.44.18,3.4,3.4,0,0,0-1.05.49l.76,1.31a2,2,0,0,1,.61-.3,2.65,2.65,0,0,1,.89-.13,1.91,1.91,0,0,1,1.08.22.83.83,0,0,1,.29.69v.25a.09.09,0,0,1-.09.09h-1.18a3.5,3.5,0,0,0-2,.52,1.85,1.85,0,0,0-.77,1.63,2.2,2.2,0,0,0,.18.93,1.85,1.85,0,0,0,.49.64,1.91,1.91,0,0,0,.71.36,3,3,0,0,0,.85.12,2.71,2.71,0,0,0,1.14-.2,1.81,1.81,0,0,0,.7-.53h0v.58h1.81V71.2a3.51,3.51,0,0,0-.16-1.08A1.79,1.79,0,0,0,395.57,69.37Zm-1.17,4c0,.62-.42.93-1.25.93-.64,0-1-.24-1-.71s.4-.76,1.19-.76h1Zm6.3.67h-.43a.57.57,0,0,1-.44-.15.72.72,0,0,1-.14-.49V66.22h-1.94v7.36a2.32,2.32,0,0,0,.48,1.63,2.12,2.12,0,0,0,1.6.5h.87V74.07Z"/><polygon class="cls-2" points="400.7 62.14 345.35 6.79 345.35 62.14 400.7 62.14"/><polygon class="cls-1" points="345.35 6.79 400.7 62.14 400.7 6.79 345.35 6.79"/><polygon class="cls-3" points="384.09 23.39 361.95 23.39 361.95 51.07 373.02 51.07 373.02 45.53 384.09 45.53 384.09 23.39"/><path class="cls-2" d="M354.88,79.91a1.2,1.2,0,0,0,0-.23,1.33,1.33,0,0,0,0-.19,1.2,1.2,0,0,0-1.29-.81h-1.26s-.06,0-.06,0v3.93a.05.05,0,0,0,.06.06h1.26a1.21,1.21,0,0,0,1.29-.82,1.33,1.33,0,0,0,0-.19,1.2,1.2,0,0,0,0-.23,2.73,2.73,0,0,0,0-.32c0-.12,0-.28,0-.46s0-.34,0-.47A2.73,2.73,0,0,0,354.88,79.91Zm-.32,1.22c0,.11,0,.21,0,.29l0,.21c0,.05,0,.1,0,.15a.83.83,0,0,1-.36.47,1.28,1.28,0,0,1-.65.14h-.9s0,0,0,0V79s0,0,0,0h.9a1.28,1.28,0,0,1,.65.14.83.83,0,0,1,.36.47s0,.1,0,.15l0,.21c0,.08,0,.18,0,.29v.87Zm2.18-2.45h-.22s-.06,0-.06,0v3.93a.05.05,0,0,0,.06.06h.22a.05.05,0,0,0,.06-.06V78.73S356.78,78.68,356.74,78.68Zm3.18,1.84-.18,0a1.35,1.35,0,0,1-.74-.26.66.66,0,0,1-.21-.5.75.75,0,0,1,.24-.58,1,1,0,0,1,.67-.21,1.68,1.68,0,0,1,.5.07,2.19,2.19,0,0,1,.47.22s.06,0,.09,0l.12-.18s0-.07,0-.09a1.51,1.51,0,0,0-.51-.24,2.2,2.2,0,0,0-.64-.09,1.32,1.32,0,0,0-.92.3,1.05,1.05,0,0,0-.35.83,1,1,0,0,0,.29.72,1.52,1.52,0,0,0,.88.35l.18,0a2.33,2.33,0,0,1,.47.11,1.11,1.11,0,0,1,.29.17.57.57,0,0,1,.16.23.87.87,0,0,1,.05.28.75.75,0,0,1-.28.6,1.2,1.2,0,0,1-.77.22,1.54,1.54,0,0,1-.65-.13,2.43,2.43,0,0,1-.51-.28s-.05,0-.08,0l-.14.18a.06.06,0,0,0,0,.09l.26.17a1.35,1.35,0,0,0,.32.15,2.26,2.26,0,0,0,.37.11,2.56,2.56,0,0,0,.39,0,1.94,1.94,0,0,0,.62-.08,1.22,1.22,0,0,0,.45-.25.91.91,0,0,0,.27-.37,1.19,1.19,0,0,0,.09-.47.94.94,0,0,0-.28-.72A1.5,1.5,0,0,0,359.92,80.52Zm5-1.84H362.2s-.06,0-.06,0v.21a.05.05,0,0,0,.06.06h1.17a0,0,0,0,1,0,0v3.63a.05.05,0,0,0,.06.06h.23a.05.05,0,0,0,.06-.06V79a0,0,0,0,1,0,0H365a.05.05,0,0,0,.06-.06v-.21S365,78.68,365,78.68Zm3.16,2.18a1.09,1.09,0,0,0,.61-.37,1.12,1.12,0,0,0,.21-.7,1.08,1.08,0,0,0-.32-.82,1.29,1.29,0,0,0-.91-.29h-1.36s-.06,0-.06,0v3.93a.05.05,0,0,0,.06.06h.23a.05.05,0,0,0,.06-.06V80.94a0,0,0,0,1,0,0h1.1l.85,1.75a.07.07,0,0,0,.07.06H369a.05.05,0,0,0,0,0,.11.11,0,0,0,0,0Zm-.42-.27h-1s0,0,0,0V79a0,0,0,0,1,0,0h1a1,1,0,0,1,.67.2.78.78,0,0,1,.23.59.75.75,0,0,1-.23.59A1,1,0,0,1,367.69,80.59Zm3.12-1.91h-.22s-.06,0-.06,0v3.93a.05.05,0,0,0,.06.06h.22c.05,0,.07,0,.07-.06V78.73S370.86,78.68,370.81,78.68ZM375,80.92a.79.79,0,0,0-.22-.19l-.23-.09h0a.85.85,0,0,0,.45-.31,1.13,1.13,0,0,0-.13-1.36,1.22,1.22,0,0,0-.88-.28h-1.35s-.06,0-.06,0v3.93a.05.05,0,0,0,.06.06H374a1.33,1.33,0,0,0,.93-.3,1.08,1.08,0,0,0,.32-.82,1.23,1.23,0,0,0-.07-.39A.92.92,0,0,0,375,80.92ZM372.92,79s0,0,0,0h1a.88.88,0,0,1,.63.2.72.72,0,0,1,.21.55.73.73,0,0,1-.21.54.89.89,0,0,1-.63.21h-1a0,0,0,0,1,0,0Zm1.76,3.15a.93.93,0,0,1-.66.21H373s0,0,0,0v-1.5a0,0,0,0,1,0,0H374a.89.89,0,0,1,.66.22.85.85,0,0,1,0,1.14Zm4.71-3.5h-.23s-.06,0-.06,0v2.59a1.2,1.2,0,0,1-.27.86,1.19,1.19,0,0,1-1.51,0,1.2,1.2,0,0,1-.27-.86V78.73s0,0-.06,0h-.23s-.06,0-.06,0v2.59a1.47,1.47,0,0,0,.38,1.1,1.35,1.35,0,0,0,1,.35,2,2,0,0,0,.57-.08,1,1,0,0,0,.43-.28,1.28,1.28,0,0,0,.28-.45,1.79,1.79,0,0,0,.1-.64V78.73S379.43,78.68,379.39,78.68Zm2,0h-.23s-.06,0-.06,0v3.93a.05.05,0,0,0,.06.06h.23a.05.05,0,0,0,.06-.06V78.73S381.44,78.68,381.4,78.68Zm2,1.28q0-.12,0-.21l0-.14a1,1,0,0,1,.35-.5.93.93,0,0,1,.6-.17,1,1,0,0,1,.57.15,1.22,1.22,0,0,1,.36.42s.05,0,.08,0l.19-.1s0,0,0-.08a1.22,1.22,0,0,0-.49-.56,1.44,1.44,0,0,0-.73-.18,1.37,1.37,0,0,0-.8.22,1.28,1.28,0,0,0-.47.68s0,.11-.05.17,0,.14,0,.23a2.88,2.88,0,0,0,0,.32c0,.13,0,.28,0,.46s0,.32,0,.45a2.88,2.88,0,0,0,0,.32c0,.09,0,.17,0,.23s0,.12.05.17a1.29,1.29,0,0,0,.43.65,1.26,1.26,0,0,0,.7.25l-.3.76s0,.06.05.06h.18a.08.08,0,0,0,.09-.06l.26-.76a1.36,1.36,0,0,0,.65-.22,1.18,1.18,0,0,0,.43-.52.05.05,0,0,0,0-.08l-.19-.09a.05.05,0,0,0-.08,0,1.06,1.06,0,0,1-.36.42.94.94,0,0,1-.57.16,1,1,0,0,1-.6-.17,1,1,0,0,1-.35-.5s0-.09,0-.15,0-.12,0-.2a2.69,2.69,0,0,1,0-.31c0-.12,0-.26,0-.43s0-.32,0-.44A2.36,2.36,0,0,1,383.36,80ZM387.59,78l.16-.14a.35.35,0,0,1,.18,0,.33.33,0,0,1,.15,0,.61.61,0,0,1,.14.07l.17.09a.38.38,0,0,0,.19,0,.46.46,0,0,0,.2,0,1.09,1.09,0,0,0,.17-.13.09.09,0,0,0,0,0,.07.07,0,0,0,0,0v-.18s0,0,0,0h0a.73.73,0,0,1-.16.15.33.33,0,0,1-.19.06.4.4,0,0,1-.15,0l-.14-.08a1.29,1.29,0,0,0-.16-.09.59.59,0,0,0-.2,0,.46.46,0,0,0-.2,0,.7.7,0,0,0-.16.14.14.14,0,0,0-.05.09V78S387.55,78.06,387.59,78Zm.79.65h-.21s-.06,0-.07,0l-1.42,3.93s0,.06.05.06H387a.07.07,0,0,0,.07-.06l.36-1h1.76l.36,1s0,.06.07.06h.24s.05,0,0-.06l-1.41-3.93S388.42,78.68,388.38,78.68Zm-.88,2.65.76-2.11h0l.76,2.11Zm6.36-1.08c0-.12,0-.23,0-.32s0-.16,0-.23a1.21,1.21,0,0,1-.05-.18,1.3,1.3,0,0,0-.48-.67,1.59,1.59,0,0,0-1.65,0,1.3,1.3,0,0,0-.48.67,1.21,1.21,0,0,0-.05.18c0,.07,0,.14,0,.23s0,.2,0,.32,0,.27,0,.45,0,.32,0,.44,0,.23,0,.32,0,.16,0,.23a1,1,0,0,0,.05.18,1.3,1.3,0,0,0,.48.67,1.59,1.59,0,0,0,1.65,0,1.3,1.3,0,0,0,.48-.67,1.67,1.67,0,0,1,.05-.18c0-.07,0-.14,0-.23s0-.2,0-.32,0-.27,0-.44S393.86,80.37,393.86,80.25Zm-.35.87a2.36,2.36,0,0,1,0,.3q0,.12,0,.21c0,.05,0,.1,0,.14a1,1,0,0,1-1.95,0s0-.09,0-.14a.66.66,0,0,1,0-.21q0-.12,0-.3v-.85q0-.18,0-.3a.66.66,0,0,1,0-.21c0-.05,0-.1,0-.14a1,1,0,0,1,1.95,0s0,.09,0,.14,0,.13,0,.21a2.36,2.36,0,0,1,0,.3c0,.12,0,.26,0,.43S393.52,81,393.51,81.12Z"/><path class="cls-4" d="M483.35,75.09a3.08,3.08,0,0,1-.14,1,.57.57,0,0,1-.56.36.55.55,0,0,1-.55-.37,2.68,2.68,0,0,1-.15-1v-1a2.85,2.85,0,0,1,.15-1,.54.54,0,0,1,.55-.35.57.57,0,0,1,.56.36,2.93,2.93,0,0,1,.14,1Zm.93-.49a2.22,2.22,0,0,0-.49-1.44,1.37,1.37,0,0,0-2.28,0,2.34,2.34,0,0,0,0,2.88,1.43,1.43,0,0,0,1.13.61A1.48,1.48,0,0,0,483.8,76,2.24,2.24,0,0,0,484.28,74.6Zm-4.84.79a1.76,1.76,0,0,1-.16.8.44.44,0,0,1-.4.31.78.78,0,0,1-.68-.43,1.92,1.92,0,0,1-.27-1.06v-1a1.28,1.28,0,0,1,.09-.48,1.6,1.6,0,0,1,.23-.45.8.8,0,0,1,.62-.42.46.46,0,0,1,.42.31,1.74,1.74,0,0,1,.15.79Zm.91-.79a2.39,2.39,0,0,0-.43-1.45,1.23,1.23,0,0,0-1-.6,1,1,0,0,0-.51.15,1.47,1.47,0,0,0-.46.47v-.62l-1.38,0v.19h.56V78.1h-.55v.19h1.92V78.1h-.54v-2a1.05,1.05,0,0,0,.42.44,1.08,1.08,0,0,0,.5.12,1.33,1.33,0,0,0,1.06-.61A2.33,2.33,0,0,0,480.35,74.6Zm-4,1.93v-.19h-.51V74.06a2.5,2.5,0,0,0-.2-1.14.74.74,0,0,0-.73-.37,1.05,1.05,0,0,0-.64.19,1.39,1.39,0,0,0-.38.43,1,1,0,0,0-.32-.45.89.89,0,0,0-.61-.17,1.16,1.16,0,0,0-.59.16,1.22,1.22,0,0,0-.47.56v-.72l-1.34,0v.19H471v3.56h-.52v.19h1.79v-.19h-.43V74.26a1.88,1.88,0,0,1,.26-1c.17-.27.31-.4.42-.4h.06a.29.29,0,0,1,.31.21,2.09,2.09,0,0,1,.07.64v2.67h-.39v.19h1.66v-.19h-.43v-2a2,2,0,0,1,.24-1.11c.16-.25.33-.37.51-.37h.07a.24.24,0,0,1,.25.21,3.29,3.29,0,0,1,0,.64v2.67h-.41v.19Zm-7.48-1.33a1.54,1.54,0,0,1-.18.75.52.52,0,0,1-.46.33.39.39,0,0,1-.37-.24,1.25,1.25,0,0,1-.12-.58,1,1,0,0,1,.15-.58.65.65,0,0,1,.4-.28.79.79,0,0,1,.2,0,.34.34,0,0,1,.14,0,1,1,0,0,1,.24.14Zm1.34,1-.1-.11a.11.11,0,0,1-.05,0l-.07.07a.29.29,0,0,1-.15.06.23.23,0,0,1-.14,0,.12.12,0,0,1,0-.11V73.47a.79.79,0,0,0-.36-.67,1.56,1.56,0,0,0-.9-.25,1.64,1.64,0,0,0-.91.22.66.66,0,0,0-.35.56.33.33,0,0,0,.38.34c.25,0,.38-.11.4-.33a.53.53,0,0,0-.07-.28.71.71,0,0,1-.06-.14s.06-.09.18-.15a.89.89,0,0,1,.38-.07.56.56,0,0,1,.35.13.42.42,0,0,1,.17.33v1.23h-.59l-.18,0a1.53,1.53,0,0,0-.85.42,1.14,1.14,0,0,0-.32.84,1.09,1.09,0,0,0,.21.69.7.7,0,0,0,.59.27,1.63,1.63,0,0,0,.59-.12,2.12,2.12,0,0,0,.55-.41.66.66,0,0,0,.17.38.59.59,0,0,0,.44.15.7.7,0,0,0,.42-.12A2,2,0,0,0,470.17,76.25Zm-3.57.33V75h-.22a1.94,1.94,0,0,1-.63,1.12,1.48,1.48,0,0,1-.87.3,1.19,1.19,0,0,1-1-.45,2.18,2.18,0,0,1-.33-1.31V73.34a2.21,2.21,0,0,1,.33-1.3,1.07,1.07,0,0,1,1-.46,1.66,1.66,0,0,1,.89.28,1.6,1.6,0,0,1,.59,1.06h.22V71.47h-.18l-.3.32a1.82,1.82,0,0,0-.5-.28,1.85,1.85,0,0,0-.69-.11,2.33,2.33,0,0,0-1.75.78,2.65,2.65,0,0,0-.72,1.86,2.54,2.54,0,0,0,.73,1.82,2.23,2.23,0,0,0,1.67.79,2.46,2.46,0,0,0,.72-.11,1.84,1.84,0,0,0,.6-.32l.32.36Zm-7.68-2.9,0,.52h-1.12v-.13a3.4,3.4,0,0,1,.12-1,.43.43,0,0,1,.46-.34.43.43,0,0,1,.42.26A1.54,1.54,0,0,1,458.92,73.68Zm.88,1.43h-.19a2.18,2.18,0,0,1-.14.46,2.91,2.91,0,0,1-.24.46.89.89,0,0,1-.77.47.55.55,0,0,1-.53-.37,2.74,2.74,0,0,1-.15-1v-.72h1.93s.05,0,.05,0a.64.64,0,0,0,0-.07v-.08a1.79,1.79,0,0,0-.4-1.16,1.23,1.23,0,0,0-1-.48,1.34,1.34,0,0,0-1.1.62,2.51,2.51,0,0,0-.45,1.5,2.22,2.22,0,0,0,.45,1.38,1.28,1.28,0,0,0,1,.6,1.31,1.31,0,0,0,.91-.38A2.21,2.21,0,0,0,459.8,75.11Zm-6.26-1.43,0,.52H452.4v-.13a3.83,3.83,0,0,1,.11-1,.45.45,0,0,1,.47-.34.43.43,0,0,1,.42.26A1.54,1.54,0,0,1,453.54,73.68Zm.88,1.43h-.19a2.18,2.18,0,0,1-.14.46,2.91,2.91,0,0,1-.24.46.89.89,0,0,1-.77.47.55.55,0,0,1-.53-.37,2.74,2.74,0,0,1-.15-1v-.72h1.93s.05,0,.05,0a.15.15,0,0,0,0-.07.19.19,0,0,0,0-.08A1.79,1.79,0,0,0,454,73a1.23,1.23,0,0,0-1-.48,1.34,1.34,0,0,0-1.1.62,2.51,2.51,0,0,0-.45,1.5,2.22,2.22,0,0,0,.45,1.38,1.28,1.28,0,0,0,1,.6,1.31,1.31,0,0,0,.91-.38A2.21,2.21,0,0,0,454.42,75.11ZM450,75a1.81,1.81,0,0,1-.29,1,.79.79,0,0,1-.65.45c-.18,0-.32-.12-.42-.34a2.42,2.42,0,0,1-.14-.88V73.91a2.38,2.38,0,0,1,.14-.88.44.44,0,0,1,.41-.33.77.77,0,0,1,.67.46,2.16,2.16,0,0,1,.28,1.17Zm1.4,1.49v-.19h-.57V71.4l-.4.06-.3,0h-.69v.19H450v1.48a1,1,0,0,0-.42-.51,1.11,1.11,0,0,0-.49-.12,1.3,1.3,0,0,0-1.06.61,2.33,2.33,0,0,0-.45,1.44,2.61,2.61,0,0,0,.4,1.46,1.18,1.18,0,0,0,1,.59,1.33,1.33,0,0,0,.57-.14A1.19,1.19,0,0,0,450,76v.58l.23,0h.37l.41,0Zm-5.32-1.33a1.54,1.54,0,0,1-.18.75.51.51,0,0,1-.46.33.39.39,0,0,1-.37-.24,1.25,1.25,0,0,1-.12-.58,1,1,0,0,1,.15-.58.65.65,0,0,1,.4-.28.82.82,0,0,1,.21,0,.3.3,0,0,1,.13,0,1,1,0,0,1,.24.14Zm1.34,1-.09-.11,0,0-.08.07a.24.24,0,0,1-.15.06.18.18,0,0,1-.13,0s-.05-.06-.05-.11V73.47a.79.79,0,0,0-.36-.67,1.56,1.56,0,0,0-.9-.25,1.66,1.66,0,0,0-.91.22.65.65,0,0,0-.34.56c0,.22.13.34.38.34a.34.34,0,0,0,.39-.33.53.53,0,0,0-.07-.28.71.71,0,0,1-.06-.14s.06-.09.18-.15a.89.89,0,0,1,.38-.07.59.59,0,0,1,.36.13.44.44,0,0,1,.16.33v1.23h-.59l-.18,0a1.47,1.47,0,0,0-.84.42,1.11,1.11,0,0,0-.33.84,1.09,1.09,0,0,0,.21.69.71.71,0,0,0,.59.27,1.59,1.59,0,0,0,.59-.12,2,2,0,0,0,.55-.41.61.61,0,0,0,.18.38.55.55,0,0,0,.43.15.7.7,0,0,0,.42-.12A2,2,0,0,0,447.43,76.25ZM442.2,75a1.74,1.74,0,0,1-.3,1,.77.77,0,0,1-.64.45c-.18,0-.32-.12-.42-.34a2.42,2.42,0,0,1-.14-.88V73.91a2.38,2.38,0,0,1,.14-.88c.09-.22.22-.33.4-.33a.78.78,0,0,1,.68.46,2.25,2.25,0,0,1,.28,1.17Zm1.39,1.49v-.19H443V71.4l-.4.06-.3,0h-.7v.19h.56v1.48a1,1,0,0,0-.42-.51,1.15,1.15,0,0,0-.5-.12,1.28,1.28,0,0,0-1,.61,2.33,2.33,0,0,0-.45,1.44,2.53,2.53,0,0,0,.4,1.46,1.17,1.17,0,0,0,1,.59,1.25,1.25,0,0,0,.56-.14,1.2,1.2,0,0,0,.47-.5v.58l.23,0h.36l.41,0Zm-3.75,0v-.19h-.57V72.55l-1.39,0v.19h.56v3.56h-.58v.19Zm-.54-4.74a.45.45,0,0,0-.13-.3.47.47,0,0,0-.31-.12.44.44,0,0,0-.45.43.39.39,0,0,0,.14.3.4.4,0,0,0,.31.13.43.43,0,0,0,.31-.13A.44.44,0,0,0,439.3,71.79Zm-1.74,4.79V75h-.22a1.94,1.94,0,0,1-.63,1.12,1.48,1.48,0,0,1-.87.3,1.21,1.21,0,0,1-1-.45,2.18,2.18,0,0,1-.33-1.31V73.34a2.21,2.21,0,0,1,.33-1.3,1.07,1.07,0,0,1,1-.46,1.66,1.66,0,0,1,.89.28,1.6,1.6,0,0,1,.59,1.06h.22V71.47h-.18l-.3.32a1.82,1.82,0,0,0-.5-.28,1.85,1.85,0,0,0-.69-.11,2.33,2.33,0,0,0-1.75.78,2.65,2.65,0,0,0-.72,1.86,2.54,2.54,0,0,0,.73,1.82,2.23,2.23,0,0,0,1.67.79,2.51,2.51,0,0,0,.72-.11,1.84,1.84,0,0,0,.6-.32l.32.36Z"/><path class="cls-4" d="M480,82a1.41,1.41,0,0,0-.18-.78.65.65,0,0,0-.27-.21,2,2,0,0,0-.45-.15,1.46,1.46,0,0,1-.62-.26.44.44,0,0,1-.15-.37.76.76,0,0,1,.16-.49.5.5,0,0,1,.43-.2.67.67,0,0,1,.5.23.87.87,0,0,1,.22.48h.19v-.88h-.12l-.12.25a1.15,1.15,0,0,0-.29-.16,1.21,1.21,0,0,0-.38-.06.83.83,0,0,0-.66.3,1.14,1.14,0,0,0-.25.79.94.94,0,0,0,.29.78,1.21,1.21,0,0,0,.3.2,1.8,1.8,0,0,0,.35.12,1.46,1.46,0,0,1,.59.23.58.58,0,0,1,.17.47.73.73,0,0,1-.2.52.59.59,0,0,1-.45.2.81.81,0,0,1-.6-.26,1.36,1.36,0,0,1-.29-.69H478v1h.11l.21-.21a1.15,1.15,0,0,0,.35.22,1.08,1.08,0,0,0,.38.08.9.9,0,0,0,.73-.3A1.37,1.37,0,0,0,480,82m-3.79-.17a1.41,1.41,0,0,1-.17.69.45.45,0,0,1-.41.29.35.35,0,0,1-.34-.21,1.2,1.2,0,0,1-.11-.54.92.92,0,0,1,.14-.53.6.6,0,0,1,.36-.25l.19,0,.12,0a1.19,1.19,0,0,1,.22.12Zm1.22,1-.09-.1,0,0a.19.19,0,0,0-.07.06.24.24,0,0,1-.13.06.22.22,0,0,1-.13,0,.11.11,0,0,1,0-.1V80.24a.73.73,0,0,0-.33-.62,1.44,1.44,0,0,0-.82-.23,1.48,1.48,0,0,0-.83.21.58.58,0,0,0-.31.51c0,.2.12.31.34.31s.35-.1.36-.3a.55.55,0,0,0-.06-.26l-.06-.13s.06-.08.17-.13a.74.74,0,0,1,.34-.07.56.56,0,0,1,.33.12.38.38,0,0,1,.15.3v1.13h-.36l-.18,0-.16,0a1.34,1.34,0,0,0-.77.38,1,1,0,0,0-.3.77,1,1,0,0,0,.19.63.64.64,0,0,0,.54.25,1.31,1.31,0,0,0,.53-.12,1.64,1.64,0,0,0,.51-.37.52.52,0,0,0,.16.34.47.47,0,0,0,.39.14.61.61,0,0,0,.38-.1A2.35,2.35,0,0,0,477.42,82.78Zm-3.12-2.93a.43.43,0,0,0-.15-.33.57.57,0,0,0-.4-.13.88.88,0,0,0-.56.19,1.71,1.71,0,0,0-.47.58V79.4l-1.21,0v.17H472v3.27h-.41V83h1.81v-.17h-.63V81.48A3.21,3.21,0,0,1,473,80.2c.16-.36.32-.55.51-.55h0a0,0,0,0,1,0,0l0,.23q0,.3.36.3h0A.35.35,0,0,0,474.3,79.85ZM471.21,83v-.17h-.51V79.4l-1.27,0v.17h.5v3.27h-.53V83Zm-.49-4.34a.36.36,0,0,0-.12-.27.39.39,0,0,0-.28-.12.4.4,0,0,0-.29.12.36.36,0,0,0-.12.28A.36.36,0,0,0,470,79a.4.4,0,0,0,.29.12.39.39,0,0,0,.28-.12A.36.36,0,0,0,470.72,78.7Zm-2.14,1.73,0,.47h-1v-.12a3.21,3.21,0,0,1,.11-.94.39.39,0,0,1,.42-.31.4.4,0,0,1,.38.24A1.41,1.41,0,0,1,468.58,80.43Zm.8,1.31h-.17a2.41,2.41,0,0,1-.13.41,3.51,3.51,0,0,1-.22.43.8.8,0,0,1-.7.42.48.48,0,0,1-.48-.33,2.52,2.52,0,0,1-.14-.93v-.66h1.76a0,0,0,0,0,.05,0s0,0,0-.06V80.9a1.63,1.63,0,0,0-.36-1.07,1.12,1.12,0,0,0-.88-.44,1.22,1.22,0,0,0-1,.57,2.25,2.25,0,0,0-.42,1.37,2.08,2.08,0,0,0,.41,1.27,1.13,1.13,0,0,0,1.77.2A2,2,0,0,0,469.38,81.74Zm-3,.84-.14-.07a.76.76,0,0,1-.16.26.37.37,0,0,1-.28.1.25.25,0,0,1-.21-.07.35.35,0,0,1-.06-.23V79.64h.67v-.21h-.67v-.76l-.76.18v.58h-.45v.21h.45v2.94a.52.52,0,0,0,.17.44.93.93,0,0,0,.55.12.86.86,0,0,0,.63-.19A.81.81,0,0,0,466.37,82.58Zm-2.12.46v-.17h-.45v-2.1a2.13,2.13,0,0,0-.2-1,.72.72,0,0,0-.67-.35,1.19,1.19,0,0,0-.58.15,1.12,1.12,0,0,0-.47.51V79.4l-1.23,0v.17h.48v3.27h-.48V83h1.67v-.17h-.44v-1.6a2.37,2.37,0,0,1,.25-1.21q.24-.42.54-.42c.16,0,.27.09.32.29a2.27,2.27,0,0,1,.05.34c0,.14,0,.3,0,.48v2.12h-.45V83Zm-4.55-1.32a2.63,2.63,0,0,1-.14,1,.49.49,0,0,1-.5.32.5.5,0,0,1-.51-.33,2.72,2.72,0,0,1-.13-1v-.91a2.91,2.91,0,0,1,.13-1,.53.53,0,0,1,.51-.32.5.5,0,0,1,.5.33,2.46,2.46,0,0,1,.14,1Zm.85-.45a2,2,0,0,0-.46-1.32,1.3,1.3,0,0,0-1-.56,1.33,1.33,0,0,0-1,.56,2,2,0,0,0-.45,1.32,2,2,0,0,0,.46,1.31,1.27,1.27,0,0,0,1,.56,1.33,1.33,0,0,0,1-.56A2,2,0,0,0,460.55,81.27Zm-3-1.42a.43.43,0,0,0-.15-.33.57.57,0,0,0-.4-.13.88.88,0,0,0-.56.19,1.71,1.71,0,0,0-.47.58V79.4l-1.21,0v.17h.46v3.27h-.41V83h1.81v-.17H456V81.48a3.21,3.21,0,0,1,.23-1.28c.15-.36.32-.55.51-.55h0a0,0,0,0,1,0,0l0,.23q0,.3.36.3h0A.35.35,0,0,0,457.52,79.85Zm-3.18,0,0-1.4h-3.91v.17h.7v4.26h-.7V83h2.29v-.17H452V80.76h.19a.79.79,0,0,1,.72.28,1.16,1.16,0,0,1,.17.63h.19V79.75h-.19a1,1,0,0,1-.18.59.83.83,0,0,1-.71.25H452v-2h.83a1.36,1.36,0,0,1,.88.24,1.69,1.69,0,0,1,.45,1Zm-6,3.2v-.17h-.47v-2.1a2.28,2.28,0,0,0-.18-1,.67.67,0,0,0-.67-.34,1,1,0,0,0-.58.18,1.14,1.14,0,0,0-.34.39.88.88,0,0,0-.29-.41.81.81,0,0,0-.56-.16,1,1,0,0,0-.53.15,1.11,1.11,0,0,0-.43.51V79.4l-1.23,0v.17h.48v3.27h-.48V83h1.64v-.17h-.39V81a1.73,1.73,0,0,1,.23-1q.22-.36.39-.36H445a.28.28,0,0,1,.29.19,2.17,2.17,0,0,1,.06.59v2.45H445V83h1.51v-.17h-.39V81a1.89,1.89,0,0,1,.22-1,.59.59,0,0,1,.47-.33h0a.22.22,0,0,1,.24.19,4,4,0,0,1,0,.59v2.45h-.37V83Zm-6.14-2.61,0,.47h-1v-.12a3.27,3.27,0,0,1,.1-.94.4.4,0,0,1,.43-.31.41.41,0,0,1,.38.24A1.41,1.41,0,0,1,442.21,80.43Zm.8,1.31h-.18a1.71,1.71,0,0,1-.12.41,3.51,3.51,0,0,1-.22.43.8.8,0,0,1-.7.42.48.48,0,0,1-.48-.33,2.33,2.33,0,0,1-.14-.93v-.66h1.76s0,0,0,0,0,0,0-.06V80.9a1.58,1.58,0,0,0-.37-1.07,1.1,1.1,0,0,0-.87-.44,1.23,1.23,0,0,0-1,.57,2.31,2.31,0,0,0-.41,1.37,2,2,0,0,0,.41,1.27,1.16,1.16,0,0,0,.94.54,1.18,1.18,0,0,0,.83-.34A2.1,2.1,0,0,0,443,81.74Zm-3.27.25a1.41,1.41,0,0,0-.18-.78.65.65,0,0,0-.27-.21,2,2,0,0,0-.45-.15,1.46,1.46,0,0,1-.62-.26.44.44,0,0,1-.15-.37.81.81,0,0,1,.15-.49.52.52,0,0,1,.43-.2.69.69,0,0,1,.51.23.87.87,0,0,1,.22.48h.19v-.88h-.12l-.12.25a1.15,1.15,0,0,0-.29-.16,1.27,1.27,0,0,0-.39-.06.82.82,0,0,0-.65.3,1.14,1.14,0,0,0-.26.79,1,1,0,0,0,.29.78,1.49,1.49,0,0,0,.31.2,2,2,0,0,0,.34.12,1.52,1.52,0,0,1,.6.23.58.58,0,0,1,.17.47.73.73,0,0,1-.2.52.59.59,0,0,1-.45.2.79.79,0,0,1-.6-.26,1.36,1.36,0,0,1-.29-.69h-.19v1h.11l.2-.21a1.34,1.34,0,0,0,.36.22,1,1,0,0,0,.38.08.88.88,0,0,0,.72-.3A1.32,1.32,0,0,0,439.74,82Z"/><path class="cls-5" d="M465.37,61.29c-5-3.26-7.1-.4-7.1-.4-2-2.37-5.72-.74-8.24,1.23s-6.41,3.8-7.84,3.95a8.94,8.94,0,0,1-2.57-.1c7.86,4.88,18.6-.64,18.6-.64a25.79,25.79,0,0,0,12.24,2.57c4.68-.35,6.41-1.93,6.41-1.93-4.44.59-6.46-1.43-11.5-4.68"/><path class="cls-6" d="M474.81,44.36h0a1.3,1.3,0,0,0-.56-.46,4.18,4.18,0,0,0-.93-.32A3.47,3.47,0,0,1,472,43a1,1,0,0,1-.3-.79,1.63,1.63,0,0,1,.32-1,1,1,0,0,1,.89-.44,1.35,1.35,0,0,1,1,.5,1.82,1.82,0,0,1,.47,1h.38V40.42h-.25l-.23.53a2.3,2.3,0,0,0-.62-.34,2.34,2.34,0,0,0-.79-.13,1.68,1.68,0,0,0-1.36.63,2.51,2.51,0,0,0-.53,1.68,2.09,2.09,0,0,0,.6,1.67,3,3,0,0,0,1.35.67,3.33,3.33,0,0,1,1.23.49,1.26,1.26,0,0,1,.35,1,1.5,1.5,0,0,1-.41,1.09,1.2,1.2,0,0,1-.94.44,1.59,1.59,0,0,1-1.23-.57,2.86,2.86,0,0,1-.61-1.45H471v2.14h.23l.42-.44a3,3,0,0,0,.73.47,2.15,2.15,0,0,0,.8.16,1.82,1.82,0,0,0,1.5-.64,2.89,2.89,0,0,0,.51-1.83,2.84,2.84,0,0,0-.38-1.64m-6.76,1.29h0a3.17,3.17,0,0,1-.33,1.46,1,1,0,0,1-.87.63.73.73,0,0,1-.7-.45,2.77,2.77,0,0,1-.22-1.15,2,2,0,0,1,.28-1.12,1.26,1.26,0,0,1,.76-.55,1.89,1.89,0,0,1,.38,0,.69.69,0,0,1,.25,0,2.07,2.07,0,0,1,.45.27Zm2.26,1.91h0a.71.71,0,0,0-.13.12.46.46,0,0,1-.28.13.4.4,0,0,1-.27-.09.22.22,0,0,1-.08-.2V42.28a1.57,1.57,0,0,0-.68-1.31,2.83,2.83,0,0,0-1.69-.49,3,3,0,0,0-1.73.44,1.25,1.25,0,0,0-.64,1.08.62.62,0,0,0,.71.66.65.65,0,0,0,.75-.63,1.16,1.16,0,0,0-.13-.56,1.27,1.27,0,0,1-.12-.26c0-.09.11-.19.34-.29a1.58,1.58,0,0,1,.71-.15,1.14,1.14,0,0,1,.68.26.83.83,0,0,1,.3.65v2.38h-.38l-.36,0-.37,0-.33,0A2.88,2.88,0,0,0,465,45a2.2,2.2,0,0,0-.61,1.64,2.24,2.24,0,0,0,.39,1.34,1.3,1.3,0,0,0,1.11.53,2.74,2.74,0,0,0,1.12-.25,3.13,3.13,0,0,0,1-.79,1.3,1.3,0,0,0,.34.73,1,1,0,0,0,.82.3,1.37,1.37,0,0,0,.79-.22,3.86,3.86,0,0,0,.59-.56l-.18-.2Zm-7.19-4.14h0a4.55,4.55,0,0,0-.41-2.2,1.47,1.47,0,0,0-1.39-.74,2.41,2.41,0,0,0-1.21.32,2.36,2.36,0,0,0-1,1.08V40.49l-2.54.07v.37h1v6.94h-1v.37h3.47v-.37h-.93v-3.4a5.17,5.17,0,0,1,.52-2.57c.33-.6.7-.9,1.12-.9s.55.21.66.62a4,4,0,0,1,.11.73c0,.29,0,.63,0,1v4.51h-.92v.37h3.39v-.37h-.94ZM455,40.49h0l-2.63.07v.37h1.05v6.94h-1.1v.37h3.75v-.37H455Zm-.79-.63h0a.77.77,0,0,0,.58-.25.79.79,0,0,0,.25-.6.85.85,0,0,0-.83-.83.79.79,0,0,0-.59.25.82.82,0,0,0-.25.6.81.81,0,0,0,.25.58A.79.79,0,0,0,454.23,39.86Zm-8.14,5.3-2-6.7h-3.78v.36h1.45v9h-1.45v.37h3.35v-.37h-1.45V38.93l3,9.31h.5l3-9.31v8.94h-1.45v.37h4.76v-.37h-1.45v-9h1.45v-.36h-3.7Z"/><path class="cls-6" d="M474.88,58.43h0V48.79l-.75.12-.56.07L473,49h-.75v.37h1.05v9h-1.09v.36H476v-.36Zm-6.13-2.23h0a3.18,3.18,0,0,1-.33,1.47,1,1,0,0,1-.87.63.73.73,0,0,1-.7-.46,2.55,2.55,0,0,1-.22-1.14,2,2,0,0,1,.28-1.13,1.28,1.28,0,0,1,.76-.54,1.89,1.89,0,0,1,.38,0,.69.69,0,0,1,.25,0,2.51,2.51,0,0,1,.45.26ZM471,58.11h0l-.14.13a.44.44,0,0,1-.27.13.4.4,0,0,1-.27-.09.22.22,0,0,1-.08-.2V52.84a1.56,1.56,0,0,0-.68-1.31,2.86,2.86,0,0,0-1.69-.5,3.08,3.08,0,0,0-1.73.44,1.31,1.31,0,0,0-.65,1.09q0,.66.72.66a.65.65,0,0,0,.75-.63,1.28,1.28,0,0,0-.13-.56,1.61,1.61,0,0,1-.12-.26c0-.09.11-.19.34-.3a1.73,1.73,0,0,1,.71-.14,1.14,1.14,0,0,1,.68.26.83.83,0,0,1,.3.65v2.38h-.38l-.36,0-.37,0-.34,0a2.94,2.94,0,0,0-1.59.8,2.22,2.22,0,0,0-.61,1.64,2.25,2.25,0,0,0,.39,1.35,1.3,1.3,0,0,0,1.11.53,2.7,2.7,0,0,0,1.11-.25,3.19,3.19,0,0,0,1-.79,1.24,1.24,0,0,0,.34.73,1,1,0,0,0,.82.29,1.32,1.32,0,0,0,.79-.22,3.73,3.73,0,0,0,.58-.55l-.17-.21ZM463.31,51h0a1.94,1.94,0,0,0-1.16.4,3.65,3.65,0,0,0-1,1.24V51.05l-2.52.07v.37h1v6.94h-.86v.36h3.75v-.36h-1.31V55.49a7.23,7.23,0,0,1,.48-2.73q.48-1.17,1.05-1.17h.09a.09.09,0,0,1,0,.07l-.06.48c0,.43.29.65.76.65h.06a.73.73,0,0,0,.82-.79.93.93,0,0,0-.31-.71A1.17,1.17,0,0,0,463.31,51Zm-6.77,0h0l-2.68.06v.37H455v4.08a4.08,4.08,0,0,1-.52,2.11,1.44,1.44,0,0,1-1.21.87.54.54,0,0,1-.5-.39,3,3,0,0,1-.14-1V51.06l-2.53.06v.37H451v5.18a2.86,2.86,0,0,0,.46,1.71,1.5,1.5,0,0,0,1.31.63,2.26,2.26,0,0,0,1.18-.33,3,3,0,0,0,1-1.09v1.32l.45-.06.36,0,.58,0h1.19v-.36h-1ZM443.6,53.39h0v-4H445a1.54,1.54,0,0,1,1.28.48,2.59,2.59,0,0,1,.36,1.54,2.21,2.21,0,0,1-.44,1.51,1.82,1.82,0,0,1-1.39.48Zm5.15,5a.72.72,0,0,1-.35-.47v-.72a6.72,6.72,0,0,0-.13-1.23,3.93,3.93,0,0,0-.35-1,3.13,3.13,0,0,0-2.32-1.33,5.09,5.09,0,0,0,2.33-.84,2.07,2.07,0,0,0-.06-3.25,4.42,4.42,0,0,0-2.41-.53H440.3v.37h1.45v9H440.3v.36h4.75v-.36H443.6V53.76h.76a1.66,1.66,0,0,1,1.54.77,2.75,2.75,0,0,1,.31.93c.06.36.1.77.13,1.24l0,.63a1.92,1.92,0,0,0,1.07,1.43,2.52,2.52,0,0,0,1.07.21,5.61,5.61,0,0,0,1.32-.18v-.33a5.4,5.4,0,0,1-.62,0A1.07,1.07,0,0,1,448.75,58.43Z"/><path class="cls-5" d="M488.71,26.21c-5.31-2.51-11.49,1.62-13.32,3s-7.64,5.47-18.06,5.38S441.27,27,435,25.62a9.88,9.88,0,0,0-10.21,3.75c-.31.57-1,1.42,1.88,4.68s7.74,3.31,7.74,3.31h23.34s20.92.31,26.49.1A10.22,10.22,0,0,0,492.75,32c.59-.9,1.27-3.31-4-5.82"/><path class="cls-5" d="M473.37,19.3c-1-2.87-1.35-3.42-2.52-4s-5.64-3.3-10.8-1.39a6.31,6.31,0,0,1-2.72.05c-.82-.35-4.5-2-10.21,1.29A4.64,4.64,0,0,0,445,17.53c-.73,1.64-1.9,5.18-2,11.1,0,0,23.13,2.25,31.57-.05,0,0-.23-6.41-1.18-9.28"/><path class="cls-3" d="M140.5,59.82s-14.13,7.05-9.95,16.43,10.85,6.83,10.85,6.83l4.63.11,49.43-.09,16.82,0,1.55-18.81s-38.31-2.32-43.16.76S144.57,51.53,140.5,59.82Z"/><path class="cls-7" d="M124.22,64.48S125.86,52,159.74,49.76c.65,0,2.23-5.13,2.73-4.81-.06-1.06-1.19-5.59-1.19-5.59-.61-1.39-1.14-1.47-3.81-1.47-3.18.39-33.95,4.15-33.25,26.59Z"/><path class="cls-7" d="M126.91,74.38s-4.56-12.84,13.56-21.16c3.15-1.68,19.69-6.91,22.84-3.75-.39-2.16-.72-3.63-.72-3.63s.11-2.11-3.81-1.9c-9.56,1.06-14.91,2.74-22.15,6.64,0,0-15.3,7.53-9.72,23.8Z"/><path class="cls-7" d="M174.62,59.52a7.2,7.2,0,0,1,1.34-.11,2.63,2.63,0,0,1,1.75.52,1.82,1.82,0,0,1,.63,1.51,2.81,2.81,0,0,1-1,2.21,3.48,3.48,0,0,1-2.31.65,7.47,7.47,0,0,1-1.32-.1l.89-4.68Zm.29,3.92h0l.45,0a1.75,1.75,0,0,0,1.37-.56,2.15,2.15,0,0,0,.5-1.45A1.12,1.12,0,0,0,176,60.23a1.78,1.78,0,0,0-.44,0l-.61,3.17Z"/><path class="cls-7" d="M178.56,64.26l.66-3.49h1l-.66,3.49Zm1.3-3.93h0a.47.47,0,0,1-.49-.5.58.58,0,0,1,.59-.59.49.49,0,0,1,.52.51.57.57,0,0,1-.61.58Z"/><path class="cls-7" d="M180.58,63.34a2.24,2.24,0,0,0,.91.24c.29,0,.44-.14.44-.31s-.11-.29-.44-.45a1.1,1.1,0,0,1-.73-.93c0-.73.63-1.21,1.53-1.21a2.12,2.12,0,0,1,.91.18l-.26.73a1.61,1.61,0,0,0-.69-.15c-.28,0-.46.11-.46.31s.15.26.43.4.78.47.78,1c0,.8-.68,1.24-1.61,1.23a2,2,0,0,1-1.06-.27l.25-.72Z"/><path class="cls-7" d="M185.39,59.82l-.17.94H186l-.16.79h-.74l-.24,1.18a2.42,2.42,0,0,0-.06.45c0,.17.07.29.3.29a1.27,1.27,0,0,0,.28,0l-.11.81a2.15,2.15,0,0,1-.61.08c-.62,0-.92-.31-.92-.76a3.66,3.66,0,0,1,.08-.65l.27-1.38h-.44l.14-.79h.45l.13-.66,1-.28Z"/><path class="cls-7" d="M185.91,64.26l.39-2.08c.1-.53.14-1.11.18-1.41h.89c0,.23,0,.47-.06.71h0a1.32,1.32,0,0,1,1.12-.79h.19l-.2,1h-.17c-.65,0-1,.58-1.09,1.27l-.24,1.3Z"/><path class="cls-7" d="M188.55,64.26l.67-3.49h1l-.67,3.49Zm1.3-3.93h0a.48.48,0,0,1-.49-.5.58.58,0,0,1,.59-.59.49.49,0,0,1,.52.51.56.56,0,0,1-.6.58Z"/><path class="cls-7" d="M192.43,59.19l-.41,2h0a1.4,1.4,0,0,1,1.08-.5,1.09,1.09,0,0,1,1.06,1.22,2.31,2.31,0,0,1-2.32,2.43c-.83,0-1.24-.36-1.24-1a2.8,2.8,0,0,1,.08-.64l.71-3.53Zm-.72,3.6h0a2.13,2.13,0,0,0,0,.39.36.36,0,0,0,.4.38c.6,0,1-.83,1-1.44,0-.34-.14-.6-.46-.6s-.73.38-.86,1l-.06.29Z"/><path class="cls-7" d="M198.23,60.77l-.44,2.35c-.09.45-.14.83-.19,1.14h-.9l.06-.56h0a1.5,1.5,0,0,1-1.2.65c-.57,0-.9-.31-.9-1a3.19,3.19,0,0,1,.07-.64l.37-1.95h1l-.36,1.87a2.79,2.79,0,0,0,0,.46c0,.23.09.4.35.4s.71-.42.84-1.11l.31-1.62Z"/><path class="cls-7" d="M198.45,64.26l.66-3.49h1l-.66,3.49Zm1.3-3.93h0a.48.48,0,0,1-.5-.5.59.59,0,0,1,.6-.59.49.49,0,0,1,.52.51.57.57,0,0,1-.61.58Z"/><path class="cls-7" d="M204.44,59.19l-.71,3.71a9.64,9.64,0,0,0-.16,1.36h-.94l.05-.56h0a1.35,1.35,0,0,1-1.15.64c-.59,0-1.08-.47-1.08-1.32a2.25,2.25,0,0,1,2.2-2.34,1.36,1.36,0,0,1,.48.09l.31-1.58ZM203,61.59h0a.69.69,0,0,0-.41-.12c-.62,0-1.06.71-1.06,1.38,0,.43.19.66.48.66s.67-.31.8-1l.19-.93Z"/><path class="cls-7" d="M208,62.12a2.09,2.09,0,0,1-2.09,2.22,1.39,1.39,0,0,1-1.48-1.45,2.1,2.1,0,0,1,2.09-2.21A1.39,1.39,0,0,1,208,62.12Zm-2.5.76h0c0,.4.2.67.56.67.55,0,.87-.83.87-1.42,0-.32-.14-.66-.55-.66-.59,0-.88.86-.88,1.41Z"/><path class="cls-7" d="M208.33,64.26l.4-2.08c.1-.53.14-1.11.17-1.41h.9c0,.23,0,.47-.07.71h0a1.31,1.31,0,0,1,1.11-.79h.19l-.2,1h-.16c-.66,0-1,.58-1.09,1.27l-.25,1.3Z"/><path class="cls-7" d="M213.21,64.26c0-.21,0-.44,0-.69h0a1.32,1.32,0,0,1-1.18.77A1.09,1.09,0,0,1,211,63.12a2.37,2.37,0,0,1,2.51-2.43,4.17,4.17,0,0,1,1.15.17l-.36,1.83a7.7,7.7,0,0,0-.14,1.57Zm.3-2.76h0a1.14,1.14,0,0,0-.28,0c-.67,0-1.15.81-1.15,1.46,0,.35.13.58.42.58s.69-.35.85-1.21l.16-.8Z"/><path class="cls-7" d="M145.64,59a6.52,6.52,0,0,1,3.7.92l.9.61-1.06,7.13c5.73-2.4,11.69-3.12,16.88-.92-.37-2.08-.8-6.95-.8-6.95-.89-11.7-1.2-11.61-6.26-11.33-3.3-.16-12.44,3-17.95,5.66.24,0,4.34,4.88,4.59,4.88Z"/><path class="cls-7" d="M134,68l1-5h2.38c21.15-15.69,3.08-9,4.78-10.46-10.78,4.92-20.8,17.65-8.67,29.4,0,0-6.58-6.71.56-13.92Z"/><path class="cls-7" d="M134.66,82.48l2.71-14.27H135l.79-4.13h2.41l.15-.94a9.74,9.74,0,0,1,3.07-6,8.11,8.11,0,0,1,5.22-1.73,7.31,7.31,0,0,1,2.86.45l-.94,4.28a4.4,4.4,0,0,0-1.73-.3c-1.76,0-2.81,1.5-3.15,3.34l-.19.9h3.64l-.79,4.13h-3.6L140,82.48Z"/><path class="cls-7" d="M161.37,67.19l-1.94,10.32c-.37,1.94-.62,3.59-.81,5h-4l.28-2.47-.07,0a6.57,6.57,0,0,1-5.25,2.84c-2.47,0-3.94-1.37-3.94-4.28a14.06,14.06,0,0,1,.31-2.82l1.63-8.53h4.5l-1.56,8.19a12.38,12.38,0,0,0-.22,2c0,1,.41,1.75,1.53,1.75,1.53,0,3.1-1.84,3.69-4.88l1.35-7.09Z"/><path class="cls-7" d="M169.69,63l-.78,4.12h3.28l-.69,3.44h-3.25l-1,5.2a10.42,10.42,0,0,0-.25,1.94c0,.75.31,1.28,1.31,1.28a7.19,7.19,0,0,0,1.22-.07l-.5,3.54a9.11,9.11,0,0,1-2.66.34c-2.72,0-4-1.37-4-3.31a13.33,13.33,0,0,1,.34-2.85l1.16-6.07H161.9l.63-3.44h2l.56-2.87L169.69,63Z"/><path class="cls-7" d="M187.26,67.19l-1.94,10.32c-.37,1.94-.62,3.59-.81,5h-4l.28-2.47-.06,0a6.6,6.6,0,0,1-5.26,2.84c-2.47,0-3.94-1.37-3.94-4.28a14.14,14.14,0,0,1,.32-2.82l1.62-8.53H178l-1.57,8.19a13.58,13.58,0,0,0-.22,2c0,1,.41,1.75,1.53,1.75,1.54,0,3.1-1.84,3.7-4.88l1.34-7.09Z"/><path class="cls-7" d="M187,82.48l1.72-9.1c.44-2.32.62-4.88.78-6.19h3.91c-.09,1-.16,2.06-.28,3.12h.09c1.1-2,2.78-3.47,4.88-3.47a7.86,7.86,0,0,1,.84,0L198,71.25a5.54,5.54,0,0,0-.72,0c-2.88,0-4.22,2.56-4.79,5.57l-1.06,5.69Z"/><path class="cls-7" d="M207.06,82.48c0-.91.12-1.94.18-3h-.06A5.81,5.81,0,0,1,202,82.82c-2.75,0-4.63-2.12-4.63-5.31,0-5.16,3.44-10.67,11-10.67a18.25,18.25,0,0,1,5.06.75l-1.59,8a36.85,36.85,0,0,0-.63,6.88Zm1.28-12.1h0a6.08,6.08,0,0,0-1.22-.13c-2.91,0-5,3.57-5,6.41,0,1.5.6,2.53,1.85,2.53s3-1.53,3.72-5.28l.69-3.53Z"/><path class="cls-8" d="M124.25,64.48s1.42-20.86,35.3-23.12a4.31,4.31,0,0,1,2.15.48,18,18,0,0,0-.39-2.48c-.61-1.39-1.14-1.47-3.81-1.47-3.17.39-33.95,4.15-33.25,26.59Z"/><path class="cls-9" d="M126.62,74.38s-4.55-12.84,13.57-21.16c3.14-1.68,19.69-6.91,22.84-3.75-.39-2.16-.72-3.63-.72-3.63s.11-2.11-3.81-1.9c-9.56,1.06-14.92,2.74-22.15,6.64,0,0-15.31,7.53-9.73,23.8Z"/><path class="cls-8" d="M174.65,59.52a7.2,7.2,0,0,1,1.34-.11,2.63,2.63,0,0,1,1.75.52,1.79,1.79,0,0,1,.64,1.51,2.79,2.79,0,0,1-1,2.21,3.46,3.46,0,0,1-2.31.65,7.47,7.47,0,0,1-1.32-.1l.89-4.68Zm.3,3.92h0l.45,0a1.73,1.73,0,0,0,1.36-.56,2.15,2.15,0,0,0,.5-1.45A1.12,1.12,0,0,0,176,60.23a1.78,1.78,0,0,0-.44,0l-.6,3.17Z"/><path class="cls-8" d="M178.59,64.26l.66-3.49h1l-.66,3.49Zm1.3-3.93h0a.48.48,0,0,1-.49-.5.58.58,0,0,1,.59-.59.49.49,0,0,1,.52.51.57.57,0,0,1-.6.58Z"/><path class="cls-8" d="M180.61,63.34a2.24,2.24,0,0,0,.91.24c.29,0,.44-.14.44-.31s-.11-.29-.43-.45a1.12,1.12,0,0,1-.74-.93c0-.73.64-1.21,1.54-1.21a2,2,0,0,1,.9.18l-.25.73a1.66,1.66,0,0,0-.7-.15c-.27,0-.45.11-.45.31s.14.26.42.4.79.47.79,1c0,.8-.68,1.24-1.61,1.23a2,2,0,0,1-1.07-.27l.25-.72Z"/><path class="cls-8" d="M185.43,59.82l-.18.94H186l-.16.79h-.74l-.24,1.18a2.38,2.38,0,0,0-.05.45c0,.17.07.29.3.29a1.37,1.37,0,0,0,.28,0l-.12.81a2.1,2.1,0,0,1-.61.08c-.62,0-.91-.31-.91-.76a2.92,2.92,0,0,1,.08-.65l.26-1.38h-.44l.14-.79h.45l.13-.66,1.06-.28Z"/><path class="cls-8" d="M185.94,64.26l.39-2.08c.1-.53.15-1.11.18-1.41h.9c0,.23,0,.47-.07.71h0a1.32,1.32,0,0,1,1.12-.79h.19l-.2,1h-.16c-.66,0-1,.58-1.1,1.27l-.24,1.3Z"/><path class="cls-8" d="M188.58,64.26l.67-3.49h1l-.67,3.49Zm1.31-3.93h0a.48.48,0,0,1-.5-.5.59.59,0,0,1,.6-.59.49.49,0,0,1,.52.51.57.57,0,0,1-.61.58Z"/><path class="cls-8" d="M192.47,59.19l-.42,2h0a1.4,1.4,0,0,1,1.08-.5,1.09,1.09,0,0,1,1.06,1.22,2.31,2.31,0,0,1-2.31,2.43c-.83,0-1.25-.36-1.25-1a3.5,3.5,0,0,1,.08-.64l.71-3.53Zm-.73,3.6h0a1.54,1.54,0,0,0,0,.39.35.35,0,0,0,.39.38c.6,0,1-.83,1-1.44,0-.34-.14-.6-.45-.6s-.74.38-.86,1l-.07.29Z"/><path class="cls-8" d="M198.27,60.77l-.45,2.35q-.12.68-.18,1.14h-.91l.06-.56h0a1.5,1.5,0,0,1-1.2.65c-.57,0-.9-.31-.9-1a3.19,3.19,0,0,1,.07-.64l.37-1.95h1l-.36,1.87a2.79,2.79,0,0,0,0,.46c0,.23.1.4.35.4s.71-.42.85-1.11l.3-1.62Z"/><path class="cls-8" d="M198.48,64.26l.66-3.49h1l-.66,3.49Zm1.3-3.93h0a.47.47,0,0,1-.49-.5.58.58,0,0,1,.59-.59.49.49,0,0,1,.52.51.57.57,0,0,1-.61.58Z"/><path class="cls-8" d="M204.48,59.19l-.71,3.71a9.71,9.71,0,0,0-.17,1.36h-.94l.05-.56h0a1.36,1.36,0,0,1-1.16.64c-.59,0-1.07-.47-1.07-1.32a2.24,2.24,0,0,1,2.2-2.34,1.4,1.4,0,0,1,.48.09l.3-1.58ZM203,61.59h0a.66.66,0,0,0-.4-.12c-.63,0-1.06.71-1.06,1.38,0,.43.18.66.48.66s.66-.31.8-1l.18-.93Z"/><path class="cls-8" d="M208.06,62.12A2.09,2.09,0,0,1,206,64.34a1.39,1.39,0,0,1-1.48-1.45,2.11,2.11,0,0,1,2.09-2.21,1.39,1.39,0,0,1,1.48,1.44Zm-2.5.76h0c0,.4.2.67.56.67.55,0,.88-.83.88-1.42,0-.32-.15-.66-.55-.66-.6,0-.89.86-.89,1.41Z"/><path class="cls-8" d="M208.37,64.26l.39-2.08c.1-.53.14-1.11.18-1.41h.89c0,.23,0,.47-.06.71h0a1.31,1.31,0,0,1,1.11-.79h.2l-.2,1h-.17c-.66,0-1,.58-1.09,1.27l-.24,1.3Z"/><path class="cls-8" d="M213.25,64.26c0-.21,0-.44,0-.69h0a1.34,1.34,0,0,1-1.18.77A1.09,1.09,0,0,1,211,63.12a2.36,2.36,0,0,1,2.5-2.43,4.3,4.3,0,0,1,1.16.17l-.37,1.83a9.44,9.44,0,0,0-.14,1.57Zm.29-2.76h0a1.14,1.14,0,0,0-.28,0c-.66,0-1.15.81-1.15,1.46,0,.35.14.58.42.58s.69-.35.85-1.21l.16-.8Z"/><path class="cls-10" d="M146.7,54.31a8.27,8.27,0,0,1,3.32.55l.8.38-.95,4.33C155,58.11,160.36,57.67,165,59c-.33-1.27-1-4.17-1-4.17-.22-1.26-.77-3-5.3-2.84A41.39,41.39,0,0,0,146,54.33l.67,0Z"/><path class="cls-10" d="M134,68l1-5h2.37a10.82,10.82,0,0,1,3.31-6.53c-10.78,4.91-19.33,13.72-7.2,25.47,0,0-6.58-6.71.56-13.92Z"/><path class="cls-9" d="M134.7,82.48l2.7-14.27H135l.79-4.13h2.4l.15-.94a9.75,9.75,0,0,1,3.08-6,8.07,8.07,0,0,1,5.22-1.73,7.25,7.25,0,0,1,2.85.45l-.94,4.28a4.4,4.4,0,0,0-1.73-.3c-1.76,0-2.81,1.5-3.15,3.34l-.19.9h3.64l-.78,4.13h-3.61l-2.66,14.27Z"/><path class="cls-9" d="M161.4,67.19l-1.94,10.32c-.37,1.94-.62,3.59-.81,5h-4L155,80l-.06,0a6.6,6.6,0,0,1-5.26,2.84c-2.47,0-3.94-1.37-3.94-4.28a14.14,14.14,0,0,1,.32-2.82l1.62-8.53h4.51l-1.57,8.19a13.58,13.58,0,0,0-.22,2c0,1,.41,1.75,1.54,1.75,1.53,0,3.09-1.84,3.69-4.88l1.34-7.09Z"/><path class="cls-9" d="M169.72,63l-.78,4.12h3.28l-.69,3.44h-3.25l-1,5.2a10.42,10.42,0,0,0-.25,1.94c0,.75.31,1.28,1.31,1.28a7.08,7.08,0,0,0,1.22-.07l-.5,3.54a9.11,9.11,0,0,1-2.66.34c-2.72,0-4-1.37-4-3.31a12.81,12.81,0,0,1,.35-2.85l1.15-6.07h-1.94l.63-3.44h2l.56-2.87L169.72,63Z"/><path class="cls-9" d="M187.3,67.19l-1.94,10.32c-.38,1.94-.63,3.59-.82,5h-4l.28-2.47-.06,0a6.59,6.59,0,0,1-5.25,2.84c-2.47,0-3.94-1.37-3.94-4.28a14.06,14.06,0,0,1,.31-2.82l1.62-8.53H178l-1.57,8.19a13.46,13.46,0,0,0-.21,2c0,1,.4,1.75,1.53,1.75,1.53,0,3.09-1.84,3.69-4.88l1.34-7.09Z"/><path class="cls-9" d="M187,82.48l1.72-9.1c.44-2.32.63-4.88.78-6.19h3.91c-.09,1-.15,2.06-.28,3.12h.09c1.1-2,2.79-3.47,4.88-3.47a8,8,0,0,1,.85,0l-.88,4.38a5.54,5.54,0,0,0-.72,0c-2.88,0-4.22,2.56-4.78,5.57l-1.07,5.69Z"/><path class="cls-9" d="M207.09,82.48c0-.91.12-1.94.19-3h-.07a5.79,5.79,0,0,1-5.16,3.37c-2.75,0-4.62-2.12-4.62-5.31,0-5.16,3.44-10.67,10.94-10.67a18.27,18.27,0,0,1,5.07.75l-1.6,8a36.83,36.83,0,0,0-.62,6.88Zm1.28-12.1h0a6,6,0,0,0-1.22-.13c-2.91,0-5,3.57-5,6.41,0,1.5.59,2.53,1.84,2.53s3-1.53,3.72-5.28l.69-3.53Z"/><ellipse class="cls-3" cx="195.5" cy="82.82" rx="3.39" ry="1.47"/><ellipse class="cls-3" cx="171.06" cy="82.82" rx="1.7" ry="1.47"/><ellipse class="cls-3" cx="161.33" cy="82.82" rx="1.7" ry="1.47"/><ellipse class="cls-3" cx="143.84" cy="82.82" rx="2.56" ry="1.47"/><path class="cls-11" d="M247.85,81.35h-.67V78l.82,0a1.46,1.46,0,0,1,1.1.42,1.57,1.57,0,0,1,.41,1.13c0,1.19-.56,1.79-1.66,1.79Zm-.22-2.91v2.48a2.18,2.18,0,0,0,.38,0,.9.9,0,0,0,.75-.35,1.63,1.63,0,0,0,.27-1c0-.78-.35-1.17-1.06-1.17l-.34,0ZM250.3,78a.26.26,0,0,1,.19.07.29.29,0,0,1,.08.19.27.27,0,1,1-.46-.19.26.26,0,0,1,.19-.07Zm-.24,3.34V79.29h-.33v-.37h.76v2.43Zm.82-.14.15-.41a1.14,1.14,0,0,0,.58.23c.27,0,.4-.11.4-.33s-.13-.3-.38-.41a2.59,2.59,0,0,1-.4-.21.93.93,0,0,1-.18-.16.76.76,0,0,1-.12-.19.78.78,0,0,1,0-.22.55.55,0,0,1,.21-.46.88.88,0,0,1,.57-.17,1.68,1.68,0,0,1,.67.17l-.12.4a.8.8,0,0,0-.51-.21.5.5,0,0,0-.26.07.21.21,0,0,0-.11.19.38.38,0,0,0,.27.35l.3.14a1.2,1.2,0,0,1,.42.3.67.67,0,0,1,.13.41.62.62,0,0,1-.23.51,1,1,0,0,1-.64.19,1.55,1.55,0,0,1-.72-.19Zm2.06-1.95h-.29v-.34h.29v-.5l.43-.17v.67H254v.34h-.66v1.21a.73.73,0,0,0,.1.44.42.42,0,0,0,.33.12.71.71,0,0,0,.34-.08l.07.38a2.73,2.73,0,0,1-.59.07.63.63,0,0,1-.49-.22.76.76,0,0,1-.19-.54V79.26Zm2.86.08a.46.46,0,0,0-.28-.1.49.49,0,0,0-.4.21.76.76,0,0,0-.18.51v1.39h-.42V78.92h.42v.39a.77.77,0,0,1,.71-.43,1.77,1.77,0,0,1,.33,0l-.18.42Zm.79-1.33a.26.26,0,0,1,.19.07.29.29,0,0,1,.08.19.27.27,0,1,1-.46-.19.26.26,0,0,1,.19-.07Zm-.24,3.34V79.29H256v-.37h.77v2.43Zm1.35-.17-.15.22h-.22V77.93h.43V79.1A.65.65,0,0,1,258,79a.78.78,0,0,1,.33-.07,1,1,0,0,1,.81.34,1.24,1.24,0,0,1,.31.87,1.37,1.37,0,0,1-.31,1,1.09,1.09,0,0,1-.84.35.8.8,0,0,1-.34-.07.59.59,0,0,1-.25-.15Zm.06-1.75v1.4s.05.07.16.12a.54.54,0,0,0,.25.08.83.83,0,0,0,.63-.21,1.07,1.07,0,0,0,.19-.7.94.94,0,0,0-.22-.65.81.81,0,0,0-.6-.23.46.46,0,0,0-.22.07.56.56,0,0,0-.19.12Zm2.43-.51v1.55c0,.38.16.56.48.56a.67.67,0,0,0,.39-.12.58.58,0,0,0,.24-.28V78.92h.43v2.43h-.43V81a.75.75,0,0,1-.29.26.9.9,0,0,1-.43.12.79.79,0,0,1-.61-.23.93.93,0,0,1-.22-.65v-1.6Zm2.43-.91a.26.26,0,0,1,.19.07.29.29,0,0,1,.08.19.27.27,0,1,1-.46-.19.25.25,0,0,1,.19-.07Zm-.24,3.34V79.29h-.33v-.37h.76v2.43Zm2.81-2.23-.21.3a.79.79,0,0,0-.23-.12,1.05,1.05,0,0,0-.33-.06.68.68,0,0,0-.56.25,1,1,0,0,0-.21.67.87.87,0,0,0,.22.65.73.73,0,0,0,.58.22,1,1,0,0,0,.59-.22l.17.36a1.58,1.58,0,0,1-.86.23,1.09,1.09,0,0,1-.83-.34,1.43,1.43,0,0,1,0-1.83,1.22,1.22,0,0,1,.92-.35,1.06,1.06,0,0,1,.41.08,1.05,1.05,0,0,1,.32.16ZM264,82.38l-.06-.22a.67.67,0,0,0,.3-.06.2.2,0,0,0,.11-.17c0-.11-.06-.17-.2-.17v-.27a.45.45,0,0,1,.35.13.41.41,0,0,1,.12.31.38.38,0,0,1-.16.33.78.78,0,0,1-.46.12Zm2.91-1.31a.94.94,0,0,1-.79.33.69.69,0,0,1-.5-.21.7.7,0,0,1-.21-.52.77.77,0,0,1,.33-.62,1.28,1.28,0,0,1,.82-.26.94.94,0,0,1,.31.06c0-.39-.18-.59-.53-.59a.87.87,0,0,0-.62.22l-.18-.36a1.08,1.08,0,0,1,.34-.17,1.22,1.22,0,0,1,.41-.07,1,1,0,0,1,.77.24,1,1,0,0,1,.24.76v.87a.44.44,0,0,0,.19.43v.22a.78.78,0,0,1-.39-.08.41.41,0,0,1-.19-.25Zm0-.91a1.73,1.73,0,0,0-.29,0,.84.84,0,0,0-.53.17.5.5,0,0,0-.21.4c0,.25.15.38.45.38a.76.76,0,0,0,.58-.31v-.59ZM267.1,78c-.08.31-.22.47-.43.47a.71.71,0,0,1-.32-.09.6.6,0,0,0-.24-.09.25.25,0,0,0-.24.18h-.21a.63.63,0,0,1,.15-.33.33.33,0,0,1,.27-.14.69.69,0,0,1,.34.09.6.6,0,0,0,.24.08.24.24,0,0,0,.24-.17Zm.56,2.16a1.35,1.35,0,0,1,.3-.91,1.13,1.13,0,0,1,1.61,0,1.6,1.6,0,0,1,0,1.85,1,1,0,0,1-.8.34,1,1,0,0,1-.81-.35,1.37,1.37,0,0,1-.29-.92Zm.45,0c0,.61.22.92.65.92a.55.55,0,0,0,.47-.25,1.11,1.11,0,0,0,.17-.67c0-.6-.21-.9-.64-.9a.55.55,0,0,0-.47.24,1.08,1.08,0,0,0-.18.66Z"/><path class="cls-11" d="M273.52,80.19h-1.75a.89.89,0,0,0,.24.66.72.72,0,0,0,.53.2.91.91,0,0,0,.61-.22l.19.31a.81.81,0,0,1-.31.17,1.54,1.54,0,0,1-.58.1,1.09,1.09,0,0,1-.77-.31,1.22,1.22,0,0,1-.36-.92,1.29,1.29,0,0,1,.37-1,1.06,1.06,0,0,1,.77-.32,1.11,1.11,0,0,1,.81.29,1,1,0,0,1,.29.75.75.75,0,0,1,0,.26Zm-1-.94a.63.63,0,0,0-.48.19.67.67,0,0,0-.22.44h1.35a.66.66,0,0,0-.16-.44.64.64,0,0,0-.49-.19Z"/><path class="cls-11" d="M274.87,81.33V78h.46v2.91h1.5v.41Zm2-1.22a1.34,1.34,0,0,1,.31-.91,1,1,0,0,1,.79-.35,1,1,0,0,1,.81.34,1.6,1.6,0,0,1,0,1.84,1.13,1.13,0,0,1-1.62,0,1.39,1.39,0,0,1-.29-.92Zm.46,0c0,.61.21.91.64.91a.57.57,0,0,0,.48-.24,1.21,1.21,0,0,0,.17-.67c0-.6-.22-.9-.65-.9a.57.57,0,0,0-.47.24,1.15,1.15,0,0,0-.17.66Zm2,1.88.23-.34a1.24,1.24,0,0,0,.69.25.91.91,0,0,0,.47-.1.29.29,0,0,0,.16-.25q0-.3-.42-.3l-.27,0-.29,0c-.35,0-.52-.13-.52-.39a.28.28,0,0,1,.12-.22.7.7,0,0,1,.3-.14.85.85,0,0,1-.51-.84.83.83,0,0,1,.27-.63.89.89,0,0,1,.65-.26.91.91,0,0,1,.56.15l.22-.26.28.27-.26.19a.92.92,0,0,1,.17.57.87.87,0,0,1-.23.61,1,1,0,0,1-.6.29l-.36,0-.17,0c-.07,0-.11.07-.11.11s.08.1.22.1l.31,0,.3,0a.8.8,0,0,1,.56.17.56.56,0,0,1,.2.47.61.61,0,0,1-.3.54,1.29,1.29,0,0,1-.76.21,1.79,1.79,0,0,1-.49-.08,1.37,1.37,0,0,1-.42-.21Zm.91-2.79a.47.47,0,0,0-.37.16.57.57,0,0,0-.14.38.67.67,0,0,0,.14.43.46.46,0,0,0,.37.16.44.44,0,0,0,.36-.16.71.71,0,0,0,.13-.43.57.57,0,0,0-.14-.38.43.43,0,0,0-.35-.16Zm1.57,2.13V79.26h-.33V78.9h.77v2.43Zm.71-3.67-.51.75h-.32l.39-.75Zm.11,3.52.15-.41a1.17,1.17,0,0,0,.59.24c.26,0,.39-.11.39-.34s-.13-.29-.38-.41-.33-.16-.4-.2a.93.93,0,0,1-.18-.16,1,1,0,0,1-.12-.19.78.78,0,0,1,0-.22.57.57,0,0,1,.21-.47.94.94,0,0,1,.57-.17,1.87,1.87,0,0,1,.67.17l-.12.4a.85.85,0,0,0-.51-.2.42.42,0,0,0-.26.07.22.22,0,0,0-.11.18.39.39,0,0,0,.27.36l.3.14a1.07,1.07,0,0,1,.42.29.7.7,0,0,1,.13.42.63.63,0,0,1-.23.51,1,1,0,0,1-.64.18,1.44,1.44,0,0,1-.72-.19Zm2.05-1.94h-.28V78.9h.28v-.51l.43-.16v.67h.67v.34h-.67v1.21a.67.67,0,0,0,.11.43.39.39,0,0,0,.33.13.84.84,0,0,0,.34-.08l.07.38a2.74,2.74,0,0,1-.59.06.67.67,0,0,1-.49-.21.77.77,0,0,1-.2-.54V79.24Zm2-1.26a.29.29,0,0,1,.19.08.25.25,0,0,1,.07.19.24.24,0,0,1-.26.26.25.25,0,0,1-.19-.07.29.29,0,0,1-.08-.19.27.27,0,0,1,.27-.27Zm-.24,3.35V79.26h-.33V78.9h.76v2.43Zm2.81-2.23-.22.3a.54.54,0,0,0-.23-.12,1,1,0,0,0-.32-.06.68.68,0,0,0-.56.24,1,1,0,0,0-.21.68.92.92,0,0,0,.21.65.77.77,0,0,0,.59.22,1,1,0,0,0,.58-.22l.17.36a1.55,1.55,0,0,1-.86.22,1.11,1.11,0,0,1-.82-.33,1.21,1.21,0,0,1-.32-.9,1.29,1.29,0,0,1,.33-.93,1.22,1.22,0,0,1,.92-.36,1.4,1.4,0,0,1,.74.25Zm1.7,2a1,1,0,0,1-.79.32.7.7,0,0,1-.71-.72.77.77,0,0,1,.32-.62,1.31,1.31,0,0,1,.83-.26,1,1,0,0,1,.31.06c0-.39-.18-.59-.53-.59a.81.81,0,0,0-.62.22l-.18-.36a.83.83,0,0,1,.34-.17,1.24,1.24,0,0,1,.41-.08.87.87,0,0,1,1,1v.87a.45.45,0,0,0,.19.43v.21a.84.84,0,0,1-.4-.07.48.48,0,0,1-.18-.25Zm0-.91a1.13,1.13,0,0,0-.29,0,.82.82,0,0,0-.53.17.49.49,0,0,0-.21.39c0,.26.15.38.45.38a.73.73,0,0,0,.58-.31v-.58Z"/><path class="cls-11" d="M310.77,96.36l3,0,0,.76q0,.75-.72.75h-8.14v3H313a3.63,3.63,0,0,0,2.62-1.08,3.58,3.58,0,0,0,1.1-2.63V90.42A5.78,5.78,0,0,0,315,86.25a5.83,5.83,0,0,0-8.35,0,5.93,5.93,0,0,0,4.16,10.11Zm0-8.78a3,3,0,1,1-3,3,3,3,0,0,1,3-3Z"/><path class="cls-12" d="M316.27,74.19v-2.1a11.09,11.09,0,0,1-6.7,2.1h0c-3.29-.33-6.07-1.16-8.4-3.49a11.94,11.94,0,0,1,0-16.89,11.45,11.45,0,0,1,8.46-3.54,11.28,11.28,0,0,1,6.65,2.06V50.25h5.26v24h-5.26v0Zm-6.64-17.94A5.71,5.71,0,0,0,305.38,58a6,6,0,0,0,0,8.47,5.78,5.78,0,0,0,4.25,1.72,5.85,5.85,0,0,0,4.22-1.72,6,6,0,0,0-4.22-10.24Z"/><path class="cls-12" d="M281.78,74.3,272.38,54a3.22,3.22,0,0,1-.13-2.39,3,3,0,0,1,3.92-1.83A3.06,3.06,0,0,1,278,51.4l6.45,13.76,6.44-13.76a3.09,3.09,0,0,1,1.7-1.61,2.94,2.94,0,0,1,4,1.83,2.85,2.85,0,0,1-.09,2.3L286.92,74.3Z"/><polygon class="cls-12" points="263.5 55.98 269.68 55.98 269.68 74.3 263.5 74.3 263.5 55.98 263.5 55.98"/><path class="cls-12" d="M247.57,74.3,238.17,54a3.27,3.27,0,0,1-.14-2.39A3,3,0,0,1,242,49.79a3.12,3.12,0,0,1,1.78,1.61l6.44,13.76,6.44-13.76a3.12,3.12,0,0,1,1.7-1.61,3,3,0,0,1,2.4,0,2.93,2.93,0,0,1,1.56,1.79,2.85,2.85,0,0,1-.09,2.3L252.71,74.3Z"/><path class="cls-13" d="M282.07,41.69c-7.59-7-13.5,5.14-15.39,11.13.88-2.09,6.2-17.14,15.12-9.15,6.11,5.73,9.53,22.62,11.13,32.18a3.47,3.47,0,0,1,.35-.43,2.88,2.88,0,0,1,2.17-.91,3.24,3.24,0,0,1,1.09.18c-2.54-12.57-8.8-28.35-14.47-33Z"/><path class="cls-12" d="M295.68,76.7a3,3,0,0,1,2.23.92,3,3,0,0,1,.91,2.13,3.12,3.12,0,0,1-3.14,3.14,2.89,2.89,0,0,1-2.17-.92,3.1,3.1,0,0,1-.87-2.22,3,3,0,0,1,.87-2.13,2.89,2.89,0,0,1,2.17-.92Z"/><path class="cls-11" d="M297.77,84.49a5.63,5.63,0,0,1,4.15,1.76,5.92,5.92,0,0,1-4.15,10.1,5.93,5.93,0,0,1,0-11.86Zm0,3a2.84,2.84,0,0,0-2.11.87,2.9,2.9,0,0,0-.86,2.09,2.94,2.94,0,0,0,3,3,2.92,2.92,0,0,0,2.09-.86,2.84,2.84,0,0,0,.87-2.11,3,3,0,0,0-3-3Z"/><path class="cls-11" d="M290.4,93.34a1.46,1.46,0,0,1,1.07.44,1.48,1.48,0,0,1,.44,1.07,1.5,1.5,0,0,1-1.51,1.5h-8.62V85h3v8.33Z"/><path class="cls-14" d="M89.08,79.07l.11,0h.22l0-.11c.09-.21.19-.24.38-.12a2.9,2.9,0,0,1,.29.19.38.38,0,0,0,.43,0,.49.49,0,0,0,.18-.2,1.6,1.6,0,0,0,.19-.47s0,0,0-.08a1.79,1.79,0,0,0-.33,0,1.38,1.38,0,0,1-.06.16.19.19,0,0,1-.29.09.57.57,0,0,1-.13-.08l-.22-.13a.42.42,0,0,0-.6.15,1.56,1.56,0,0,0-.21.54S89.08,79.05,89.08,79.07Zm-40.47,0,.68-.79s0,0,0-.07H48.6s0,0,0,0l-.51.78s0,0,0,0Zm7-.15a6.4,6.4,0,0,0,.18-.69,2.61,2.61,0,0,0-.74,0,3.11,3.11,0,0,0-.16.68l.05,0Zm22.35,0a2.79,2.79,0,0,0,.19-.7,3,3,0,0,0-.73,0,1.69,1.69,0,0,0-.1.34,1.77,1.77,0,0,0-.07.36Zm-7.77,0a2.51,2.51,0,0,0,.17-.68,3,3,0,0,0-.73,0c-.06.2-.11.41-.16.61a.08.08,0,0,0,0,.07A2.81,2.81,0,0,0,70.17,78.92Zm15.19,0,.09-.34a1.3,1.3,0,0,0,.08-.34,3,3,0,0,0-.73,0,3.45,3.45,0,0,0-.18.68A3,3,0,0,0,85.36,78.92Z"/><path class="cls-15" d="M100.16,53.4l0,0a7.36,7.36,0,0,1-.21.93c-.64,2.63-1.34,5.25-2,7.87-.36,1.32-.71,2.64-1.06,4a9.68,9.68,0,0,0-.27,1.3,9.45,9.45,0,0,0-.08,1.06.44.44,0,0,0,.26.44,1.18,1.18,0,0,0,.55.14,2.74,2.74,0,0,0,.85-.09l.43-.11a.11.11,0,0,1,0,.11c-.14.52-.28,1-.43,1.55s-.39,1.3-.53,2a.25.25,0,0,1-.1.16,11.43,11.43,0,0,1-2.32,1.16,6,6,0,0,1-1.92.31,3.86,3.86,0,0,1-2.06-.62,6.11,6.11,0,0,1-1-.84l-.3-.34a.31.31,0,0,1-.09-.11.75.75,0,0,0-.2.1c-.39.24-.79.49-1.19.72a7.58,7.58,0,0,1-1.35.64,5.06,5.06,0,0,1-5-1,5.39,5.39,0,0,1-1.19-1.65,8.86,8.86,0,0,1-.62-1.93A14,14,0,0,1,80,65.94a14.29,14.29,0,0,1,2-6.78,17.41,17.41,0,0,1,2.48-3.32,10.78,10.78,0,0,1,2-1.65,7.05,7.05,0,0,1,2-.9,5.7,5.7,0,0,1,1.59-.22,4.69,4.69,0,0,1,3,1.07,6.78,6.78,0,0,1,.73.69A1.85,1.85,0,0,0,94,55,.32.32,0,0,0,94,54.8a9.81,9.81,0,0,1,.26-1.07,2.92,2.92,0,0,1,.18-.46H99l1,.06h.19ZM85.77,66.15a9.21,9.21,0,0,0,.07,1,3.8,3.8,0,0,0,.25,1,1.63,1.63,0,0,0,.29.49,1,1,0,0,0,.68.38,1.56,1.56,0,0,0,.71,0,2.77,2.77,0,0,0,.82-.42,4.94,4.94,0,0,0,.83-.75,9.89,9.89,0,0,0,1.29-1.85,13,13,0,0,0,1.12-2.8,9.9,9.9,0,0,0,.41-2.48,5.5,5.5,0,0,0-.13-1.4,3.37,3.37,0,0,0-.62-1.31.44.44,0,0,0-.31-.17,2.93,2.93,0,0,0-.66,0,1.84,1.84,0,0,0-.82.23,4.28,4.28,0,0,0-.68.46,6,6,0,0,0-.82.85A10,10,0,0,0,87,61.2a13.37,13.37,0,0,0-1.08,3.31A8.7,8.7,0,0,0,85.77,66.15Z"/><path class="cls-14" d="M85.51,83.57l.09-.16.35-.52c.12-.18.09-.15.29-.15h.36a.58.58,0,0,1,0,.11l-.3.54s0,.11-.08.17Z"/><path class="cls-15" d="M32.43,41.54c0,.09,0,.16,0,.22-.34,1.41-.72,2.81-1,4.23H21.06a.51.51,0,0,0-.09.22c-.18.67-.38,1.34-.55,2-.35,1.35-.68,2.7-1,4.06-.07.25-.14.51-.2.76,0,.06,0,.12-.05.19l.11,0c.59.05,1.18.07,1.77.08,1.36,0,2.72,0,4.08,0h1.63a.24.24,0,0,1,0,.17c-.15.56-.3,1.12-.46,1.67-.23.82-.47,1.64-.71,2.46a.78.78,0,0,1,0,.14l-.12,0H18.08A.3.3,0,0,0,18,58a17,17,0,0,0-.63,1.95c-.24.91-.45,1.82-.68,2.73s-.54,2.07-.81,3.1L15,69a.58.58,0,0,0,0,.19h.09l.77,0c1.41,0,2.83.06,4.24,0l4.92,0h.69a.17.17,0,0,1,0,0c-.32,1.12-.64,2.25-1,3.37-.1.34-.21.69-.34,1H7.74a.57.57,0,0,1-.26,0,.35.35,0,0,1,0-.18c.37-1.47.74-2.94,1.12-4.4l1.71-6.62c.61-2.35,1.23-4.69,1.84-7l1.93-7.3q.81-3.08,1.63-6.15l.06-.27a.19.19,0,0,1,.2-.17H32.43Z"/><path class="cls-15" d="M36.31,55c.08,0,.12,0,.17-.07l.77-.47a9.93,9.93,0,0,1,1.57-.77,5.93,5.93,0,0,1,1.3-.34,4.92,4.92,0,0,1,4.08,1.25,5.1,5.1,0,0,1,1.15,1.57A8.08,8.08,0,0,1,46,58.3a10.87,10.87,0,0,1,.12,1.4,11.23,11.23,0,0,1-.05,1.42,16.46,16.46,0,0,1-1.29,5.07,21.14,21.14,0,0,1-1,2.08,13.08,13.08,0,0,1-2,2.62A14.18,14.18,0,0,1,40,72.44a6.53,6.53,0,0,1-1.74,1,5.7,5.7,0,0,1-1.22.29,5.59,5.59,0,0,1-1.08.06,5.25,5.25,0,0,1-1.87-.38,3.27,3.27,0,0,1-1.34-1l-.51-.65a.9.9,0,0,0-.16-.18c-.06,0-.06.09-.07.14-.13.43-.26.85-.38,1.28-.51,1.8-1,3.62-1.43,5.43-.34,1.32-.68,2.64-1.06,3.95,0,.09-.05.17-.07.24-.19,0-5.7,0-5.86,0,0,0,0-.06,0-.09q3.72-14.58,7.59-29.11a.4.4,0,0,1,.21,0h5.45a.5.5,0,0,1,.21,0,.32.32,0,0,1,0,.14l-.24,1-.09.38A.61.61,0,0,0,36.31,55ZM33.84,65.89c0,.3,0,.6.06.9a3.92,3.92,0,0,0,.21,1,2.16,2.16,0,0,0,.29.54,1.28,1.28,0,0,0,.73.47,1.75,1.75,0,0,0,.72,0,2.6,2.6,0,0,0,.94-.39,4.57,4.57,0,0,0,.86-.72,8.64,8.64,0,0,0,1.15-1.48,12.07,12.07,0,0,0,1.66-4.54,8.17,8.17,0,0,0,.1-1.64,6.16,6.16,0,0,0-.14-1.05,2.6,2.6,0,0,0-.34-.83,1.38,1.38,0,0,0-1.36-.64,2.36,2.36,0,0,0-.89.27,3.75,3.75,0,0,0-.78.54A8.05,8.05,0,0,0,35.62,60a12.07,12.07,0,0,0-1.33,3A10.82,10.82,0,0,0,33.84,65.89Z"/><path class="cls-15" d="M64.09,61.33a14.66,14.66,0,0,1-.51,3.38,14.35,14.35,0,0,1-1.46,3.56,13.09,13.09,0,0,1-3.49,4,10.31,10.31,0,0,1-2,1.18,7.2,7.2,0,0,1-1.63.52,7.74,7.74,0,0,1-2,.19,6.19,6.19,0,0,1-5-2.6,7.66,7.66,0,0,1-1.24-2.61A10.44,10.44,0,0,1,46.45,67a12.7,12.7,0,0,1,0-1.85,15,15,0,0,1,.49-2.9,14,14,0,0,1,2.3-4.66A13.35,13.35,0,0,1,51.91,55a10.37,10.37,0,0,1,2-1.19,7.17,7.17,0,0,1,1.18-.41,5.62,5.62,0,0,1,.7-.1c.38,0,.76-.06,1.14-.07a7.07,7.07,0,0,1,5.55,2.57,6.75,6.75,0,0,1,1,1.8A9.09,9.09,0,0,1,64,59.48,11.8,11.8,0,0,1,64.09,61.33ZM52,66.67a6.05,6.05,0,0,0,.11,1.11,2.23,2.23,0,0,0,.32.82,1.44,1.44,0,0,0,1.52.64,3,3,0,0,0,1-.4A5.37,5.37,0,0,0,56,68,7.07,7.07,0,0,0,57,66.63a12,12,0,0,0,1.73-4.87,9.62,9.62,0,0,0,.06-1.52,5.82,5.82,0,0,0-.15-1.1,2.47,2.47,0,0,0-.3-.78,1,1,0,0,0-.71-.5,2.29,2.29,0,0,0-1.41.17,5.29,5.29,0,0,0-.52.29,4.84,4.84,0,0,0-1.26,1.21,12.26,12.26,0,0,0-1.77,3.33,13.61,13.61,0,0,0-.61,2.5A11.18,11.18,0,0,0,52,66.67Z"/><path class="cls-15" d="M80,60.82a.34.34,0,0,1-.13-.14c-.16-.25-.32-.49-.49-.73s-.35-.52-.54-.76a3.63,3.63,0,0,0-.63-.67,2.75,2.75,0,0,0-1.25-.6,2.68,2.68,0,0,0-1.76.23,4.34,4.34,0,0,0-.81.53,8,8,0,0,0-2.17,2.73,10.31,10.31,0,0,0-.92,2.88,7.56,7.56,0,0,0-.1,1.84,6.08,6.08,0,0,0,.37,1.73,5.11,5.11,0,0,0,.22.48,1.67,1.67,0,0,0,.18.28,1.39,1.39,0,0,0,1,.57,4.3,4.3,0,0,0,2.15-.43,9,9,0,0,0,1.59-1l1.28-1,.38-.29.12-.08c0,.05,0,.07,0,.09-.45,1.67-.83,3.36-1.3,5-.06.22-.13.44-.19.66a.5.5,0,0,1-.16.26,4.71,4.71,0,0,1-.65.45,7.84,7.84,0,0,1-1.85.76,6.58,6.58,0,0,1-1.31.25,7.92,7.92,0,0,1-1.54,0,6.39,6.39,0,0,1-1.67-.36,6.31,6.31,0,0,1-2.51-1.72,7.8,7.8,0,0,1-1.64-3A9.06,9.06,0,0,1,65.34,67a16.67,16.67,0,0,1,0-2.12,12.15,12.15,0,0,1,1.26-4.76,15.61,15.61,0,0,1,1.86-2.84,14.44,14.44,0,0,1,2.11-2.1A10.68,10.68,0,0,1,73,53.71a8,8,0,0,1,2-.55,7,7,0,0,1,1.21-.06,6.4,6.4,0,0,1,1.69.25,5.45,5.45,0,0,1,2.36,1.39,7.81,7.81,0,0,1,1,1.16.22.22,0,0,1,0,.22c-.32,1-.55,1.92-.8,2.89-.14.55-.29,1.09-.43,1.64C80,60.7,80,60.75,80,60.82Z"/><path class="cls-14" d="M33,39.47H16.53c0-.06,0-.06.06-.07l1.26-.74c3.71-2.14,7.46-4.23,11.19-6.33l6.46-3.62.21-.11a.41.41,0,0,1,0,.12c-.24,1.2-.53,2.4-.84,3.59-.42,1.62-.86,3.23-1.28,4.85-.18.69-.36,1.39-.53,2.09C33,39.32,33,39.39,33,39.47Z"/><path class="cls-14" d="M64.88,82.35s0-.06,0-.07c.34-1.33.69-2.66,1-4l0-.07h1.2a2,2,0,0,1,.42,0,1.18,1.18,0,0,1,.94,1,2.16,2.16,0,0,1,0,.76,4.1,4.1,0,0,1-.28,1,2.39,2.39,0,0,1-.5.76,1.88,1.88,0,0,1-1,.5,5.87,5.87,0,0,1-.59.05H65.05Zm.9-.62.11,0h.51a1.08,1.08,0,0,0,.77-.34,1.57,1.57,0,0,0,.24-.32,2.53,2.53,0,0,0,.38-1.17,1.36,1.36,0,0,0,0-.49.69.69,0,0,0-.56-.55,2.86,2.86,0,0,0-.65,0s0,0,0,.07C66.27,79.84,66,80.78,65.78,81.73Z"/><path class="cls-14" d="M42.53,82.36q-.35,0-.66,0c0-.07,0-.12,0-.17.16-.64.31-1.28.47-1.92,0-.23.11-.45.17-.68l0-.09a1.91,1.91,0,0,1,.64,0c0,.1,0,.2,0,.31l.07,0,.12-.11a1.1,1.1,0,0,1,.57-.28.81.81,0,0,1,.38,0,.52.52,0,0,1,.3.28l.08.15c.05,0,.07,0,.1,0s.13-.13.2-.18a1,1,0,0,1,.55-.24.73.73,0,0,1,.41.06.53.53,0,0,1,.35.45,1.15,1.15,0,0,1,0,.49c-.06.28-.13.56-.2.83s-.17.64-.25,1l0,.14a2.51,2.51,0,0,1-.68,0,.32.32,0,0,1,0-.17c.12-.46.25-.92.37-1.38a2.05,2.05,0,0,0,.07-.34,1.1,1.1,0,0,0,0-.26.22.22,0,0,0-.23-.23.46.46,0,0,0-.34.1.72.72,0,0,0-.23.23,1.51,1.51,0,0,0-.2.45c-.1.37-.2.73-.29,1.1,0,.16-.09.32-.13.49a.32.32,0,0,1-.13,0,5,5,0,0,1-.55,0,.44.44,0,0,1,0-.21c.13-.53.27-1.05.4-1.58,0-.07,0-.15.05-.23a.57.57,0,0,0,0-.13.24.24,0,0,0-.25-.24.52.52,0,0,0-.39.15,1,1,0,0,0-.27.41c-.07.18-.14.37-.19.55-.1.38-.19.76-.29,1.14A1.27,1.27,0,0,0,42.53,82.36Z"/><path class="cls-14" d="M38.85,79.44a2.23,2.23,0,0,1-.73,0s0-.07,0-.12a1.52,1.52,0,0,0,0-.21.45.45,0,0,0-.51-.37.83.83,0,0,0-.47.18,1.53,1.53,0,0,0-.32.35A3.76,3.76,0,0,0,36.22,81a1.06,1.06,0,0,0,.13.6.55.55,0,0,0,.51.26.72.72,0,0,0,.47-.22,1.22,1.22,0,0,0,.27-.41l.08-.2a5.32,5.32,0,0,1,.81,0s0,0,0,.07a1.68,1.68,0,0,1-1.27,1.3,1.54,1.54,0,0,1-.85,0,1.15,1.15,0,0,1-.81-.75,1.45,1.45,0,0,1-.1-.58,3.55,3.55,0,0,1,.29-1.4,3,3,0,0,1,.42-.77,1.74,1.74,0,0,1,1.1-.73,1.89,1.89,0,0,1,.82,0,1,1,0,0,1,.75.82c0,.12,0,.23,0,.35S38.85,79.42,38.85,79.44Z"/><path class="cls-14" d="M78.46,82c0,.15-.08.26-.11.38a.85.85,0,0,1-.32,0,1.08,1.08,0,0,1-.31,0,.28.28,0,0,1,0-.18l1-3.62c0-.1,0-.21.08-.31a2.27,2.27,0,0,1,.69,0c0,.25-.13.49-.2.73s-.14.49-.21.78l.13-.11a.81.81,0,0,1,.46-.23.73.73,0,0,1,.78.34,1.1,1.1,0,0,1,.16.58,2.62,2.62,0,0,1-.48,1.6,1.17,1.17,0,0,1-.79.5.71.71,0,0,1-.77-.34Zm1.43-1.52a1.55,1.55,0,0,0,0-.22.45.45,0,0,0,0-.11.31.31,0,0,0-.34-.21.48.48,0,0,0-.3.13,1.43,1.43,0,0,0-.2.23,2.13,2.13,0,0,0-.34,1,1,1,0,0,0,.07.45.34.34,0,0,0,.56.16.8.8,0,0,0,.2-.21A2.41,2.41,0,0,0,79.89,80.44Z"/><path class="cls-14" d="M62.8,81.11H61.1a1.27,1.27,0,0,0,0,.61.34.34,0,0,0,.34.27.49.49,0,0,0,.41-.16l.12-.18.09-.17c.22,0,.44,0,.67,0,0,0,0,.08,0,.11a1.26,1.26,0,0,1-.9.82,1.4,1.4,0,0,1-.76,0,.81.81,0,0,1-.67-.82,3,3,0,0,1,.28-1.29,2.69,2.69,0,0,1,.16-.29,1.33,1.33,0,0,1,1.37-.58l.28.07a.67.67,0,0,1,.47.52A2,2,0,0,1,62.8,81.11Zm-1.51-.51h.81l.08,0a1,1,0,0,0,.06-.42.33.33,0,0,0-.25-.31.43.43,0,0,0-.43.12,1,1,0,0,0-.28.6A0,0,0,0,0,61.29,80.6Z"/><path class="cls-14" d="M49.1,81.11H47.42a.61.61,0,0,0-.05.12,1.18,1.18,0,0,0,0,.42.39.39,0,0,0,.57.31.59.59,0,0,0,.29-.27l.11-.21c.22,0,.44,0,.66,0a.2.2,0,0,0,0,0,1.29,1.29,0,0,1-.9.88,1.59,1.59,0,0,1-.81,0,.78.78,0,0,1-.63-.77,1.68,1.68,0,0,1,0-.55,3,3,0,0,1,.26-.82,2.14,2.14,0,0,1,.2-.32,1.32,1.32,0,0,1,1.26-.52,1.65,1.65,0,0,1,.32.07.7.7,0,0,1,.5.6A2.05,2.05,0,0,1,49.1,81.11Zm-1.53-.5h.31c.11,0,.21,0,.31,0a.71.71,0,0,0,.29,0,.82.82,0,0,0,.06-.38.78.78,0,0,0,0-.14.28.28,0,0,0-.27-.21.44.44,0,0,0-.43.15A1.2,1.2,0,0,0,47.57,80.61Z"/><path class="cls-14" d="M89.92,80.47a.63.63,0,0,0,.07-.35.24.24,0,0,0-.21-.26.42.42,0,0,0-.52.26.2.2,0,0,1,0,.08,2.43,2.43,0,0,1-.66,0,.49.49,0,0,1,0-.12.85.85,0,0,1,.49-.54,1.6,1.6,0,0,1,.84-.13,1.77,1.77,0,0,1,.33.08.61.61,0,0,1,.44.61,1.52,1.52,0,0,1-.06.47c-.09.34-.19.69-.27,1a5.72,5.72,0,0,0-.11.57l0,.17a3.33,3.33,0,0,1-.63,0,2.32,2.32,0,0,1,0-.24s-.06,0-.08,0-.12.11-.19.15a.86.86,0,0,1-.71.14A.61.61,0,0,1,88.1,82a1.15,1.15,0,0,1,.21-1.07.88.88,0,0,1,.4-.28,2.19,2.19,0,0,1,.71-.14h.37Zm-.13.46a1.65,1.65,0,0,0-.59.06.8.8,0,0,0-.24.13.58.58,0,0,0-.2.58.31.31,0,0,0,.4.24.49.49,0,0,0,.23-.14,1,1,0,0,0,.18-.23,2.11,2.11,0,0,0,.22-.56Z"/><path class="cls-14" d="M83.16,79.5a2.15,2.15,0,0,1,.68,0c0,.24-.11.47-.17.7s-.12.49-.18.73l-.18.71a6.82,6.82,0,0,1-.19.71c-.21,0-.42,0-.62,0,0-.13,0-.24,0-.35s-.05,0-.07,0l-.28.22a1,1,0,0,1-.47.18.66.66,0,0,1-.49-.1.56.56,0,0,1-.26-.4,1.29,1.29,0,0,1,0-.48l.21-.84c.08-.31.17-.62.25-.93a1.06,1.06,0,0,1,.06-.19,2.26,2.26,0,0,1,.69,0c0,.06,0,.13,0,.19-.13.51-.26,1-.4,1.52,0,.07,0,.14,0,.21a.57.57,0,0,0,0,.26.28.28,0,0,0,.27.2.5.5,0,0,0,.32-.12.84.84,0,0,0,.28-.34,4.22,4.22,0,0,0,.18-.45c.13-.43.24-.86.36-1.29Z"/><path class="cls-14" d="M91,81.46a2.7,2.7,0,0,1,.4-1.38A1.43,1.43,0,0,1,93,79.45a.85.85,0,0,1,.67.72,2.18,2.18,0,0,1,0,.72,2.83,2.83,0,0,1-.34.89,1.38,1.38,0,0,1-1.42.66l-.23,0a.8.8,0,0,1-.64-.77A1,1,0,0,1,91,81.46Zm2-1v-.18a.38.38,0,0,0-.51-.34.6.6,0,0,0-.34.24,2.46,2.46,0,0,0-.22.39,3.22,3.22,0,0,0-.19.74.81.81,0,0,0,0,.31.4.4,0,0,0,.56.32.67.67,0,0,0,.35-.31A2.43,2.43,0,0,0,93,80.44Z"/><path class="cls-14" d="M55.54,81.46a2.72,2.72,0,0,1,.39-1.36,1.45,1.45,0,0,1,1.6-.66.88.88,0,0,1,.67.71,2.1,2.1,0,0,1,0,.75,2.79,2.79,0,0,1-.33.87,1.39,1.39,0,0,1-1.43.67l-.23,0a.8.8,0,0,1-.64-.79Zm2-1a1.15,1.15,0,0,0,0-.19.38.38,0,0,0-.5-.34.5.5,0,0,0-.25.15,1.2,1.2,0,0,0-.17.21,2.7,2.7,0,0,0-.35,1.18.5.5,0,0,0,0,.21.4.4,0,0,0,.5.28.75.75,0,0,0,.4-.34A2.43,2.43,0,0,0,57.52,80.44Z"/><path class="cls-14" d="M39,81.44a2.67,2.67,0,0,1,.41-1.37A1.42,1.42,0,0,1,41,79.45a.84.84,0,0,1,.67.77,2.42,2.42,0,0,1-.17,1.13,2,2,0,0,1-.26.52,1.22,1.22,0,0,1-.8.54,1.56,1.56,0,0,1-.83,0,.81.81,0,0,1-.6-.75Zm2-1a.62.62,0,0,0,0-.19.38.38,0,0,0-.51-.31.62.62,0,0,0-.31.21,1.91,1.91,0,0,0-.24.41,3.49,3.49,0,0,0-.21.83.8.8,0,0,0,0,.31.41.41,0,0,0,.5.26.71.71,0,0,0,.38-.32A2.53,2.53,0,0,0,41,80.42Z"/><path class="cls-14" d="M70,81.49h.65c0,.06,0,.11,0,.16a.75.75,0,0,0,0,.16A.27.27,0,0,0,71,82a.54.54,0,0,0,.35-.07.36.36,0,0,0,0-.61c-.12-.09-.25-.16-.38-.25l-.27-.18a.8.8,0,0,1,0-1.24,1.51,1.51,0,0,1,.45-.2,1.7,1.7,0,0,1,.71,0,1.27,1.27,0,0,1,.32.13.61.61,0,0,1,.24.78,4.28,4.28,0,0,1-.62,0,.52.52,0,0,1,0-.11s0-.07,0-.11a.3.3,0,0,0-.31-.27.34.34,0,0,0-.35.29.33.33,0,0,0,.14.35l.26.15c.11.08.24.15.35.22a.83.83,0,0,1,0,1.3,1.13,1.13,0,0,1-.56.25,1.73,1.73,0,0,1-.75,0,.83.83,0,0,1-.21-.06.65.65,0,0,1-.41-.59A.45.45,0,0,1,70,81.49Z"/><path class="cls-14" d="M87,81.38h.67a.8.8,0,0,1,0,.15,1.15,1.15,0,0,1-1,.89,1.88,1.88,0,0,1-.53,0,.8.8,0,0,1-.71-.66,1.22,1.22,0,0,1,0-.38,2.4,2.4,0,0,1,.47-1.4,1.32,1.32,0,0,1,.74-.53,1.38,1.38,0,0,1,.83,0,.68.68,0,0,1,.51.64.49.49,0,0,1,0,.17.88.88,0,0,1,0,.17,1.67,1.67,0,0,1-.68,0v-.1c0-.06,0-.11,0-.17a.31.31,0,0,0-.4-.29.5.5,0,0,0-.28.16,1,1,0,0,0-.21.32,3.07,3.07,0,0,0-.22.71,1.8,1.8,0,0,0,0,.46.46.46,0,0,0,.06.23.32.32,0,0,0,.35.16.46.46,0,0,0,.27-.15l.17-.24S86.91,81.45,87,81.38Z"/><path class="cls-14" d="M53.94,80.47a2.43,2.43,0,0,1-.66,0,.31.31,0,0,1,0-.1v-.16a.32.32,0,0,0-.41-.3.62.62,0,0,0-.28.17,1.21,1.21,0,0,0-.2.3,3.86,3.86,0,0,0-.23.73,1.43,1.43,0,0,0,0,.46.54.54,0,0,0,.05.21.32.32,0,0,0,.37.17.56.56,0,0,0,.31-.21c.06-.09.1-.18.15-.27l0-.09h.67s0,.08,0,.11a1.45,1.45,0,0,1-.11.29,1.1,1.1,0,0,1-.8.63,2,2,0,0,1-.64,0,.83.83,0,0,1-.72-.7,1.33,1.33,0,0,1,0-.4,2.42,2.42,0,0,1,.39-1.24,1.78,1.78,0,0,1,.21-.27,1.37,1.37,0,0,1,1.41-.37.69.69,0,0,1,.55.67v.15Z"/><path class="cls-14" d="M74.05,81.93a2.11,2.11,0,0,1-.1.45,1.2,1.2,0,0,1-.53.07,1,1,0,0,1-.25-.06.4.4,0,0,1-.28-.39,1.08,1.08,0,0,1,0-.31c.09-.37.19-.74.29-1.11,0-.15.08-.29.11-.43a.58.58,0,0,0,0-.14c-.14-.06-.29,0-.43-.05A2.39,2.39,0,0,1,73,79.5c.15,0,.3,0,.45,0l.06-.16.09-.34s0-.09.07-.1c.2,0,.41-.12.63-.16a.33.33,0,0,1,0,.1l-.15.54s0,.07,0,.11c.14.06.29,0,.42,0a1.14,1.14,0,0,1-.1.46c-.14.05-.29,0-.45,0s0,.09,0,.14l-.36,1.36a1.62,1.62,0,0,0,0,.2.22.22,0,0,0,.24.26Z"/><path class="cls-14" d="M76.67,79.41a2.67,2.67,0,0,1-.2.71l-.16,0a.64.64,0,0,0-.52.36,1.3,1.3,0,0,0-.1.25c-.1.36-.19.72-.29,1.08,0,.14-.07.28-.11.43l0,.08a2,2,0,0,1-.69,0s0,0,0-.07c.22-.9.45-1.81.68-2.71,0,0,0,0,0-.08h.59c0,.14,0,.26,0,.41l.07-.06c.07-.08.12-.17.19-.24A.66.66,0,0,1,76.67,79.41Z"/><path class="cls-14" d="M51.45,79.41a2.92,2.92,0,0,1-.21.71l-.14,0a.66.66,0,0,0-.56.41,1.42,1.42,0,0,0-.1.29c-.12.42-.22.84-.33,1.25,0,.09,0,.17-.07.24a2,2,0,0,1-.7,0,.77.77,0,0,1,0-.15c.21-.85.42-1.69.64-2.54,0-.05,0-.1,0-.14a1.79,1.79,0,0,1,.61,0,.45.45,0,0,1,0,.2.37.37,0,0,0,0,.18s.07,0,.09-.06a2.23,2.23,0,0,1,.19-.24A.64.64,0,0,1,51.45,79.41Z"/><path class="cls-14" d="M77.11,79.5a2.42,2.42,0,0,1,.66,0c0,.06,0,.11,0,.16l-.47,1.82c-.07.25-.13.51-.2.76a.42.42,0,0,1,0,.1,1.88,1.88,0,0,1-.67,0s0-.09,0-.14c.13-.51.26-1,.4-1.53l.27-1A.58.58,0,0,1,77.11,79.5Z"/><path class="cls-14" d="M83.76,82.34v-.08c.25-.92.48-1.84.73-2.75a1.89,1.89,0,0,1,.67,0s0,0,0,0l-.69,2.69a.36.36,0,0,1,0,.11A1.94,1.94,0,0,1,83.76,82.34Z"/><path class="cls-14" d="M70,79.51a.25.25,0,0,1,0,.08c-.23.92-.47,1.84-.71,2.75a1.88,1.88,0,0,1-.71,0c0-.06,0-.14.05-.21.23-.87.46-1.75.69-2.61A2,2,0,0,1,70,79.51Z"/><path class="cls-14" d="M54.74,79.48h.67s0,.06,0,.08c0,.22-.69,2.67-.73,2.77a1.89,1.89,0,0,1-.67,0,.2.2,0,0,1,0-.17c.14-.55.28-1.1.43-1.65.08-.3.15-.6.23-.9A.58.58,0,0,0,54.74,79.48Z"/><path class="cls-14" d="M89.08,79.07s0,0,0-.06a1.56,1.56,0,0,1,.21-.54.42.42,0,0,1,.6-.15l.22.13a.57.57,0,0,0,.13.08.19.19,0,0,0,.29-.09,1.38,1.38,0,0,0,.06-.16,1.79,1.79,0,0,1,.33,0s0,.06,0,.08a1.6,1.6,0,0,1-.19.47.49.49,0,0,1-.18.2.38.38,0,0,1-.43,0,2.9,2.9,0,0,0-.29-.19c-.19-.12-.29-.09-.38.12l0,.11h-.22Z"/><path class="cls-14" d="M48.61,79.09h-.55s0,0,0,0l.51-.78s0,0,0,0h.72s0,.06,0,.07Z"/><path class="cls-14" d="M55.59,78.94h-.67l-.05,0a3.11,3.11,0,0,1,.16-.68,2.61,2.61,0,0,1,.74,0A6.4,6.4,0,0,1,55.59,78.94Z"/><path class="cls-14" d="M77.94,78.94h-.71a1.77,1.77,0,0,1,.07-.36,1.69,1.69,0,0,1,.1-.34,3,3,0,0,1,.73,0A2.79,2.79,0,0,1,77.94,78.94Z"/><path class="cls-14" d="M70.17,78.92a2.81,2.81,0,0,1-.71,0,.08.08,0,0,1,0-.07c0-.2.1-.41.16-.61a3,3,0,0,1,.73,0A2.51,2.51,0,0,1,70.17,78.92Z"/><path class="cls-14" d="M85.36,78.92a3,3,0,0,1-.74,0,3.45,3.45,0,0,1,.18-.68,3,3,0,0,1,.73,0,1.3,1.3,0,0,1-.08.34Z"/></svg>