<svg id="Camada_1" data-name="Camada 1" xmlns="http://www.w3.org/2000/svg" viewBox="0 0 702 468"><defs><style>.cls-1,.cls-3{fill:#003800;}.cls-2{fill:#a00000;}.cls-15,.cls-2,.cls-3,.cls-4,.cls-5{fill-rule:evenodd;}.cls-4{fill:#2b7f3f;}.cls-5{fill:#c12e2b;}.cls-6{fill:#ec1c24;}.cls-7{fill:#005129;}.cls-8,.cls-9{fill:#fff;}.cls-9{stroke:#fff;stroke-linecap:round;stroke-linejoin:round;stroke-width:4.71px;}.cls-10{fill:#1d1d1b;}.cls-11{fill:#c8161f;}.cls-12{fill:#278135;}.cls-13,.cls-15{fill:#4a8b2c;}.cls-14{fill:#d02c2f;}</style></defs><title>GRUPO EPOCA</title><path class="cls-1" d="M580.31,201.89a6.9,6.9,0,0,1-.34,2.49,1.33,1.33,0,0,1-1.32.84,1.29,1.29,0,0,1-1.3-.86,6.36,6.36,0,0,1-.35-2.47v-2.33a6.65,6.65,0,0,1,.35-2.49,1.3,1.3,0,0,1,1.3-.83,1.33,1.33,0,0,1,1.32.85,6.63,6.63,0,0,1,.34,2.47Zm2.2-1.15a5.29,5.29,0,0,0-1.17-3.42,3.39,3.39,0,0,0-2.69-1.44,3.43,3.43,0,0,0-2.7,1.46,5.55,5.55,0,0,0,0,6.79,3.37,3.37,0,0,0,2.68,1.44,3.41,3.41,0,0,0,2.71-1.46A5.22,5.22,0,0,0,582.51,200.74Zm-11.45,1.86a4.27,4.27,0,0,1-.37,1.89,1,1,0,0,1-1,.73,1.84,1.84,0,0,1-1.61-1,4.51,4.51,0,0,1-.63-2.49v-2.27a3.39,3.39,0,0,1,.2-1.15,4,4,0,0,1,.56-1.06,1.87,1.87,0,0,1,1.44-1,1.11,1.11,0,0,1,1,.73,4.26,4.26,0,0,1,.35,1.88Zm2.16-1.86a5.76,5.76,0,0,0-1-3.44,2.93,2.93,0,0,0-2.44-1.42,2.27,2.27,0,0,0-1.21.36,3.32,3.32,0,0,0-1.08,1.12V195.9l-3.26.09v.44h1.31V209h-1.3v.45h4.55V209H567.5v-4.76a2.23,2.23,0,0,0,1,1,2.57,2.57,0,0,0,1.19.28,3.11,3.11,0,0,0,2.51-1.44A5.55,5.55,0,0,0,573.22,200.74Zm-9.56,4.57v-.45h-1.21v-5.4a6.17,6.17,0,0,0-.46-2.71,1.79,1.79,0,0,0-1.74-.87,2.57,2.57,0,0,0-1.51.46,3.15,3.15,0,0,0-.89,1,2.31,2.31,0,0,0-.76-1.07,2.17,2.17,0,0,0-1.44-.41,2.8,2.8,0,0,0-1.4.39,2.85,2.85,0,0,0-1.1,1.32V195.9L550,196v.44h1.25v8.43H550v.45h4.26v-.45h-1v-4.92a4.49,4.49,0,0,1,.61-2.48c.4-.62.73-.94,1-.94H555a.69.69,0,0,1,.73.5,5.27,5.27,0,0,1,.17,1.53v6.31h-.94v.45h3.92v-.45h-1V200a4.87,4.87,0,0,1,.57-2.63,1.5,1.5,0,0,1,1.2-.87h.15a.58.58,0,0,1,.61.5,8.12,8.12,0,0,1,.11,1.53v6.31h-1v.45ZM546,202.16a3.71,3.71,0,0,1-.42,1.78,1.21,1.21,0,0,1-1.08.76.91.91,0,0,1-.88-.55,3,3,0,0,1-.28-1.39,2.39,2.39,0,0,1,.35-1.37,1.54,1.54,0,0,1,1-.65,2.4,2.4,0,0,1,.48-.06.81.81,0,0,1,.31.06,2.68,2.68,0,0,1,.57.32Zm3.17,2.47-.22-.25a.76.76,0,0,1-.12.1l-.17.15a.59.59,0,0,1-.35.16.49.49,0,0,1-.33-.11.27.27,0,0,1-.11-.25v-6.36a1.86,1.86,0,0,0-.84-1.58,3.64,3.64,0,0,0-2.13-.61,3.88,3.88,0,0,0-2.16.54,1.52,1.52,0,0,0-.81,1.31c0,.53.31.8.9.8s.88-.25.93-.76a1.39,1.39,0,0,0-.16-.68,1.88,1.88,0,0,1-.15-.32c0-.11.14-.22.42-.35a2.13,2.13,0,0,1,.9-.18,1.34,1.34,0,0,1,.84.32,1,1,0,0,1,.39.78v2.9h-.48a3.7,3.7,0,0,0-.46,0l-.45,0-.43.05a3.68,3.68,0,0,0-2,1,3,3,0,0,0-.28,3.63,1.66,1.66,0,0,0,1.4.64,3.59,3.59,0,0,0,1.39-.3,4.07,4.07,0,0,0,1.3-1,1.57,1.57,0,0,0,.42.89,1.36,1.36,0,0,0,1,.35,1.78,1.78,0,0,0,1-.26A5.12,5.12,0,0,0,549.14,204.63Zm-8.43.78v-3.62h-.53a4.69,4.69,0,0,1-1.49,2.64,3.41,3.41,0,0,1-2.05.7,2.81,2.81,0,0,1-2.4-1.07,5,5,0,0,1-.79-3.08v-3.23a5.35,5.35,0,0,1,.77-3.08,2.61,2.61,0,0,1,2.31-1.06,3.83,3.83,0,0,1,2.09.65,3.7,3.7,0,0,1,1.39,2.51h.53v-3.43h-.42l-.71.75a4.42,4.42,0,0,0-1.19-.66,4.47,4.47,0,0,0-1.62-.27,5.51,5.51,0,0,0-4.14,1.85,6.3,6.3,0,0,0-1.7,4.41,6.05,6.05,0,0,0,1.72,4.3,5.23,5.23,0,0,0,4,1.85,5.72,5.72,0,0,0,1.69-.25,4.29,4.29,0,0,0,1.42-.74l.76.83Zm-18.16-6.84,0,1.22h-2.66v-.32a7.84,7.84,0,0,1,.28-2.41,1,1,0,0,1,1.1-.82,1.05,1.05,0,0,1,1,.62A3.57,3.57,0,0,1,522.55,198.57Zm2.09,3.38h-.46a5,5,0,0,1-.32,1.07,8.23,8.23,0,0,1-.58,1.09,2.08,2.08,0,0,1-1.82,1.11,1.25,1.25,0,0,1-1.24-.86,6.25,6.25,0,0,1-.37-2.41v-1.71h4.57c.08,0,.12,0,.12-.13a.33.33,0,0,0,0-.15,1,1,0,0,0,0-.18,4.19,4.19,0,0,0-1-2.76,2.84,2.84,0,0,0-2.27-1.14,3.15,3.15,0,0,0-2.61,1.48,5.81,5.81,0,0,0-1.08,3.54,5.33,5.33,0,0,0,1.06,3.27,2.94,2.94,0,0,0,4.61.51A5.21,5.21,0,0,0,524.64,202Zm-14.81-3.38,0,1.22h-2.66v-.32a8.16,8.16,0,0,1,.28-2.41,1,1,0,0,1,1.1-.82,1.05,1.05,0,0,1,1,.62A3.57,3.57,0,0,1,509.83,198.57Zm2.09,3.38h-.46a5,5,0,0,1-.32,1.07,8.23,8.23,0,0,1-.58,1.09,2.07,2.07,0,0,1-1.81,1.11,1.26,1.26,0,0,1-1.25-.86,6.44,6.44,0,0,1-.37-2.41v-1.71h4.57a.12.12,0,0,0,.13-.13.61.61,0,0,0,0-.15,1,1,0,0,0,0-.18,4.19,4.19,0,0,0-.95-2.76,2.84,2.84,0,0,0-2.27-1.14,3.15,3.15,0,0,0-2.61,1.48A5.81,5.81,0,0,0,505,200.9a5.28,5.28,0,0,0,1.07,3.27,3,3,0,0,0,2.43,1.4,3.07,3.07,0,0,0,2.17-.89A5.21,5.21,0,0,0,511.92,202Zm-10.43-.18a4.2,4.2,0,0,1-.7,2.4,1.84,1.84,0,0,1-1.52,1.05c-.43,0-.76-.27-1-.8a5.5,5.5,0,0,1-.33-2.07V199.1a5.52,5.52,0,0,1,.33-2.08c.21-.52.53-.78,1-.78a1.85,1.85,0,0,1,1.6,1.1,5.17,5.17,0,0,1,.66,2.76Zm3.3,3.54v-.45h-1.34v-11.7c-.35.06-.67.11-.94.14l-.71.09-.71,0h-.94v.44h1.32v3.51a2.39,2.39,0,0,0-1-1.2,2.54,2.54,0,0,0-1.17-.3,3.07,3.07,0,0,0-2.5,1.46,5.57,5.57,0,0,0-1.06,3.4,6.05,6.05,0,0,0,.94,3.45,2.77,2.77,0,0,0,2.36,1.38,3,3,0,0,0,1.34-.32,2.73,2.73,0,0,0,1.1-1.17v1.37a4.47,4.47,0,0,1,.55-.07,7,7,0,0,1,.86,0l1,0Zm-12.57-3.15a3.72,3.72,0,0,1-.43,1.78,1.2,1.2,0,0,1-1.08.76.92.92,0,0,1-.88-.55,3.16,3.16,0,0,1-.27-1.39,2.32,2.32,0,0,1,.35-1.37,1.51,1.51,0,0,1,.95-.65,2.24,2.24,0,0,1,.48-.06.81.81,0,0,1,.31.06,3.27,3.27,0,0,1,.57.32Zm3.17,2.47-.22-.25-.12.1-.18.15a.57.57,0,0,1-.35.16.52.52,0,0,1-.33-.11.27.27,0,0,1-.11-.25v-6.36a1.86,1.86,0,0,0-.84-1.58,3.6,3.6,0,0,0-2.12-.61,3.9,3.9,0,0,0-2.17.54,1.49,1.49,0,0,0-.8,1.31c0,.53.31.8.89.8s.89-.25.94-.76a1.4,1.4,0,0,0-.17-.68,2.36,2.36,0,0,1-.14-.32c0-.11.14-.22.42-.35a2.09,2.09,0,0,1,.9-.18,1.34,1.34,0,0,1,.84.32,1,1,0,0,1,.39.78v2.9h-.48a3.62,3.62,0,0,0-.46,0l-.46,0-.42.05a3.71,3.71,0,0,0-2,1,2.95,2.95,0,0,0-.27,3.63,1.64,1.64,0,0,0,1.39.64,3.56,3.56,0,0,0,1.39-.3,4.1,4.1,0,0,0,1.31-1,1.45,1.45,0,0,0,.42.89,1.35,1.35,0,0,0,1,.35,1.73,1.73,0,0,0,1-.26A5.18,5.18,0,0,0,495.39,204.63ZM483,201.77a4.28,4.28,0,0,1-.7,2.4,1.85,1.85,0,0,1-1.52,1.05c-.43,0-.76-.27-1-.8a5.5,5.5,0,0,1-.33-2.07V199.1a5.52,5.52,0,0,1,.33-2.08c.21-.52.52-.78.95-.78a1.82,1.82,0,0,1,1.59,1.1,5.17,5.17,0,0,1,.67,2.76Zm3.29,3.54v-.45H485v-11.7c-.36.06-.67.11-1,.14l-.7.09-.71,0h-.94v.44H483v3.51a2.39,2.39,0,0,0-1-1.2,2.55,2.55,0,0,0-1.18-.3,3.06,3.06,0,0,0-2.49,1.46,5.51,5.51,0,0,0-1.06,3.4,6.13,6.13,0,0,0,.93,3.45,2.78,2.78,0,0,0,2.37,1.38,3,3,0,0,0,1.34-.32,2.79,2.79,0,0,0,1.1-1.17v1.37a4.27,4.27,0,0,1,.54-.07,7.16,7.16,0,0,1,.87,0l1,0Zm-8.87,0v-.45h-1.33v-9l-3.3.09v.44h1.32v8.43h-1.38v.45Zm-1.28-11.21a1,1,0,0,0-.31-.71,1,1,0,0,0-1.78.73,1,1,0,0,0,.31.71,1.05,1.05,0,0,0,1.47,0A1,1,0,0,0,476.16,194.1Zm-4.11,11.31v-3.62h-.53a4.69,4.69,0,0,1-1.48,2.64,3.43,3.43,0,0,1-2.05.7,2.78,2.78,0,0,1-2.4-1.07,5,5,0,0,1-.79-3.08v-3.23a5.28,5.28,0,0,1,.77-3.08,2.61,2.61,0,0,1,2.31-1.06,3.86,3.86,0,0,1,2.09.65,3.73,3.73,0,0,1,1.39,2.51h.53v-3.43h-.42l-.72.75a4.27,4.27,0,0,0-1.19-.66,4.42,4.42,0,0,0-1.61-.27,5.51,5.51,0,0,0-4.14,1.85,6.26,6.26,0,0,0-1.71,4.41,6.06,6.06,0,0,0,1.73,4.3,5.19,5.19,0,0,0,3.95,1.85,5.67,5.67,0,0,0,1.69-.25,4.34,4.34,0,0,0,1.43-.74l.75.83Z"/><path class="cls-1" d="M572.37,218.2a3.19,3.19,0,0,0-.43-1.83,1.76,1.76,0,0,0-.64-.51,5.26,5.26,0,0,0-1.06-.35,3.58,3.58,0,0,1-1.47-.6,1.07,1.07,0,0,1-.35-.88,1.86,1.86,0,0,1,.36-1.16,1.2,1.2,0,0,1,1-.48,1.55,1.55,0,0,1,1.19.55,2,2,0,0,1,.53,1.14H572V212h-.28l-.27.58a2.45,2.45,0,0,0-.7-.37,2.74,2.74,0,0,0-.9-.15,1.94,1.94,0,0,0-1.55.7,2.75,2.75,0,0,0-.6,1.87,2.31,2.31,0,0,0,.68,1.86,4,4,0,0,0,.72.46,3.8,3.8,0,0,0,.82.29,3.88,3.88,0,0,1,1.4.53,1.37,1.37,0,0,1,.4,1.13,1.65,1.65,0,0,1-.47,1.22,1.4,1.4,0,0,1-1.06.48,1.83,1.83,0,0,1-1.41-.63,3.17,3.17,0,0,1-.7-1.61h-.45v2.37h.27l.48-.48a3.67,3.67,0,0,0,.84.52,2.49,2.49,0,0,0,.9.18,2.12,2.12,0,0,0,1.72-.72,3.15,3.15,0,0,0,.58-2m-9-.39a3.31,3.31,0,0,1-.38,1.62,1.09,1.09,0,0,1-1,.7.85.85,0,0,1-.8-.5,3,3,0,0,1-.25-1.27,2.16,2.16,0,0,1,.32-1.25,1.42,1.42,0,0,1,.87-.61,2.58,2.58,0,0,1,.43-.05.93.93,0,0,1,.29.05,3,3,0,0,1,.51.3Zm2.89,2.26-.2-.23-.11.09-.16.14a.49.49,0,0,1-.31.14.45.45,0,0,1-.3-.09.25.25,0,0,1-.1-.23v-5.83a1.71,1.71,0,0,0-.77-1.45,3.33,3.33,0,0,0-1.94-.55,3.53,3.53,0,0,0-2,.49,1.39,1.39,0,0,0-.73,1.2c0,.49.28.73.82.73s.8-.23.85-.7a1.25,1.25,0,0,0-.15-.61,1.71,1.71,0,0,1-.14-.3c0-.09.13-.2.39-.32a1.88,1.88,0,0,1,.82-.16,1.21,1.21,0,0,1,.76.29.87.87,0,0,1,.35.71v2.66h-.85l-.41,0-.39,0a3.38,3.38,0,0,0-1.82.9,2.72,2.72,0,0,0-.25,3.32,1.51,1.51,0,0,0,1.27.59,3.36,3.36,0,0,0,1.27-.28,3.66,3.66,0,0,0,1.18-.88,1.37,1.37,0,0,0,.39.81,1.2,1.2,0,0,0,.93.33,1.54,1.54,0,0,0,.9-.24A4.32,4.32,0,0,0,566.28,220.07Zm-7.38-6.92a1,1,0,0,0-.35-.78,1.33,1.33,0,0,0-.95-.31,2.2,2.2,0,0,0-1.32.44,4.23,4.23,0,0,0-1.1,1.38v-1.8l-2.87.08v.4h1.1v7.72h-1v.41h4.29v-.41h-1.5V217a7.76,7.76,0,0,1,.55-3c.36-.87.76-1.3,1.2-1.3h.1a.1.1,0,0,1,0,.08l-.07.53q.06.72.87.72H558A.82.82,0,0,0,558.9,213.15Zm-7.29,7.54v-.41h-1.22v-8.2l-3,.08v.4h1.2v7.72h-1.25v.41Zm-1.17-10.26a.88.88,0,0,0-.28-.65,1,1,0,0,0-.67-.28,1,1,0,0,0-.67.28.91.91,0,0,0-.28.67.86.86,0,0,0,.28.65,1,1,0,0,0,.67.28,1,1,0,0,0,.67-.28A.89.89,0,0,0,550.44,210.43Zm-5.05,4.09,0,1.12h-2.42v-.29a7.77,7.77,0,0,1,.25-2.22,1,1,0,0,1,1-.74,1,1,0,0,1,.91.57A3.24,3.24,0,0,1,545.39,214.52Zm1.9,3.09h-.42a4,4,0,0,1-.29,1,7,7,0,0,1-.53,1,1.88,1.88,0,0,1-1.65,1,1.14,1.14,0,0,1-1.13-.78,5.72,5.72,0,0,1-.34-2.21v-1.56h4.16c.08,0,.11,0,.11-.12a.58.58,0,0,0,0-.14.81.81,0,0,0,0-.17,3.82,3.82,0,0,0-.87-2.52,2.6,2.6,0,0,0-2.07-1,2.88,2.88,0,0,0-2.37,1.35,5.32,5.32,0,0,0-1,3.24,4.84,4.84,0,0,0,1,3,2.66,2.66,0,0,0,4.19.48A4.83,4.83,0,0,0,547.29,217.61Zm-7.13,2-.33-.17a1.57,1.57,0,0,1-.39.62.85.85,0,0,1-.65.24.65.65,0,0,1-.5-.16.91.91,0,0,1-.13-.55v-6.93h1.57v-.49h-1.57v-1.79l-1.8.42v1.37h-1.07v.49h1.07v7a1.19,1.19,0,0,0,.4,1,2.18,2.18,0,0,0,1.3.29,2,2,0,0,0,1.48-.46A1.91,1.91,0,0,0,540.16,219.6Zm-5,1.09v-.41h-1.07v-4.95a5,5,0,0,0-.47-2.44,1.7,1.7,0,0,0-1.59-.83,2.87,2.87,0,0,0-1.38.36,2.6,2.6,0,0,0-1.1,1.2v-1.54l-2.91.08v.4h1.14v7.72h-1.14v.41h4v-.41h-1.05V216.5a5.76,5.76,0,0,1,.58-2.86q.57-1,1.29-1c.38,0,.63.22.75.68a5,5,0,0,1,.12.81c0,.33,0,.7,0,1.13v5h-1.05v.41Zm-10.77-3.13a6.06,6.06,0,0,1-.32,2.28,1.2,1.2,0,0,1-1.2.76,1.17,1.17,0,0,1-1.18-.78,6,6,0,0,1-.32-2.26v-2.13a6.28,6.28,0,0,1,.32-2.28,1.18,1.18,0,0,1,1.18-.76,1.2,1.2,0,0,1,1.2.78,5.81,5.81,0,0,1,.32,2.26Zm2-1.06a4.85,4.85,0,0,0-1.06-3.12,2.94,2.94,0,0,0-4.91,0,4.85,4.85,0,0,0-1,3.11,4.78,4.78,0,0,0,1.07,3.11,3.06,3.06,0,0,0,2.43,1.32,3.12,3.12,0,0,0,2.47-1.33A4.83,4.83,0,0,0,526.39,216.5Zm-7.16-3.35a1,1,0,0,0-.35-.78,1.33,1.33,0,0,0-1-.31,2.2,2.2,0,0,0-1.32.44,4.23,4.23,0,0,0-1.1,1.38v-1.8l-2.87.08v.4h1.1v7.72h-1v.41h4.29v-.41h-1.5V217a7.76,7.76,0,0,1,.55-3c.36-.87.76-1.3,1.2-1.3h.1a.1.1,0,0,1,0,.08l-.07.53q.06.72.87.72h.07A.82.82,0,0,0,519.23,213.15Zm-7.51,0-.11-3.32h-9.25v.41H504v10.06h-1.65v.41h5.43v-.41h-1.66v-5h.45a1.91,1.91,0,0,1,1.71.65,2.8,2.8,0,0,1,.4,1.5h.46v-4.54h-.46a2.41,2.41,0,0,1-.42,1.4,2,2,0,0,1-1.69.58h-.45v-4.67h2a3.35,3.35,0,0,1,2.09.55,4.21,4.21,0,0,1,1.07,2.36Zm-14.17,7.56v-.41h-1.1v-4.95a5.68,5.68,0,0,0-.41-2.47,1.63,1.63,0,0,0-1.59-.8,2.29,2.29,0,0,0-1.37.42,3,3,0,0,0-.82.93,2.15,2.15,0,0,0-.68-1,2,2,0,0,0-1.32-.37,2.5,2.5,0,0,0-1.27.36,2.6,2.6,0,0,0-1,1.2v-1.54l-2.9.08v.4h1.13v7.72h-1.13v.41H489v-.41H488v-4.51a4.11,4.11,0,0,1,.55-2.26c.36-.58.67-.86.91-.86h.14a.62.62,0,0,1,.66.45,4.87,4.87,0,0,1,.16,1.4v5.78h-.86v.41h3.58v-.41h-.92v-4.43a4.45,4.45,0,0,1,.52-2.41,1.36,1.36,0,0,1,1.1-.79H494a.52.52,0,0,1,.55.45,7,7,0,0,1,.1,1.4v5.78h-.87v.41ZM483,214.52l0,1.12h-2.42v-.29a7.77,7.77,0,0,1,.25-2.22,1,1,0,0,1,1-.74,1,1,0,0,1,.91.57A3.24,3.24,0,0,1,483,214.52Zm1.9,3.09h-.42a4,4,0,0,1-.29,1,7,7,0,0,1-.53,1,1.88,1.88,0,0,1-1.65,1,1.14,1.14,0,0,1-1.13-.78,5.72,5.72,0,0,1-.34-2.21v-1.56h4.16c.08,0,.11,0,.11-.12a.58.58,0,0,0,0-.14.81.81,0,0,0,0-.17,3.82,3.82,0,0,0-.87-2.52,2.6,2.6,0,0,0-2.07-1,2.88,2.88,0,0,0-2.37,1.35,5.32,5.32,0,0,0-1,3.24,4.84,4.84,0,0,0,1,3,2.66,2.66,0,0,0,4.19.48A4.83,4.83,0,0,0,484.94,217.61Zm-7.73.59a3.19,3.19,0,0,0-.43-1.83,1.72,1.72,0,0,0-.65-.51,4.86,4.86,0,0,0-1.06-.35,3.58,3.58,0,0,1-1.46-.6,1.07,1.07,0,0,1-.35-.88,1.86,1.86,0,0,1,.36-1.16,1.2,1.2,0,0,1,1-.48,1.55,1.55,0,0,1,1.19.55,2,2,0,0,1,.53,1.14h.43V212h-.28l-.27.58a2.45,2.45,0,0,0-.7-.37,2.74,2.74,0,0,0-.9-.15,1.94,1.94,0,0,0-1.55.7,2.75,2.75,0,0,0-.6,1.87,2.31,2.31,0,0,0,.68,1.86,3.39,3.39,0,0,0,.72.46,3.8,3.8,0,0,0,.82.29,3.88,3.88,0,0,1,1.4.53,1.37,1.37,0,0,1,.4,1.13,1.69,1.69,0,0,1-.47,1.22,1.41,1.41,0,0,1-1.07.48,1.82,1.82,0,0,1-1.4-.63,3.17,3.17,0,0,1-.7-1.61h-.45v2.37h.27l.48-.48a3.67,3.67,0,0,0,.84.52,2.49,2.49,0,0,0,.9.18,2.12,2.12,0,0,0,1.72-.72A3.15,3.15,0,0,0,477.21,218.2Z"/><path class="cls-2" d="M537.81,169.26c-11.9-7.7-16.8-.93-16.8-.93-4.78-5.6-13.53-1.75-19.47,2.91s-15.16,9-18.55,9.33a21.34,21.34,0,0,1-6.06-.23c18.59,11.52,44-1.52,44-1.52,8.05,3.5,17.84,6.88,28.92,6.07S565,180.34,565,180.34c-10.49,1.4-15.27-3.38-27.17-11.08"/><path class="cls-3" d="M560.13,129.24h0a3.37,3.37,0,0,0-1.34-1.09,10.49,10.49,0,0,0-2.19-.75,7.65,7.65,0,0,1-3.05-1.28,2.33,2.33,0,0,1-.72-1.87,3.91,3.91,0,0,1,.76-2.45,2.4,2.4,0,0,1,2.11-1,3.18,3.18,0,0,1,2.45,1.17,4.32,4.32,0,0,1,1.11,2.43h.9v-4.43h-.59l-.55,1.24a5.45,5.45,0,0,0-1.45-.79,5.64,5.64,0,0,0-1.87-.31,4,4,0,0,0-3.22,1.48,5.93,5.93,0,0,0-1.24,4,5,5,0,0,0,1.41,3.95,7.28,7.28,0,0,0,3.19,1.59,7.78,7.78,0,0,1,2.9,1.15,2.92,2.92,0,0,1,.83,2.38,3.56,3.56,0,0,1-1,2.6,2.89,2.89,0,0,1-2.21,1,3.72,3.72,0,0,1-2.91-1.35,6.74,6.74,0,0,1-1.45-3.43h-.93v5h.55l1-1a6.75,6.75,0,0,0,1.73,1.1,5,5,0,0,0,1.87.38,4.31,4.31,0,0,0,3.56-1.52,6.79,6.79,0,0,0,1.21-4.33,7,7,0,0,0-.89-3.87m-16,3h0a7.4,7.4,0,0,1-.8,3.47,2.29,2.29,0,0,1-2,1.48,1.72,1.72,0,0,1-1.66-1.07,6.1,6.1,0,0,1-.52-2.7,4.65,4.65,0,0,1,.66-2.66,2.88,2.88,0,0,1,1.8-1.28,4.57,4.57,0,0,1,.9-.11,1.62,1.62,0,0,1,.58.11,5.36,5.36,0,0,1,1.08.62Zm5.34,4.52h0a4.09,4.09,0,0,0-.33.3,1.15,1.15,0,0,1-.66.31.91.91,0,0,1-.62-.21.53.53,0,0,1-.21-.49V124.32a3.66,3.66,0,0,0-1.59-3.08,6.76,6.76,0,0,0-4-1.17,7.26,7.26,0,0,0-4.08,1,3,3,0,0,0-1.52,2.57c0,1,.59,1.55,1.69,1.55a1.53,1.53,0,0,0,1.77-1.49,2.73,2.73,0,0,0-.32-1.31,3.8,3.8,0,0,1-.27-.62c0-.21.26-.44.79-.7a3.94,3.94,0,0,1,1.7-.34,2.6,2.6,0,0,1,1.59.62,2,2,0,0,1,.73,1.52v5.65h-.9l-.87,0-.86.07c-.28,0-.55.06-.8.1a6.84,6.84,0,0,0-3.77,1.91,5.23,5.23,0,0,0-1.45,3.87,5.28,5.28,0,0,0,.93,3.19,3.1,3.1,0,0,0,2.63,1.24,6.59,6.59,0,0,0,2.63-.58,7.8,7.8,0,0,0,2.46-1.87,3,3,0,0,0,.79,1.73,2.49,2.49,0,0,0,1.94.69,3.13,3.13,0,0,0,1.87-.52,9.92,9.92,0,0,0,1.38-1.31l-.42-.49A1.66,1.66,0,0,1,549.49,136.8Zm-17-9.78h0a10.9,10.9,0,0,0-1-5.19,3.48,3.48,0,0,0-3.29-1.76,5.87,5.87,0,0,0-2.87.76,5.47,5.47,0,0,0-2.28,2.56V120.1l-6,.17v.87h2.36v16.41h-2.36v.86h8.2v-.86h-2.18v-8a12.52,12.52,0,0,1,1.21-6.1c.79-1.4,1.67-2.11,2.67-2.11.78,0,1.3.49,1.55,1.46a10.65,10.65,0,0,1,.26,1.73c.06.69.09,1.48.09,2.38v10.67h-2.18v.86h8v-.86h-2.21Zm-19.16-6.92h0l-6.23.17v.87h2.49v16.41H507v.86h8.85v-.86h-2.52Zm-1.87-1.49h0a1.85,1.85,0,0,0,1.38-.59,1.89,1.89,0,0,0,.59-1.42,1.85,1.85,0,0,0-.59-1.38,2,2,0,0,0-3.35,1.42,2,2,0,0,0,2,2Zm-19.23,12.53-4.84-15.85h-8.93v.86h3.43v21.4h-3.43v.86h7.92v-.86H483V116.4l7,22h1.17l7.06-22v21.15h-3.43v.86H506v-.86h-3.43v-21.4H506v-.86h-8.76Z"/><path class="cls-3" d="M560.29,162.5h0V139.73c-.67.11-1.26.21-1.78.28l-1.33.17-1.33,0-1.79,0v.86h2.49V162.5H554v.87h8.85v-.87Zm-14.49-5.26h0a7.33,7.33,0,0,1-.8,3.46,2.28,2.28,0,0,1-2,1.49,1.73,1.73,0,0,1-1.66-1.07,6.28,6.28,0,0,1-.52-2.7,4.71,4.71,0,0,1,.66-2.67,3,3,0,0,1,1.8-1.28,4.49,4.49,0,0,1,.9-.1,1.61,1.61,0,0,1,.58.1,6,6,0,0,1,1.08.63Zm5.34,4.52h0l-.33.29a1.11,1.11,0,0,1-.65.32.92.92,0,0,1-.63-.21.54.54,0,0,1-.2-.49V149.28a3.67,3.67,0,0,0-1.6-3.08,6.77,6.77,0,0,0-4-1.18,7.26,7.26,0,0,0-4.08,1,3,3,0,0,0-1.52,2.56c0,1,.59,1.56,1.69,1.56s1.68-.49,1.77-1.49a2.84,2.84,0,0,0-.31-1.31,3.42,3.42,0,0,1-.28-.62c0-.21.27-.44.8-.7a3.86,3.86,0,0,1,1.69-.34,2.54,2.54,0,0,1,1.59.62,2,2,0,0,1,.73,1.52v5.64h-.9c-.28,0-.57,0-.87,0l-.86.07c-.28,0-.54.06-.8.1a6.78,6.78,0,0,0-3.77,1.91,5.23,5.23,0,0,0-1.45,3.87,5.3,5.3,0,0,0,.93,3.19,3.1,3.1,0,0,0,2.63,1.24,6.56,6.56,0,0,0,2.63-.58,7.8,7.8,0,0,0,2.46-1.87,3,3,0,0,0,.79,1.73,2.49,2.49,0,0,0,1.94.69,3.13,3.13,0,0,0,1.87-.52,9.45,9.45,0,0,0,1.38-1.32l-.41-.48ZM532.93,145h0a4.47,4.47,0,0,0-2.73.94,8.69,8.69,0,0,0-2.29,2.94v-3.84l-5.94.17v.87h2.28v16.4h-2v.87h8.89v-.87H528v-6.95a16.78,16.78,0,0,1,1.15-6.44c.76-1.85,1.59-2.77,2.49-2.77l.1,0,.1,0a.21.21,0,0,1,.07.17l-.14,1.14c.07,1,.67,1.52,1.8,1.52h.14a1.72,1.72,0,0,0,1.94-1.87,2.2,2.2,0,0,0-.73-1.66A2.74,2.74,0,0,0,532.93,145Zm-16,.07h0l-6.33.14v.87h2.59v9.65a9.84,9.84,0,0,1-1.21,5c-.81,1.36-1.76,2-2.87,2a1.26,1.26,0,0,1-1.18-.9,6.71,6.71,0,0,1-.34-2.46V145.09l-6,.14v.87h2.25v12.25A6.73,6.73,0,0,0,505,162.4a3.52,3.52,0,0,0,3.08,1.49,5.34,5.34,0,0,0,2.8-.8,7,7,0,0,0,2.39-2.56v3.12c.39-.07.74-.12,1.07-.16l.83-.09q.35,0,1.38,0h2.8v-.87h-2.38Zm-30.58,5.51h0v-9.49h3.39a3.62,3.62,0,0,1,3,1.15,6.09,6.09,0,0,1,.83,3.63,5.21,5.21,0,0,1-1,3.57,4.26,4.26,0,0,1-3.29,1.14Zm12.18,11.9a1.55,1.55,0,0,1-.83-1.1l0-1.7a17.49,17.49,0,0,0-.29-2.91,9.5,9.5,0,0,0-.85-2.49q-1.14-2.25-5.47-3.15a12,12,0,0,0,5.5-2,4.9,4.9,0,0,0-.13-7.69,10.45,10.45,0,0,0-5.71-1.24H478.52v.86H482V162.5h-3.43v.87h11.24v-.87h-3.42v-11h1.8a3.9,3.9,0,0,1,3.63,1.84,6.29,6.29,0,0,1,.73,2.18c.14.85.24,1.83.31,2.94l.1,1.49a4.51,4.51,0,0,0,2.53,3.39,6.09,6.09,0,0,0,2.52.49,13.3,13.3,0,0,0,3.11-.42v-.8a13.09,13.09,0,0,1-1.45.11A2.34,2.34,0,0,1,498.52,162.5Z"/><path class="cls-2" d="M593,86.33c-12.56-5.92-27.16,3.83-31.49,7S543.43,106.25,518.8,106s-38-17.8-52.72-21.11a23.39,23.39,0,0,0-24.14,8.87c-.74,1.36-2.41,3.36,4.43,11.08s18.31,7.81,18.31,7.81h55.17s49.47.74,62.63.24,18.68-10.7,20.06-12.83,3-7.84-9.56-13.77"/><path class="cls-2" d="M556.7,70c-2.25-6.79-3.17-8.1-5.94-9.45s-13.33-7.8-25.55-3.27c0,0-4.46,1-6.41.12s-10.65-4.82-24.14,3a11,11,0,0,0-5.14,5.37c-1.71,3.89-4.49,12.25-4.66,26.24,0,0,54.68,5.32,74.64-.12,0,0-.55-15.14-2.8-21.92"/><path class="cls-4" d="M347.6,211.49l.3,0h.61l.13-.32c.25-.59.54-.69,1.08-.35l.82.54a1,1,0,0,0,1.2,0,1.66,1.66,0,0,0,.52-.57,4.22,4.22,0,0,0,.53-1.34,1,1,0,0,0,0-.21,3.59,3.59,0,0,0-.93,0,3.24,3.24,0,0,1-.18.45.54.54,0,0,1-.82.25c-.12-.06-.23-.15-.35-.22l-.62-.37a1.2,1.2,0,0,0-1.7.42,4.27,4.27,0,0,0-.59,1.53C347.56,211.37,347.59,211.42,347.6,211.49Zm-114.38,0,1.93-2.23s0-.12.07-.2h-2s-.08,0-.09.08l-1.44,2.2s0,.09,0,.15Zm19.74-.43c.19-.67.37-1.31.51-2a6.71,6.71,0,0,0-2.1,0,9.08,9.08,0,0,0-.47,1.93.33.33,0,0,0,.14,0Zm63.15,0a8.16,8.16,0,0,0,.54-2,8.87,8.87,0,0,0-2.06,0,4.51,4.51,0,0,0-.28,1,3.24,3.24,0,0,0-.2,1C314.8,211.12,315.46,211.13,316.11,211.11Zm-22,0a8,8,0,0,0,.5-1.93,6.78,6.78,0,0,0-2.06,0c-.19.55-.33,1.14-.47,1.72a.62.62,0,0,0,0,.19A9,9,0,0,0,294.14,211.07Zm42.93,0c.09-.31.19-.64.27-1a4.62,4.62,0,0,0,.21-1,8.33,8.33,0,0,0-2.07,0,9.77,9.77,0,0,0-.48,1.92A9.48,9.48,0,0,0,337.07,211.07Z"/><path class="cls-5" d="M378.89,138.94s-.08.07-.09.12a25.91,25.91,0,0,1-.59,2.61c-1.82,7.45-3.81,14.85-5.79,22.25q-1.5,5.6-3,11.18a29.25,29.25,0,0,0-.76,3.7,27,27,0,0,0-.23,3,1.3,1.3,0,0,0,.75,1.25,3.29,3.29,0,0,0,1.53.4,8.87,8.87,0,0,0,2.41-.26l1.23-.31c.09.11,0,.21,0,.31-.41,1.46-.79,2.93-1.22,4.38-.54,1.83-1.09,3.67-1.5,5.53a.61.61,0,0,1-.28.46,31.11,31.11,0,0,1-6.56,3.26,15.9,15.9,0,0,1-5.43.89,10.76,10.76,0,0,1-5.8-1.75,15.9,15.9,0,0,1-2.8-2.37c-.29-.31-.58-.64-.87-1-.09-.1-.17-.21-.25-.31a1.77,1.77,0,0,0-.55.28c-1.12.68-2.23,1.37-3.36,2a20.56,20.56,0,0,1-3.83,1.79,14.21,14.21,0,0,1-14.19-2.78,15,15,0,0,1-3.35-4.68,23.24,23.24,0,0,1-1.74-5.45,38.64,38.64,0,0,1-.61-9.11,40.53,40.53,0,0,1,5.73-19.16,49.39,49.39,0,0,1,7-9.39,31.94,31.94,0,0,1,5.57-4.67,20.48,20.48,0,0,1,5.51-2.56,16.64,16.64,0,0,1,4.49-.6,13.22,13.22,0,0,1,8.54,3A19,19,0,0,1,361,143c.12.13.24.25.39.39a1,1,0,0,0,.18-.48,23.58,23.58,0,0,1,.73-3,6.58,6.58,0,0,1,.51-1.31l.2,0,9,0c1.21,0,2.42,0,3.62,0,.91,0,1.82.11,2.74.16h.51Zm-40.66,36a24.74,24.74,0,0,0,.21,2.89,11,11,0,0,0,.69,2.7,5.47,5.47,0,0,0,.82,1.37,3,3,0,0,0,1.93,1.09,4.68,4.68,0,0,0,2-.15,7.9,7.9,0,0,0,2.33-1.19,15.12,15.12,0,0,0,2.33-2.12,27.71,27.71,0,0,0,3.67-5.24,38.15,38.15,0,0,0,3.16-7.89,28.85,28.85,0,0,0,1.15-7,15.44,15.44,0,0,0-.38-4,9.2,9.2,0,0,0-1.75-3.71,1.27,1.27,0,0,0-.86-.49,9.67,9.67,0,0,0-1.86-.1,5.14,5.14,0,0,0-2.32.64,11.78,11.78,0,0,0-1.92,1.3,17.12,17.12,0,0,0-2.33,2.41,28.63,28.63,0,0,0-3.38,5.49,37.13,37.13,0,0,0-3.06,9.35A26.53,26.53,0,0,0,338.23,175Z"/><path class="cls-4" d="M337.51,224.19c.08-.15.16-.31.25-.45.32-.49.65-1,1-1.46s.27-.43.83-.43h.72a2.16,2.16,0,0,1,.29,0,1.78,1.78,0,0,1-.13.3c-.28.51-.57,1-.86,1.53-.08.15-.14.31-.22.47Z"/><path class="cls-5" d="M187.49,105.42c-.05.26-.08.45-.12.63-1,4-2.06,7.93-3,12l-.38,0H155.37a1.19,1.19,0,0,0-.25.6c-.53,1.89-1.07,3.78-1.56,5.68-1,3.82-1.93,7.65-2.9,11.48-.18.71-.37,1.43-.56,2.15,0,.16-.08.33-.12.53a1.84,1.84,0,0,0,.3.07c1.66.14,3.33.18,5,.22,3.84.08,7.68-.05,11.53,0h4.58a.63.63,0,0,1,0,.49c-.43,1.57-.85,3.15-1.3,4.73-.65,2.32-1.33,4.63-2,7,0,.13-.08.26-.13.4a2.47,2.47,0,0,1-.36,0H146.94a1,1,0,0,0-.3.52,52.75,52.75,0,0,0-1.77,5.51c-.66,2.57-1.26,5.15-1.92,7.72-.74,2.92-1.52,5.83-2.28,8.75l-2.37,9a1.51,1.51,0,0,0-.07.53,2.34,2.34,0,0,0,.26,0l2.16.1c4,.16,8,.17,12,.15l13.91,0h1.56l.39,0c0,.05.05.09,0,.11-.91,3.18-1.81,6.36-2.73,9.54-.28,1-.6,1.94-1,2.9a2.76,2.76,0,0,1-.37,0H117.73a1.73,1.73,0,0,1-.75-.06,1,1,0,0,1,.06-.52c1.06-4.14,2.1-8.28,3.17-12.42q2.4-9.36,4.83-18.71,2.59-9.94,5.2-19.89Q133,134.36,135.69,124q2.3-8.69,4.6-17.38c.06-.25.11-.5.17-.75a.52.52,0,0,1,.57-.48h46.46Z"/><path class="cls-5" d="M198.46,143.55c.22,0,.34-.12.48-.2.73-.44,1.44-.89,2.17-1.32a27.32,27.32,0,0,1,4.44-2.19,16.87,16.87,0,0,1,3.69-1,13.89,13.89,0,0,1,11.51,3.55,13.53,13.53,0,0,1,3.24,4.44,21.79,21.79,0,0,1,1.79,5.92,32.72,32.72,0,0,1,.35,4,31.93,31.93,0,0,1-.14,4,46,46,0,0,1-3.65,14.3,57.34,57.34,0,0,1-2.91,5.88,36.17,36.17,0,0,1-5.66,7.42,40.59,40.59,0,0,1-4.9,4.37,18.87,18.87,0,0,1-4.92,2.7,18,18,0,0,1-3.46.82,17.17,17.17,0,0,1-3,.17,15,15,0,0,1-5.28-1.09,9.11,9.11,0,0,1-3.8-2.86l-1.43-1.83a2.15,2.15,0,0,0-.45-.5c-.19.08-.18.26-.22.4-.36,1.2-.71,2.41-1.06,3.62-1.43,5.08-2.71,10.21-4,15.33-1,3.74-1.94,7.47-3,11.18-.06.23-.14.46-.21.67-.52.07-16.11.06-16.54,0a1.94,1.94,0,0,1,0-.24Q172,179.9,182.89,138.83a1.26,1.26,0,0,1,.59-.07H198.9a1.69,1.69,0,0,1,.58.05,2.55,2.55,0,0,1,0,.41c-.23,1-.47,1.91-.7,2.86-.08.36-.17.71-.24,1.06A2.73,2.73,0,0,0,198.46,143.55Zm-7,30.7c.05.84.09,1.68.17,2.52a10.61,10.61,0,0,0,.61,2.72,5.56,5.56,0,0,0,.82,1.54,3.43,3.43,0,0,0,2.05,1.31,5.24,5.24,0,0,0,2,0,7.06,7.06,0,0,0,2.65-1.11,13.38,13.38,0,0,0,2.42-2,24.05,24.05,0,0,0,3.25-4.2,33.89,33.89,0,0,0,4.71-12.82,24,24,0,0,0,.26-4.64,14.93,14.93,0,0,0-.39-3,7.29,7.29,0,0,0-.95-2.33,3.9,3.9,0,0,0-3.85-1.82,6.52,6.52,0,0,0-2.51.75,10.87,10.87,0,0,0-2.2,1.54,23,23,0,0,0-4.06,4.94,33.68,33.68,0,0,0-3.74,8.43A30.35,30.35,0,0,0,191.47,174.25Z"/><path class="cls-5" d="M277,161.36a41.2,41.2,0,0,1-1.44,9.55A40.69,40.69,0,0,1,271.39,181a37.12,37.12,0,0,1-9.85,11.17,30.19,30.19,0,0,1-5.64,3.33,24.55,24.55,0,0,1-10.22,2,17.6,17.6,0,0,1-14.1-7.34,22,22,0,0,1-3.5-7.39,28.61,28.61,0,0,1-1-5.43,35,35,0,0,1-.05-5.22A39.82,39.82,0,0,1,235,150.72a37.27,37.27,0,0,1,7.59-7.41,28.59,28.59,0,0,1,5.75-3.37,20,20,0,0,1,3.32-1.13,14.7,14.7,0,0,1,2-.3c1.06-.09,2.13-.16,3.19-.2a20,20,0,0,1,15.69,7.27,18.36,18.36,0,0,1,2.83,5.08,25,25,0,0,1,1.36,5.45A34.24,34.24,0,0,1,277,161.36Zm-34.21,15.09a16.1,16.1,0,0,0,.29,3.14,6.78,6.78,0,0,0,.91,2.29,4.06,4.06,0,0,0,4.29,1.82,8.42,8.42,0,0,0,2.82-1.12,15.6,15.6,0,0,0,3-2.37,21.34,21.34,0,0,0,3-3.88,33.66,33.66,0,0,0,4.87-13.77,26.6,26.6,0,0,0,.16-4.28,17.19,17.19,0,0,0-.4-3.12,7.51,7.51,0,0,0-.85-2.21,2.9,2.9,0,0,0-2-1.41,6.51,6.51,0,0,0-4,.47,14.42,14.42,0,0,0-1.48.84,13.62,13.62,0,0,0-3.56,3.42,34.71,34.71,0,0,0-5,9.41,39,39,0,0,0-1.74,7.07A29.76,29.76,0,0,0,242.75,176.45Z"/><path class="cls-5" d="M321.83,159.92a1.06,1.06,0,0,1-.38-.42c-.46-.68-.91-1.38-1.38-2.06s-1-1.45-1.53-2.15a10.81,10.81,0,0,0-1.77-1.87,7.88,7.88,0,0,0-8.53-1.07,13.28,13.28,0,0,0-2.29,1.5,22.85,22.85,0,0,0-6.11,7.72,29.57,29.57,0,0,0-2.62,8.14,21.6,21.6,0,0,0-.27,5.2,17.41,17.41,0,0,0,1,4.89,12.93,12.93,0,0,0,.63,1.36,5.49,5.49,0,0,0,.51.78,3.82,3.82,0,0,0,3,1.61,12,12,0,0,0,6.06-1.2,23.62,23.62,0,0,0,4.49-2.84c1.22-1,2.42-1.95,3.63-2.92.35-.28.71-.55,1.07-.81a3.26,3.26,0,0,1,.34-.23.93.93,0,0,1,0,.24c-1.27,4.72-2.35,9.49-3.67,14.2-.18.63-.37,1.26-.54,1.89a1.29,1.29,0,0,1-.46.72,14.21,14.21,0,0,1-1.82,1.28A23.57,23.57,0,0,1,306,196a20.21,20.21,0,0,1-3.69.71,23.31,23.31,0,0,1-4.34,0,17.37,17.37,0,0,1-11.83-5.87,21.69,21.69,0,0,1-4.62-8.34,23.63,23.63,0,0,1-1-5.28,44.37,44.37,0,0,1-.06-6A34.46,34.46,0,0,1,284,157.85a42.22,42.22,0,0,1,5.27-8,39.45,39.45,0,0,1,6-5.94,29.13,29.13,0,0,1,6.8-4.07,22.66,22.66,0,0,1,5.72-1.56,20.29,20.29,0,0,1,3.4-.17,17.62,17.62,0,0,1,4.79.7,15.84,15.84,0,0,1,6.66,3.93,22.3,22.3,0,0,1,2.76,3.28.63.63,0,0,1,.1.62c-.9,2.68-1.55,5.43-2.26,8.16-.4,1.55-.82,3.1-1.23,4.65C321.94,159.58,321.89,159.72,321.83,159.92Z"/><path class="cls-4" d="M189.06,99.57h-46.5c-.06-.16.09-.17.16-.21l3.58-2.08c10.49-6,21.06-12,31.63-17.88q9.13-5.12,18.25-10.25l.6-.31a2.86,2.86,0,0,1,0,.35q-1.06,5.11-2.39,10.16c-1.19,4.56-2.42,9.12-3.62,13.68-.51,2-1,3.94-1.51,5.91C189.18,99.14,189.13,99.33,189.06,99.57Z"/><path class="cls-4" d="M279.19,220.76a1.52,1.52,0,0,1,0-.22q1.46-5.62,2.93-11.24c0-.06.06-.12.09-.19l.32,0c1,0,2.06,0,3.1,0a5.77,5.77,0,0,1,1.17.15,3.35,3.35,0,0,1,2.67,2.76,6.54,6.54,0,0,1,.07,2.16,11.32,11.32,0,0,1-.78,2.93,6.72,6.72,0,0,1-1.42,2.14,5,5,0,0,1-2.81,1.42,11.48,11.48,0,0,1-1.65.14h-3.2C279.53,220.8,279.38,220.77,279.19,220.76Zm2.55-1.75.32,0c.48,0,1,0,1.45,0a3.08,3.08,0,0,0,2.16-1,5.37,5.37,0,0,0,.68-.89,7.67,7.67,0,0,0,1.09-3.31,4.34,4.34,0,0,0-.08-1.39,1.93,1.93,0,0,0-1.58-1.57,8.74,8.74,0,0,0-1.84-.09,1.73,1.73,0,0,0-.12.2C283.13,213.67,282.43,216.31,281.74,219Z"/><path class="cls-4" d="M216,220.77a12.82,12.82,0,0,1-1.86,0,.57.57,0,0,1,0-.48q.66-2.72,1.33-5.42c.16-.64.31-1.27.47-1.91,0-.09.08-.18.11-.27a5.6,5.6,0,0,1,1.81,0c.09.29-.1.57,0,.88a.76.76,0,0,0,.2-.08,3.28,3.28,0,0,0,.34-.31,3.19,3.19,0,0,1,1.61-.77,2.15,2.15,0,0,1,1.07.09,1.57,1.57,0,0,1,.87.77c.08.15.14.31.21.44s.21-.06.28-.12.38-.36.58-.52a3.14,3.14,0,0,1,1.54-.67,2.12,2.12,0,0,1,1.17.16,1.62,1.62,0,0,1,1,1.28,3.81,3.81,0,0,1-.07,1.39c-.18.79-.38,1.57-.58,2.36s-.47,1.8-.71,2.7c0,.13-.08.26-.11.38a6.13,6.13,0,0,1-1.93,0,.8.8,0,0,1,.06-.48c.34-1.3.69-2.6,1-3.9.08-.31.16-.63.21-1a3.49,3.49,0,0,0,0-.72A.63.63,0,0,0,224,214a1.35,1.35,0,0,0-1,.27,2.55,2.55,0,0,0-.64.67,4.24,4.24,0,0,0-.58,1.26l-.82,3.1q-.18.69-.36,1.41a1.8,1.8,0,0,1-.37,0,13.36,13.36,0,0,1-1.55,0,1.38,1.38,0,0,1,.09-.59c.37-1.48.75-3,1.13-4.45.06-.22.09-.44.13-.66a1.45,1.45,0,0,0,0-.36.67.67,0,0,0-.69-.69,1.48,1.48,0,0,0-1.13.43,2.9,2.9,0,0,0-.76,1.16,14.32,14.32,0,0,0-.53,1.56c-.29,1.06-.55,2.14-.82,3.2C216.12,220.49,216.08,220.6,216,220.77Z"/><path class="cls-4" d="M205.63,212.53a7,7,0,0,1-2,0c0-.11,0-.22,0-.34a4.25,4.25,0,0,0-.08-.61,1.25,1.25,0,0,0-1.44-1,2.2,2.2,0,0,0-1.33.51,3.66,3.66,0,0,0-.89,1,10.15,10.15,0,0,0-1.59,4.86,2.74,2.74,0,0,0,.37,1.68,1.46,1.46,0,0,0,1.44.74,2,2,0,0,0,1.33-.61,3.46,3.46,0,0,0,.75-1.16l.23-.55a11.57,11.57,0,0,1,2.3,0,1.33,1.33,0,0,1,0,.2,4.76,4.76,0,0,1-3.6,3.67,4.55,4.55,0,0,1-2.4,0,3.34,3.34,0,0,1-2.3-2.13,4.45,4.45,0,0,1-.27-1.62,10.21,10.21,0,0,1,.81-4,10,10,0,0,1,1.18-2.18,5.13,5.13,0,0,1,5.43-2,2.63,2.63,0,0,1,2.12,2.32c.05.32.05.65.07,1A1.57,1.57,0,0,1,205.63,212.53Z"/><path class="cls-4" d="M317.57,219.65l-.3,1.06a1.88,1.88,0,0,1-.91.08,3.26,3.26,0,0,1-.88,0,1,1,0,0,1,.06-.51l2.7-10.23c.08-.3.16-.6.24-.88a6.29,6.29,0,0,1,1.94,0c-.13.71-.37,1.39-.55,2.09s-.39,1.38-.6,2.19c.19-.16.28-.22.36-.3a2.54,2.54,0,0,1,1.31-.67,2.13,2.13,0,0,1,2.22,1,3.24,3.24,0,0,1,.44,1.63,7.39,7.39,0,0,1-1.36,4.52A3.31,3.31,0,0,1,320,221a2,2,0,0,1-2.16-1C317.78,220,317.7,219.85,317.57,219.65Zm4.06-4.3c0-.21,0-.42,0-.62a1.67,1.67,0,0,0-.08-.3.87.87,0,0,0-1-.6,1.43,1.43,0,0,0-.84.37,4,4,0,0,0-.58.66,6.07,6.07,0,0,0-.95,2.81,2.78,2.78,0,0,0,.19,1.27,1,1,0,0,0,1.59.46,2.33,2.33,0,0,0,.57-.6A6.94,6.94,0,0,0,321.63,215.35Z"/><path class="cls-4" d="M273.32,217.24l-.59,0h-3.62l-.58,0a3.45,3.45,0,0,0-.13,1.71,1,1,0,0,0,1,.78,1.35,1.35,0,0,0,1.15-.47,3.07,3.07,0,0,0,.35-.51c.09-.15.16-.3.25-.46.63-.06,1.24,0,1.9,0,0,.13,0,.23-.06.31a3.57,3.57,0,0,1-2.53,2.31,4.35,4.35,0,0,1-2.15,0,2.31,2.31,0,0,1-1.9-2.33,6.35,6.35,0,0,1,.16-1.74,7.93,7.93,0,0,1,.63-1.91,8,8,0,0,1,.46-.81,3.74,3.74,0,0,1,3.86-1.64,4.41,4.41,0,0,1,.8.18,2,2,0,0,1,1.33,1.47A5.45,5.45,0,0,1,273.32,217.24Zm-4.27-1.44a.53.53,0,0,0,.18,0h2.12a.9.9,0,0,0,.22-.06,2.59,2.59,0,0,0,.16-1.19.89.89,0,0,0-.69-.86,1.27,1.27,0,0,0-1.24.32,2.88,2.88,0,0,0-.78,1.69S269,215.77,269.05,215.8Z"/><path class="cls-4" d="M234.61,217.25c-1.6,0-3.16,0-4.75,0a1.46,1.46,0,0,0-.13.34,3.6,3.6,0,0,0-.08,1.18,1.1,1.1,0,0,0,1.61.89,1.64,1.64,0,0,0,.82-.76c.11-.19.21-.39.32-.6.63,0,1.25,0,1.86,0,0,.06,0,.1,0,.13a3.56,3.56,0,0,1-2.54,2.48,4.38,4.38,0,0,1-2.3,0,2.26,2.26,0,0,1-1.78-2.2,6.19,6.19,0,0,1,.09-1.55,8.36,8.36,0,0,1,.74-2.3,5.43,5.43,0,0,1,.57-.92,3.7,3.7,0,0,1,3.55-1.46,4,4,0,0,1,.91.2,2,2,0,0,1,1.42,1.69A5.77,5.77,0,0,1,234.61,217.25Zm-4.34-1.41H232a2.47,2.47,0,0,0,.81-.06,2.52,2.52,0,0,0,.18-1.07,1.35,1.35,0,0,0-.08-.4.82.82,0,0,0-.74-.62,1.29,1.29,0,0,0-1.21.44A3.55,3.55,0,0,0,230.27,215.84Z"/><path class="cls-4" d="M350,215.44a2.24,2.24,0,0,0,.21-1,.68.68,0,0,0-.61-.72,1.17,1.17,0,0,0-1.47.73c0,.08-.07.16-.1.23a7.88,7.88,0,0,1-1.88,0,1.32,1.32,0,0,1,0-.34,2.45,2.45,0,0,1,1.36-1.54,4.52,4.52,0,0,1,2.38-.35,4.36,4.36,0,0,1,1,.21,1.74,1.74,0,0,1,1.24,1.72,4.9,4.9,0,0,1-.17,1.33c-.27,1-.54,2-.78,2.95-.13.53-.21,1.08-.31,1.62,0,.15-.05.3-.08.48a11.77,11.77,0,0,1-1.78,0c0-.27,0-.48-.06-.69-.12-.06-.17,0-.23.08s-.34.3-.52.42a2.5,2.5,0,0,1-2,.38,1.71,1.71,0,0,1-1.33-1.24,3.24,3.24,0,0,1,.6-3,2.64,2.64,0,0,1,1.13-.79,6.91,6.91,0,0,1,2-.41c.34,0,.69,0,1,0C349.72,215.48,349.86,215.45,350,215.44Zm-.38,1.31a4.14,4.14,0,0,0-1.65.17,1.94,1.94,0,0,0-.68.36,1.58,1.58,0,0,0-.56,1.62.85.85,0,0,0,1.12.69,1.37,1.37,0,0,0,.66-.38,4.58,4.58,0,0,0,.5-.66,6,6,0,0,0,.61-1.58A1.6,1.6,0,0,0,349.59,216.75Z"/><path class="cls-4" d="M330.85,212.69a6.74,6.74,0,0,1,1.94,0c-.11.68-.32,1.33-.48,2s-.34,1.37-.51,2.05l-.51,2c-.17.66-.3,1.34-.53,2-.61,0-1.19,0-1.77,0-.1-.37.15-.68.05-1-.12,0-.16.05-.23.1-.25.2-.5.42-.76.61a3.06,3.06,0,0,1-1.34.52,2,2,0,0,1-1.38-.29,1.53,1.53,0,0,1-.75-1.12,3.43,3.43,0,0,1,.07-1.39c.18-.79.39-1.57.59-2.35s.47-1.76.71-2.64a1.53,1.53,0,0,1,.18-.52,5.85,5.85,0,0,1,1.92,0c0,.18-.07.36-.12.54-.37,1.43-.75,2.86-1.13,4.29-.05.2-.1.4-.13.6a1.47,1.47,0,0,0,0,.72.77.77,0,0,0,.77.57,1.39,1.39,0,0,0,.9-.34,2.41,2.41,0,0,0,.78-1,10.17,10.17,0,0,0,.51-1.29c.36-1.2.69-2.42,1-3.63C330.74,213.06,330.79,212.88,330.85,212.69Z"/><path class="cls-4" d="M353.06,218.25a7.65,7.65,0,0,1,1.15-3.92,4,4,0,0,1,4.49-1.78,2.38,2.38,0,0,1,1.88,2,5.66,5.66,0,0,1-.09,2,7.72,7.72,0,0,1-.94,2.5,3.9,3.9,0,0,1-4,1.88c-.22,0-.44-.08-.65-.13a2.26,2.26,0,0,1-1.82-2.17A3.53,3.53,0,0,1,353.06,218.25Zm5.58-2.89a4.47,4.47,0,0,0,0-.52,1.07,1.07,0,0,0-1.44-1,1.59,1.59,0,0,0-.95.67,8.16,8.16,0,0,0-.62,1.12,8.48,8.48,0,0,0-.55,2.09,2.54,2.54,0,0,0,0,.87,1.12,1.12,0,0,0,1.57.91,2.05,2.05,0,0,0,1-.87A6.83,6.83,0,0,0,358.64,215.36Z"/><path class="cls-4" d="M252.81,218.22a7.69,7.69,0,0,1,1.1-3.82,4.08,4.08,0,0,1,4.51-1.87,2.46,2.46,0,0,1,1.9,2,5.49,5.49,0,0,1-.09,2.1,7.88,7.88,0,0,1-.92,2.46,3.89,3.89,0,0,1-4,1.89,5.09,5.09,0,0,1-.66-.12,2.28,2.28,0,0,1-1.8-2.24C252.8,218.5,252.81,218.36,252.81,218.22Zm5.6-2.87c0-.2,0-.37,0-.54a1.07,1.07,0,0,0-1.42-.94,1.4,1.4,0,0,0-.71.4,3.09,3.09,0,0,0-.48.6,7.67,7.67,0,0,0-1,3.33,1.57,1.57,0,0,0,.07.61,1.11,1.11,0,0,0,1.41.77,2,2,0,0,0,1.12-.94A7.18,7.18,0,0,0,258.41,215.35Z"/><path class="cls-4" d="M206,218.18a7.43,7.43,0,0,1,1.14-3.86,4,4,0,0,1,4.49-1.77,2.42,2.42,0,0,1,1.89,2.19,7,7,0,0,1-.48,3.19,6.79,6.79,0,0,1-.75,1.47,3.5,3.5,0,0,1-2.25,1.53,4.57,4.57,0,0,1-2.35-.07,2.25,2.25,0,0,1-1.69-2.11A5.42,5.42,0,0,1,206,218.18Zm5.6-2.88c0-.17,0-.36,0-.54a1.07,1.07,0,0,0-1.47-.87,1.73,1.73,0,0,0-.88.6,4.58,4.58,0,0,0-.66,1.16A10.38,10.38,0,0,0,208,218a1.8,1.8,0,0,0,.08.86,1.12,1.12,0,0,0,1.41.72,2.06,2.06,0,0,0,1.09-.9A7.47,7.47,0,0,0,211.64,215.3Z"/><path class="cls-4" d="M293.79,218.31c.59,0,1.19,0,1.82,0,0,.18,0,.33.07.48a3.63,3.63,0,0,0,.1.45.79.79,0,0,0,.71.52,1.49,1.49,0,0,0,1-.19,1,1,0,0,0,.1-1.73c-.35-.25-.73-.46-1.09-.7l-.77-.52a2.24,2.24,0,0,1,0-3.49,3.77,3.77,0,0,1,1.26-.57,4.5,4.5,0,0,1,2-.05,3,3,0,0,1,.9.37,1.69,1.69,0,0,1,.68,2.19,12.77,12.77,0,0,1-1.75,0c0-.12,0-.21-.06-.31s0-.2-.05-.31a.82.82,0,0,0-.88-.76,1,1,0,0,0-.57,1.82c.23.15.47.28.71.42s.68.4,1,.62a2.34,2.34,0,0,1,.12,3.67,3.38,3.38,0,0,1-1.58.71,5.17,5.17,0,0,1-2.11,0,3.06,3.06,0,0,1-.59-.17,1.89,1.89,0,0,1-1.17-1.69A1.37,1.37,0,0,1,293.79,218.31Z"/><path class="cls-4" d="M341.56,218h1.68l.23,0c0,.15,0,.28-.08.41a3.27,3.27,0,0,1-2.87,2.53,5,5,0,0,1-1.49,0,2.25,2.25,0,0,1-2-1.87,4,4,0,0,1-.09-1.08,6.92,6.92,0,0,1,1.33-3.95,3.82,3.82,0,0,1,2.11-1.5,4,4,0,0,1,2.34,0,1.93,1.93,0,0,1,1.44,1.81,3.69,3.69,0,0,1,0,.47c0,.17,0,.34-.06.5a5.47,5.47,0,0,1-1.92,0v-.3a2.36,2.36,0,0,0,0-.46.89.89,0,0,0-1.13-.83,1.55,1.55,0,0,0-.79.46,3.5,3.5,0,0,0-.59.9,9.65,9.65,0,0,0-.63,2,5.05,5.05,0,0,0-.12,1.28,1.33,1.33,0,0,0,.16.65.89.89,0,0,0,1,.46,1.3,1.3,0,0,0,.75-.43,6.8,6.8,0,0,0,.47-.68A4.89,4.89,0,0,0,341.56,218Z"/><path class="cls-4" d="M248.28,215.44a7.32,7.32,0,0,1-1.87,0,2.19,2.19,0,0,1,0-.28c0-.15,0-.31,0-.46a.9.9,0,0,0-1.16-.84,1.64,1.64,0,0,0-.79.47,3.44,3.44,0,0,0-.56.86,8.86,8.86,0,0,0-.64,2.07,4.24,4.24,0,0,0-.11,1.28,1.61,1.61,0,0,0,.15.6.86.86,0,0,0,1,.47,1.43,1.43,0,0,0,.88-.59,7.15,7.15,0,0,0,.44-.76,2.6,2.6,0,0,0,.13-.24c.62,0,1.24,0,1.89,0a2.66,2.66,0,0,1,0,.3,5.73,5.73,0,0,1-.3.82,3.06,3.06,0,0,1-2.27,1.78,5.12,5.12,0,0,1-1.79.07,2.29,2.29,0,0,1-2.06-2,3.89,3.89,0,0,1-.08-1.13,6.92,6.92,0,0,1,1.11-3.5,5.58,5.58,0,0,1,.6-.78,3.84,3.84,0,0,1,4-1,1.91,1.91,0,0,1,1.53,1.9,1.41,1.41,0,0,1,0,.41C248.34,215.07,248.31,215.24,248.28,215.44Z"/><path class="cls-4" d="M305.11,219.57a5.94,5.94,0,0,1-.27,1.28,3.43,3.43,0,0,1-1.52.18,2.86,2.86,0,0,1-.7-.17,1.13,1.13,0,0,1-.79-1.1,3.61,3.61,0,0,1,.07-.87c.26-1,.54-2.1.81-3.15.1-.4.22-.8.33-1.2,0-.13,0-.26.06-.41-.4-.16-.81,0-1.2-.12a6.1,6.1,0,0,1,.34-1.32c.41-.12.83,0,1.26-.09l.16-.48c.09-.31.17-.63.25-1,0-.12.09-.24.21-.27.58-.15,1.15-.34,1.78-.46a1.21,1.21,0,0,1,0,.27c-.13.51-.27,1-.41,1.54,0,.1,0,.2-.06.32.39.16.8,0,1.18.11a3.52,3.52,0,0,1-.29,1.32c-.39.13-.81,0-1.25.1-.05.13-.11.27-.15.41-.34,1.29-.68,2.57-1,3.85a3.45,3.45,0,0,0-.1.56.63.63,0,0,0,.69.72A5.44,5.44,0,0,0,305.11,219.57Z"/><path class="cls-4" d="M312.52,212.44a7,7,0,0,1-.57,2l-.44.06a1.79,1.79,0,0,0-1.47,1,3.19,3.19,0,0,0-.29.72c-.28,1-.55,2-.82,3l-.3,1.21-.09.22a6.12,6.12,0,0,1-2,0,1.34,1.34,0,0,1,0-.2l1.92-7.67a.86.86,0,0,1,.11-.21c.55,0,1.11,0,1.68,0,.07.41-.11.76-.07,1.17a2.32,2.32,0,0,0,.21-.18c.18-.22.35-.47.55-.68A1.83,1.83,0,0,1,312.52,212.44Z"/><path class="cls-4" d="M241.25,212.45a8.13,8.13,0,0,1-.6,2l-.38,0a1.88,1.88,0,0,0-1.6,1.15,4.7,4.7,0,0,0-.29.82c-.32,1.18-.62,2.37-.93,3.55l-.18.68a6.35,6.35,0,0,1-2,0,3.11,3.11,0,0,1,.07-.44c.59-2.39,1.2-4.77,1.8-7.16,0-.14.08-.29.12-.42a5.51,5.51,0,0,1,1.72,0,1.06,1.06,0,0,1,0,.56.94.94,0,0,0,0,.5c.14,0,.18-.09.24-.17s.35-.47.55-.68A1.79,1.79,0,0,1,241.25,212.45Z"/><path class="cls-4" d="M313.75,212.69a7.75,7.75,0,0,1,1.88,0,.56.56,0,0,1,0,.44c-.45,1.72-.89,3.43-1.34,5.14-.18.72-.37,1.43-.56,2.15a2.29,2.29,0,0,1-.09.28,6,6,0,0,1-1.9,0c-.09-.13,0-.26,0-.39.38-1.45.75-2.9,1.13-4.34.26-1,.51-1.93.77-2.89C313.66,213,313.71,212.82,313.75,212.69Z"/><path class="cls-4" d="M332.55,220.73a1.94,1.94,0,0,1,0-.24c.68-2.6,1.35-5.19,2-7.76a5.9,5.9,0,0,1,1.92,0s0,.07,0,.1l-1.95,7.6a3,3,0,0,1-.12.32A6.93,6.93,0,0,1,332.55,220.73Z"/><path class="cls-4" d="M293.67,212.72a2,2,0,0,1,0,.24c-.66,2.59-1.34,5.18-2,7.75a5.6,5.6,0,0,1-2,0c.05-.2.09-.4.14-.59.66-2.48,1.29-5,2-7.4A6.37,6.37,0,0,1,293.67,212.72Z"/><path class="cls-4" d="M250.55,212.65c.64,0,1.25,0,1.89,0a2,2,0,0,1,0,.25c-.11.6-1.95,7.54-2.07,7.82a5.65,5.65,0,0,1-1.88,0,.69.69,0,0,1,0-.49c.41-1.55.81-3.09,1.21-4.64.23-.85.45-1.7.67-2.54C250.45,212.92,250.5,212.8,250.55,212.65Z"/><path class="cls-4" d="M347.6,211.49c0-.07,0-.12,0-.17a4.27,4.27,0,0,1,.59-1.53,1.2,1.2,0,0,1,1.7-.42l.62.37c.12.07.23.16.35.22a.54.54,0,0,0,.82-.25,3.24,3.24,0,0,0,.18-.45,3.59,3.59,0,0,1,.93,0,1,1,0,0,1,0,.21,4.22,4.22,0,0,1-.53,1.34,1.66,1.66,0,0,1-.52.57,1,1,0,0,1-1.2,0l-.82-.54c-.54-.34-.83-.24-1.08.35l-.13.32h-.61Z"/><path class="cls-4" d="M233.22,211.54h-1.56c0-.06,0-.12,0-.15l1.44-2.2s.05,0,.09-.08h2c0,.08,0,.16-.07.2Z"/><path class="cls-4" d="M253,211.11H251a.33.33,0,0,1-.14,0,9.08,9.08,0,0,1,.47-1.93,6.71,6.71,0,0,1,2.1,0C253.33,209.8,253.15,210.44,253,211.11Z"/><path class="cls-4" d="M316.11,211.11c-.65,0-1.31,0-2,0a3.24,3.24,0,0,1,.2-1,4.51,4.51,0,0,1,.28-1,8.87,8.87,0,0,1,2.06,0A8.16,8.16,0,0,1,316.11,211.11Z"/><path class="cls-4" d="M294.14,211.07a9,9,0,0,1-2,0,.62.62,0,0,1,0-.19c.14-.58.28-1.17.47-1.72a6.78,6.78,0,0,1,2.06,0A8,8,0,0,1,294.14,211.07Z"/><path class="cls-4" d="M337.07,211.07a9.48,9.48,0,0,1-2.07,0,9.77,9.77,0,0,1,.48-1.92,8.33,8.33,0,0,1,2.07,0,4.62,4.62,0,0,1-.21,1C337.26,210.43,337.16,210.76,337.07,211.07Z"/><polygon class="cls-6" points="377.19 371.66 374.31 368.77 377.19 368.77 377.19 371.66"/><path class="cls-7" d="M318.88,370.37a4.54,4.54,0,0,0-1.62-1,6.24,6.24,0,0,0-2.14-.34H309.2v14.69h3.18v-5.12a.13.13,0,0,1,.13-.13h2.61a6.24,6.24,0,0,0,2.14-.34,4.49,4.49,0,0,0,1.61-1,4.21,4.21,0,0,0,1-1.49,5.06,5.06,0,0,0,.35-1.9,5.13,5.13,0,0,0-.34-1.92A4,4,0,0,0,318.88,370.37Zm-2.37,4.85a2.25,2.25,0,0,1-1.58.53h-2.42a.12.12,0,0,1-.13-.13v-3.7a.12.12,0,0,1,.13-.13h2.42a2.21,2.21,0,0,1,1.58.54,1.94,1.94,0,0,1,.56,1.45A1.91,1.91,0,0,1,316.51,375.22Zm14.25.76a3.91,3.91,0,0,0-1.67-2.18,5.89,5.89,0,0,0-5.75,0,3.89,3.89,0,0,0-1.66,2.18,7.5,7.5,0,0,0-.26,1.16,9.25,9.25,0,0,0-.09,1.37,9.39,9.39,0,0,0,.09,1.38,7.37,7.37,0,0,0,.26,1.15,3.86,3.86,0,0,0,1.66,2.18,5.82,5.82,0,0,0,5.75,0,3.87,3.87,0,0,0,1.67-2.18,7.35,7.35,0,0,0,.25-1.15,9.39,9.39,0,0,0,.09-1.38,9.25,9.25,0,0,0-.09-1.37A7.48,7.48,0,0,0,330.76,376ZM328,379.56a5,5,0,0,1-.15.75,1.73,1.73,0,0,1-3.24,0,4,4,0,0,1-.15-.75,9.15,9.15,0,0,1-.05-1.05,9.41,9.41,0,0,1,.05-1.05,3.74,3.74,0,0,1,.15-.74,1.73,1.73,0,0,1,3.24,0,4.62,4.62,0,0,1,.15.74,9.84,9.84,0,0,1,0,1.05A9.6,9.6,0,0,1,328,379.56Zm8.56-9.43h-3v3.15h-1v2.23h1v4.88a3.89,3.89,0,0,0,.76,2.64,3.37,3.37,0,0,0,2.59.84h1.36v-2.55h-.73a1,1,0,0,1-.74-.23,1.19,1.19,0,0,1-.21-.81v-4.77h1.68l.8-2.23h-2.48Zm13,7.06a5.26,5.26,0,0,0-.1-.65c-.05-.2-.1-.38-.16-.56a4,4,0,0,0-1.6-2.16,5.19,5.19,0,0,0-2.91-.77,5.13,5.13,0,0,0-2.86.76,4,4,0,0,0-1.64,2.2,5.63,5.63,0,0,0-.25,1.09,9.54,9.54,0,0,0-.09,1.41,8.17,8.17,0,0,0,.1,1.41,5.69,5.69,0,0,0,.27,1.08,4,4,0,0,0,1.64,2.2,5.3,5.3,0,0,0,3,.78,6.51,6.51,0,0,0,2.57-.48,5.38,5.38,0,0,0,1.88-1.27l-1.75-1.64a3.47,3.47,0,0,1-1,.68,3.55,3.55,0,0,1-1.36.25,2.59,2.59,0,0,1-1.38-.35,1.81,1.81,0,0,1-.78-1,2,2,0,0,1-.13-.58.12.12,0,0,1,.13-.13h6.57v-.21c0-.44,0-.83,0-1.15S349.58,377.44,349.55,377.19Zm-3,.22h-3.46a.12.12,0,0,1-.13-.13,2.58,2.58,0,0,1,0-.42c0-.12,0-.24.08-.36a1.54,1.54,0,0,1,.64-.84,2.2,2.2,0,0,1,2.22,0,1.5,1.5,0,0,1,.64.84c0,.12.05.24.08.36a2.58,2.58,0,0,1,0,.42C346.66,377.37,346.62,377.41,346.53,377.41Zm13.72-3.26a3,3,0,0,0-1.12-.8,3.92,3.92,0,0,0-1.54-.28,3.57,3.57,0,0,0-1.67.34,3,3,0,0,0-1,.84h0v-1l-3,.8v9.66h3v-6.22a2.05,2.05,0,0,1,.43-1.38,1.48,1.48,0,0,1,1.21-.52,1.42,1.42,0,0,1,1.22.52,2.16,2.16,0,0,1,.4,1.38v6.22h3V377a5.13,5.13,0,0,0-.23-1.57A3.34,3.34,0,0,0,360.25,374.15Zm6.29,2.57a1.46,1.46,0,0,1,.59-.84,1.78,1.78,0,0,1,1-.28,1.92,1.92,0,0,1,.94.21,2.57,2.57,0,0,1,.72.69l2.25-1.49a4.26,4.26,0,0,0-1.58-1.41,4.88,4.88,0,0,0-2.37-.55,5.25,5.25,0,0,0-2.86.74A4,4,0,0,0,363.6,376a4.52,4.52,0,0,0-.25,1.08,12.73,12.73,0,0,0,0,2.85,4.76,4.76,0,0,0,.25,1.08,3.92,3.92,0,0,0,1.66,2.21,5.25,5.25,0,0,0,2.86.75,4.88,4.88,0,0,0,2.37-.55,4.28,4.28,0,0,0,1.58-1.42l-2.25-1.49a2.32,2.32,0,0,1-.72.69,1.82,1.82,0,0,1-.94.22,1.78,1.78,0,0,1-1-.28,1.49,1.49,0,0,1-.59-.84,3.72,3.72,0,0,1-.15-.74,9.75,9.75,0,0,1-.05-1.06,10,10,0,0,1,.05-1.06A3.76,3.76,0,0,1,366.54,376.72Zm7.65-3.44v10.46h3V373.28Zm13.45.68a3.58,3.58,0,0,0-1.44-.69,8.92,8.92,0,0,0-2.16-.22,8,8,0,0,0-2.26.28,5.46,5.46,0,0,0-1.63.75l1.19,2.06a3.12,3.12,0,0,1,1-.48,4.38,4.38,0,0,1,1.38-.19,3,3,0,0,1,1.7.34,1.3,1.3,0,0,1,.44,1.08v.39a.13.13,0,0,1-.13.13h-1.86a5.44,5.44,0,0,0-3.14.82,2.88,2.88,0,0,0-1.2,2.55,3.38,3.38,0,0,0,.28,1.45,2.79,2.79,0,0,0,.76,1,3.18,3.18,0,0,0,1.11.58A4.91,4.91,0,0,0,383,384a4.46,4.46,0,0,0,1.77-.31,2.86,2.86,0,0,0,1.1-.84h0v.91h2.84v-6.91a5.32,5.32,0,0,0-.25-1.69A2.79,2.79,0,0,0,387.64,374Zm-1.83,6.3c0,1-.65,1.45-1.94,1.45-1,0-1.52-.37-1.52-1.1s.62-1.19,1.86-1.19h1.6Zm9.84,1H395a.94.94,0,0,1-.69-.23,1.1,1.1,0,0,1-.21-.76V369.05h-3v11.49a3.59,3.59,0,0,0,.75,2.54,3.29,3.29,0,0,0,2.49.79h1.36V381.3Z"/><polygon class="cls-7" points="395.65 362.67 309.2 276.22 309.2 362.67 395.65 362.67"/><polygon class="cls-6" points="309.2 276.22 395.65 362.67 395.65 276.22 309.2 276.22"/><polygon class="cls-8" points="369.72 302.16 335.14 302.16 335.14 345.38 352.43 345.38 352.43 336.74 369.72 336.74 369.72 302.16"/><path class="cls-7" d="M324.09,390.42a2.28,2.28,0,0,0-.06-.35,2.46,2.46,0,0,0-.07-.29,1.87,1.87,0,0,0-2-1.28h-2c-.07,0-.1,0-.1.09v6.12c0,.07,0,.1.1.1h2a1.88,1.88,0,0,0,2-1.28c0-.1.05-.19.07-.29a2.69,2.69,0,0,0,.06-.36,3.53,3.53,0,0,0,0-.5c0-.19,0-.44,0-.73s0-.52,0-.72A3.68,3.68,0,0,0,324.09,390.42Zm-.51,1.91c0,.18,0,.33,0,.46s0,.23-.05.32,0,.17-.06.24a1.29,1.29,0,0,1-.57.73,2,2,0,0,1-1,.23h-1.4a.05.05,0,0,1-.06-.06v-5.2s0-.05.06-.05h1.4a1.91,1.91,0,0,1,1,.23,1.27,1.27,0,0,1,.57.72l.06.25c0,.08,0,.19.05.32s0,.28,0,.46,0,.41,0,.67S323.59,392.14,323.58,392.33ZM327,388.5h-.35c-.06,0-.1,0-.1.09v6.12a.09.09,0,0,0,.1.1H327c.06,0,.09,0,.09-.1v-6.12A.08.08,0,0,0,327,388.5Zm5,2.87-.28,0a2.19,2.19,0,0,1-1.15-.41,1,1,0,0,1-.34-.79,1.17,1.17,0,0,1,.38-.9,1.54,1.54,0,0,1,1.05-.33,2.43,2.43,0,0,1,.77.11,3.61,3.61,0,0,1,.75.35.09.09,0,0,0,.13,0l.19-.29a.08.08,0,0,0,0-.13,2.48,2.48,0,0,0-.8-.38,3.27,3.27,0,0,0-1-.15,2.1,2.1,0,0,0-1.45.48,1.63,1.63,0,0,0-.54,1.3,1.47,1.47,0,0,0,.45,1.12,2.41,2.41,0,0,0,1.37.55l.29,0a3.76,3.76,0,0,1,.73.17,1.64,1.64,0,0,1,.46.27.87.87,0,0,1,.25.36,1.18,1.18,0,0,1,.07.43,1.15,1.15,0,0,1-.43.94,1.9,1.9,0,0,1-1.2.35,2.53,2.53,0,0,1-1-.21,3.55,3.55,0,0,1-.78-.44.08.08,0,0,0-.13,0l-.22.28c-.05,0,0,.08,0,.13a3.26,3.26,0,0,0,.89.51,3.83,3.83,0,0,0,.58.16,3.26,3.26,0,0,0,.62.06,3.1,3.1,0,0,0,1-.13,2,2,0,0,0,.7-.38,1.72,1.72,0,0,0,.43-.58,2,2,0,0,0,.14-.74,1.51,1.51,0,0,0-.44-1.13A2.46,2.46,0,0,0,332,391.37Zm7.85-2.87h-4.28c-.07,0-.1,0-.1.09v.32c0,.06,0,.09.1.09h1.81s.06,0,.06.05v5.66c0,.07,0,.1.09.1h.35c.07,0,.1,0,.1-.1v-5.66A0,0,0,0,1,338,389h1.82c.06,0,.1,0,.1-.09v-.32C339.91,388.53,339.87,388.5,339.81,388.5Zm4.94,3.41a1.66,1.66,0,0,0,.95-.58,1.69,1.69,0,0,0,.34-1.09,1.65,1.65,0,0,0-.51-1.28,2,2,0,0,0-1.42-.46H342a.08.08,0,0,0-.09.09v6.12c0,.07,0,.1.1.1h.34c.07,0,.1,0,.1-.1V392a0,0,0,0,1,.05-.05h1.72l1.32,2.73a.11.11,0,0,0,.11.09h.44a.06.06,0,0,0,.06,0s0,0,0-.07Zm-.65-.42h-1.61s-.05,0-.05-.06v-2.38a0,0,0,0,1,.05-.05h1.61a1.54,1.54,0,0,1,1,.32,1.37,1.37,0,0,1,0,1.85A1.54,1.54,0,0,1,344.1,391.49Zm4.88-3h-.35a.08.08,0,0,0-.09.09v6.12c0,.07,0,.1.09.1H349c.06,0,.09,0,.09-.1v-6.12A.08.08,0,0,0,349,388.5Zm6.54,3.51a1.1,1.1,0,0,0-.35-.3,1.07,1.07,0,0,0-.36-.14v0a1.41,1.41,0,0,0,.71-.48,1.59,1.59,0,0,0,.26-.94,1.52,1.52,0,0,0-.47-1.19,1.9,1.9,0,0,0-1.37-.44h-2.11a.08.08,0,0,0-.09.09v6.12c0,.07,0,.1.09.1h2.11a2.07,2.07,0,0,0,1.44-.46,1.63,1.63,0,0,0,.5-1.28,1.58,1.58,0,0,0-.36-1.06Zm-3.25-3s0-.05.06-.05h1.61a1.39,1.39,0,0,1,1,.31,1.15,1.15,0,0,1,.33.87,1.12,1.12,0,0,1-.33.84,1.35,1.35,0,0,1-1,.33h-1.61a.05.05,0,0,1-.06-.06ZM355,394a1.47,1.47,0,0,1-1,.34h-1.66a.05.05,0,0,1-.06-.06V391.9s0,0,.06,0H354a1.42,1.42,0,0,1,1,.34,1.33,1.33,0,0,1,0,1.78Zm7.35-5.47H362c-.06,0-.1,0-.1.09v4.05a1.85,1.85,0,0,1-.42,1.33,1.58,1.58,0,0,1-1.19.43,1.56,1.56,0,0,1-1.17-.43,1.85,1.85,0,0,1-.43-1.33v-4.05a.08.08,0,0,0-.09-.09h-.35a.08.08,0,0,0-.09.09v4a2.25,2.25,0,0,0,.58,1.71,2.13,2.13,0,0,0,1.55.56,2.72,2.72,0,0,0,.89-.14,1.7,1.7,0,0,0,.68-.42,2,2,0,0,0,.43-.71,3,3,0,0,0,.15-1v-4A.08.08,0,0,0,362.37,388.5Zm3.13,0h-.34c-.07,0-.1,0-.1.09v6.12c0,.07,0,.1.1.1h.34c.07,0,.1,0,.1-.1v-6.12C365.6,388.53,365.57,388.5,365.5,388.5Zm3.07,2c0-.13,0-.23,0-.32a2.18,2.18,0,0,1,.06-.22,1.6,1.6,0,0,1,.54-.79,1.8,1.8,0,0,1,1.83,0,1.81,1.81,0,0,1,.56.66.08.08,0,0,0,.12,0l.31-.15s.05-.06,0-.12a1.92,1.92,0,0,0-.76-.87,2.38,2.38,0,0,0-2.4.05,2,2,0,0,0-.74,1.07c0,.08-.05.16-.07.26a2.6,2.6,0,0,0,0,.36c0,.14,0,.31,0,.5s0,.43,0,.71,0,.52,0,.71,0,.37,0,.51a2.84,2.84,0,0,0,0,.36c0,.09.05.18.07.26a1.9,1.9,0,0,0,1.77,1.4l-.46,1.2q0,.09.06.09h.29a.15.15,0,0,0,.15-.09l.4-1.2a2.17,2.17,0,0,0,1-.34,1.88,1.88,0,0,0,.68-.81q0-.09,0-.12l-.31-.15c-.05,0-.09,0-.12,0a1.78,1.78,0,0,1-.56.65,1.46,1.46,0,0,1-.89.25,1.54,1.54,0,0,1-.94-.27,1.52,1.52,0,0,1-.54-.78c0-.06,0-.14-.06-.23s0-.19,0-.32,0-.29,0-.47,0-.42,0-.68,0-.5,0-.68S368.56,390.63,368.57,390.5Zm6.6-3a2.35,2.35,0,0,1,.26-.22.53.53,0,0,1,.52,0l.22.12a2.1,2.1,0,0,0,.26.13.65.65,0,0,0,.29.06.66.66,0,0,0,.32-.08,1.21,1.21,0,0,0,.26-.2l.06-.08v-.35s0,0,0,0a.06.06,0,0,0,0,0,1.34,1.34,0,0,1-.26.23.49.49,0,0,1-.29.08.59.59,0,0,1-.23,0,1.27,1.27,0,0,1-.22-.13l-.26-.13a.73.73,0,0,0-.3-.06.62.62,0,0,0-.31.08.72.72,0,0,0-.25.21.23.23,0,0,0-.08.14v.28C375.09,387.53,375.12,387.54,375.17,387.5Zm1.25,1h-.34a.11.11,0,0,0-.11.09l-2.21,6.12c0,.07,0,.1.07.1h.36a.12.12,0,0,0,.12-.1l.56-1.55h2.75l.55,1.55a.11.11,0,0,0,.12.1h.36c.07,0,.09,0,.07-.1l-2.19-6.12A.11.11,0,0,0,376.42,388.5Zm-1.37,4.15,1.18-3.3h0l1.18,3.3ZM385,391c0-.2,0-.36,0-.5a1.68,1.68,0,0,0-.06-.36c0-.1-.05-.19-.07-.28a2.07,2.07,0,0,0-.75-1.05,2.43,2.43,0,0,0-2.58,0,2.07,2.07,0,0,0-.75,1.05c0,.09-.05.18-.08.28a2.84,2.84,0,0,0-.05.36c0,.14,0,.3,0,.5s0,.42,0,.69,0,.51,0,.7,0,.36,0,.49a3.33,3.33,0,0,0,.05.37c0,.1.05.19.08.27a2.1,2.1,0,0,0,.75,1.06,2.49,2.49,0,0,0,2.58,0,2.1,2.1,0,0,0,.75-1.06c0-.08.05-.17.07-.27a1.91,1.91,0,0,0,.06-.37c0-.13,0-.3,0-.49s0-.43,0-.7S385,391.15,385,391Zm-.54,1.35c0,.19,0,.34,0,.47a2.32,2.32,0,0,1,0,.33,2.18,2.18,0,0,1-.06.22,1.63,1.63,0,0,1-3.06,0,1.5,1.5,0,0,0-.06-.22,2.32,2.32,0,0,1-.05-.33c0-.13,0-.28,0-.47s0-.4,0-.66,0-.47,0-.66,0-.34,0-.47a2,2,0,0,1,.05-.32,1.58,1.58,0,0,0,.06-.23,1.63,1.63,0,0,1,3.06,0c0,.06,0,.14.06.23a2,2,0,0,1,0,.32c0,.13,0,.29,0,.47s0,.41,0,.66S384.44,392.13,384.43,392.31Z"/><path class="cls-8" d="M124.12,351.46S104,361.52,109.94,374.89s15.47,9.73,15.47,9.73l6.6.16,70.47-.13,24,0,2.21-26.82s-54.62-3.31-61.53,1.08S129.93,339.64,124.12,351.46Z"/><path class="cls-9" d="M100.91,358.11s2.35-17.78,50.64-21c.93-.06,3.18-7.31,3.89-6.86-.08-1.5-1.69-8-1.69-8-.87-2-1.62-2.1-5.43-2.1-4.53.56-48.4,5.92-47.41,37.92Z"/><path class="cls-9" d="M104.75,372.23s-6.5-18.31,19.33-30.18c4.49-2.4,28.08-9.85,32.56-5.34-.55-3.08-1-5.18-1-5.18s.16-3-5.43-2.71c-13.63,1.51-21.27,3.91-31.58,9.47,0,0-21.82,10.73-13.86,33.94Z"/><path class="cls-9" d="M172.77,351a11.56,11.56,0,0,1,1.91-.15,3.77,3.77,0,0,1,2.5.74,2.59,2.59,0,0,1,.9,2.15,4,4,0,0,1-1.4,3.16,5,5,0,0,1-3.3.92,12.1,12.1,0,0,1-1.88-.14l1.27-6.68Zm.42,5.59h0a5.72,5.72,0,0,0,.64,0,2.52,2.52,0,0,0,1.95-.79,3.09,3.09,0,0,0,.71-2.08,1.59,1.59,0,0,0-1.81-1.73,3.28,3.28,0,0,0-.62.05l-.87,4.52Z"/><path class="cls-9" d="M178.38,357.79l1-5h1.47l-1,5Zm1.86-5.6h0a.67.67,0,0,1-.7-.71.83.83,0,0,1,.84-.84.69.69,0,0,1,.74.72.81.81,0,0,1-.86.83Z"/><path class="cls-9" d="M181.27,356.48a3.19,3.19,0,0,0,1.29.35c.42,0,.63-.21.63-.45s-.16-.42-.62-.64a1.59,1.59,0,0,1-1-1.33c0-1,.91-1.72,2.19-1.72a3,3,0,0,1,1.29.25l-.36,1a2.48,2.48,0,0,0-1-.21c-.4,0-.65.16-.65.44s.2.37.6.57c.55.27,1.12.67,1.12,1.36,0,1.14-1,1.77-2.29,1.76a3,3,0,0,1-1.52-.39l.36-1Z"/><path class="cls-9" d="M188.13,351.46l-.25,1.34H189l-.23,1.12h-1.06l-.33,1.69a3.73,3.73,0,0,0-.08.64c0,.24.1.41.42.41a2.61,2.61,0,0,0,.4,0l-.16,1.15a2.73,2.73,0,0,1-.87.12c-.88,0-1.3-.45-1.3-1.08a4.44,4.44,0,0,1,.11-.93l.38-2h-.63l.2-1.12h.64l.18-.94,1.51-.4Z"/><path class="cls-9" d="M188.86,357.79l.57-3c.14-.76.2-1.59.25-2H191c0,.34,0,.67-.09,1h0a1.89,1.89,0,0,1,1.59-1.13h.28l-.29,1.43h-.23c-.94,0-1.38.83-1.56,1.81l-.35,1.85Z"/><path class="cls-9" d="M192.63,357.79l1-5h1.47l-1,5Zm1.86-5.6h0a.67.67,0,0,1-.7-.71.83.83,0,0,1,.84-.84.7.7,0,0,1,.75.72.82.82,0,0,1-.87.83Z"/><path class="cls-9" d="M198.17,350.56l-.6,2.85h0a2,2,0,0,1,1.53-.71,1.55,1.55,0,0,1,1.51,1.74,3.3,3.3,0,0,1-3.3,3.47c-1.18,0-1.77-.51-1.77-1.4a4.62,4.62,0,0,1,.11-.91l1-5Zm-1,5.14h0a2.29,2.29,0,0,0,0,.55.51.51,0,0,0,.56.55c.85,0,1.45-1.19,1.45-2.05,0-.49-.2-.86-.65-.86s-1,.53-1.22,1.4l-.09.41Z"/><path class="cls-9" d="M206.44,352.81l-.63,3.36c-.13.64-.21,1.18-.27,1.62h-1.29l.09-.8h0a2.16,2.16,0,0,1-1.71.93c-.81,0-1.29-.45-1.29-1.4a4.75,4.75,0,0,1,.1-.92l.53-2.78h1.47l-.51,2.67a4.37,4.37,0,0,0-.07.66c0,.32.13.57.5.57s1-.6,1.2-1.59l.44-2.31Z"/><path class="cls-9" d="M206.74,357.79l.95-5h1.47l-.95,5Zm1.86-5.6h0a.68.68,0,0,1-.71-.71.83.83,0,0,1,.85-.84.69.69,0,0,1,.74.72.82.82,0,0,1-.86.83Z"/><path class="cls-9" d="M215.29,350.56l-1,5.3a13.33,13.33,0,0,0-.23,1.93H212.7l.07-.8h0a1.93,1.93,0,0,1-1.64.92c-.85,0-1.54-.68-1.54-1.89a3.21,3.21,0,0,1,3.14-3.33,2.08,2.08,0,0,1,.68.12l.44-2.25Zm-2.1,3.42h0a1,1,0,0,0-.58-.17c-.89,0-1.51,1-1.51,2,0,.6.27.93.68.93s.95-.44,1.15-1.4l.26-1.34Z"/><path class="cls-9" d="M220.4,354.75a3,3,0,0,1-3,3.16,2,2,0,0,1-2.11-2.07,3,3,0,0,1,3-3.15,2,2,0,0,1,2.11,2.06Zm-3.56,1.07h0c0,.58.28,1,.8,1,.78,0,1.24-1.19,1.24-2,0-.46-.2-.95-.78-.95-.85,0-1.26,1.23-1.26,2Z"/><path class="cls-9" d="M220.84,357.79l.56-3c.14-.76.2-1.59.25-2h1.28c0,.34-.06.67-.1,1h0a1.89,1.89,0,0,1,1.59-1.13h.28l-.29,1.43h-.23c-.94,0-1.38.83-1.56,1.81l-.35,1.85Z"/><path class="cls-9" d="M227.79,357.79c0-.29.05-.63.07-1h0a1.91,1.91,0,0,1-1.69,1.1,1.55,1.55,0,0,1-1.5-1.74,3.37,3.37,0,0,1,3.56-3.47,5.94,5.94,0,0,1,1.65.24l-.52,2.61a12.27,12.27,0,0,0-.2,2.24Zm.42-3.94h0a2.13,2.13,0,0,0-.39,0c-.95,0-1.65,1.16-1.65,2.09,0,.49.2.82.61.82s1-.5,1.21-1.72l.22-1.15Z"/><path class="cls-9" d="M131.46,350.23a9.37,9.37,0,0,1,5.27,1.3l1.27.87-1.51,10.17c8.18-3.43,16.67-4.45,24.08-1.32-.53-3-1.14-9.9-1.14-9.9-1.27-16.68-1.71-16.55-8.93-16.16-4.7-.22-17.74,4.28-25.6,8.08.36,0,6.2,7,6.56,7Z"/><path class="cls-9" d="M114.78,363.12l1.37-7.15h3.38v0c30.16-22.37,4.4-12.77,6.82-14.91C111,348.05,96.7,366.2,114,383c0,0-9.37-9.58.8-19.84Z"/><path class="cls-9" d="M115.8,383.77l3.86-20.34h-3.43l1.13-5.89h3.42l.22-1.34a14,14,0,0,1,4.39-8.57,11.56,11.56,0,0,1,7.44-2.46,10.34,10.34,0,0,1,4.06.64l-1.33,6.11a6.37,6.37,0,0,0-2.47-.43c-2.51,0-4,2.14-4.49,4.76l-.27,1.29h5.19l-1.12,5.89h-5.14l-3.8,20.34Z"/><path class="cls-9" d="M153.88,362l-2.76,14.72c-.54,2.76-.9,5.13-1.16,7.09h-5.67l.4-3.52-.09-.05c-2.22,2.85-4.85,4.06-7.49,4.06-3.52,0-5.61-2-5.61-6.11a20,20,0,0,1,.44-4L134.26,362h6.42l-2.23,11.69a18.07,18.07,0,0,0-.31,2.89c0,1.39.58,2.5,2.18,2.5,2.19,0,4.42-2.63,5.27-7L147.5,362Z"/><path class="cls-9" d="M165.74,356l-1.12,5.89h4.68l-1,4.9h-4.63l-1.47,7.4a15.6,15.6,0,0,0-.36,2.77c0,1.07.44,1.83,1.87,1.83a11.21,11.21,0,0,0,1.74-.09l-.71,5a13.17,13.17,0,0,1-3.79.49c-3.88,0-5.71-2-5.71-4.73a18.89,18.89,0,0,1,.49-4.06l1.65-8.65h-2.77l.9-4.9h2.81l.8-4.1,6.6-1.79Z"/><path class="cls-9" d="M190.79,362,188,376.68c-.53,2.76-.89,5.13-1.16,7.09h-5.66l.4-3.52-.09-.05c-2.23,2.85-4.86,4.06-7.49,4.06-3.52,0-5.62-2-5.62-6.11a20.12,20.12,0,0,1,.45-4L171.18,362h6.42l-2.23,11.69a18.07,18.07,0,0,0-.31,2.89c0,1.39.57,2.5,2.18,2.5,2.18,0,4.41-2.63,5.26-7L184.42,362Z"/><path class="cls-9" d="M190.35,383.77l2.45-13c.62-3.3.89-7,1.11-8.83h5.58c-.14,1.47-.23,3-.4,4.46h.13c1.56-2.9,4-4.95,7-4.95a9.63,9.63,0,0,1,1.2,0l-1.25,6.24a8.36,8.36,0,0,0-1,0c-4.11,0-6,3.65-6.83,7.93l-1.51,8.12Z"/><path class="cls-9" d="M219,383.77c0-1.3.17-2.77.26-4.33h-.09c-2,3.61-4.81,4.82-7.35,4.82-3.93,0-6.6-3-6.6-7.58,0-7.36,4.9-15.21,15.6-15.21a25.77,25.77,0,0,1,7.23,1.07L225.79,374a53.19,53.19,0,0,0-.89,9.81Zm1.82-17.26h0a9.39,9.39,0,0,0-1.73-.18c-4.15,0-7.18,5.09-7.18,9.14,0,2.14.84,3.62,2.63,3.62s4.28-2.19,5.3-7.54l1-5Z"/><path class="cls-10" d="M101,358.11s2-29.75,50.33-33a6.16,6.16,0,0,1,3.07.68,25.29,25.29,0,0,0-.55-3.53c-.87-2-1.63-2.1-5.44-2.1-4.52.56-48.4,5.92-47.41,37.92Z"/><path class="cls-11" d="M104.34,372.23s-6.5-18.31,19.34-30.18c4.49-2.4,28.07-9.85,32.56-5.34-.55-3.08-1-5.18-1-5.18s.15-3-5.44-2.71c-13.62,1.51-21.26,3.91-31.58,9.47,0,0-21.81,10.73-13.86,33.94Z"/><path class="cls-10" d="M172.82,351a11.47,11.47,0,0,1,1.91-.15,3.72,3.72,0,0,1,2.49.74,2.59,2.59,0,0,1,.91,2.15,4,4,0,0,1-1.41,3.16,4.93,4.93,0,0,1-3.29.92,12,12,0,0,1-1.88-.14l1.27-6.68Zm.42,5.59h0a5.72,5.72,0,0,0,.64,0,2.53,2.53,0,0,0,2-.79,3.14,3.14,0,0,0,.71-2.08,1.59,1.59,0,0,0-1.81-1.73,3.48,3.48,0,0,0-.63.05l-.86,4.52Z"/><path class="cls-10" d="M178.43,357.79l.95-5h1.47l-.95,5Zm1.86-5.6h0a.68.68,0,0,1-.71-.71.83.83,0,0,1,.85-.84.69.69,0,0,1,.74.72.82.82,0,0,1-.86.83Z"/><path class="cls-10" d="M181.31,356.48a3.29,3.29,0,0,0,1.3.35c.42,0,.63-.21.63-.45s-.16-.42-.62-.64a1.59,1.59,0,0,1-1.05-1.33c0-1,.91-1.72,2.19-1.72a2.89,2.89,0,0,1,1.28.25l-.35,1a2.53,2.53,0,0,0-1-.21c-.4,0-.65.16-.65.44s.2.37.6.57,1.12.67,1.12,1.36c0,1.14-1,1.77-2.29,1.76a2.92,2.92,0,0,1-1.52-.39l.35-1Z"/><path class="cls-10" d="M188.18,351.46l-.25,1.34H189l-.23,1.12h-1.06l-.34,1.69a3.73,3.73,0,0,0-.08.64c0,.24.11.41.43.41a2.68,2.68,0,0,0,.4,0l-.16,1.15a2.73,2.73,0,0,1-.87.12c-.89,0-1.31-.45-1.31-1.08a4.54,4.54,0,0,1,.12-.93l.37-2h-.63l.21-1.12h.64l.18-.94,1.51-.4Z"/><path class="cls-10" d="M188.91,357.79l.56-3c.14-.76.21-1.59.26-2H191c0,.34-.05.67-.09,1h0a1.89,1.89,0,0,1,1.59-1.13h.27l-.28,1.43h-.23c-.94,0-1.38.83-1.56,1.81l-.35,1.85Z"/><path class="cls-10" d="M192.68,357.79l.95-5h1.47l-.95,5Zm1.85-5.6h0a.68.68,0,0,1-.7-.71.83.83,0,0,1,.85-.84.69.69,0,0,1,.74.72.82.82,0,0,1-.86.83Z"/><path class="cls-10" d="M198.21,350.56l-.59,2.85h0a2,2,0,0,1,1.54-.71,1.55,1.55,0,0,1,1.51,1.74,3.3,3.3,0,0,1-3.3,3.47c-1.18,0-1.78-.51-1.78-1.4a4.63,4.63,0,0,1,.12-.91l1-5Zm-1,5.14h0a2.29,2.29,0,0,0-.05.55.52.52,0,0,0,.56.55c.86,0,1.46-1.19,1.46-2.05,0-.49-.2-.86-.65-.86s-1.05.53-1.22,1.4l-.1.41Z"/><path class="cls-10" d="M206.48,352.81l-.63,3.36c-.12.64-.2,1.18-.26,1.62h-1.3l.1-.8h0a2.14,2.14,0,0,1-1.71.93c-.8,0-1.28-.45-1.28-1.4a4.75,4.75,0,0,1,.1-.92l.53-2.78h1.47l-.51,2.67a4.37,4.37,0,0,0-.07.66c0,.32.13.57.5.57s1-.6,1.2-1.59l.44-2.31Z"/><path class="cls-10" d="M206.79,357.79l1-5h1.46l-.95,5Zm1.85-5.6h0a.68.68,0,0,1-.7-.71.83.83,0,0,1,.85-.84.7.7,0,0,1,.74.72.82.82,0,0,1-.87.83Z"/><path class="cls-10" d="M215.34,350.56l-1,5.3a13.38,13.38,0,0,0-.24,1.93h-1.34l.07-.8h0a1.93,1.93,0,0,1-1.64.92c-.85,0-1.54-.68-1.54-1.89a3.21,3.21,0,0,1,3.14-3.33,2.08,2.08,0,0,1,.68.12l.44-2.25Zm-2.1,3.42h0a1,1,0,0,0-.58-.17c-.89,0-1.51,1-1.51,2,0,.6.26.93.68.93s.95-.44,1.14-1.4l.27-1.34Z"/><path class="cls-10" d="M220.45,354.75a3,3,0,0,1-3,3.16,2,2,0,0,1-2.11-2.07,3,3,0,0,1,3-3.15,2,2,0,0,1,2.11,2.06Zm-3.57,1.07h0c0,.58.29,1,.81,1,.78,0,1.24-1.19,1.24-2,0-.46-.2-.95-.78-.95-.85,0-1.27,1.23-1.27,2Z"/><path class="cls-10" d="M220.88,357.79l.56-3c.15-.76.21-1.59.26-2H223c0,.34-.05.67-.09,1h0a1.89,1.89,0,0,1,1.59-1.13h.28l-.29,1.43h-.23c-.94,0-1.38.83-1.56,1.81l-.35,1.85Z"/><path class="cls-10" d="M227.84,357.79c0-.29,0-.63.06-1h0a1.89,1.89,0,0,1-1.68,1.1,1.55,1.55,0,0,1-1.51-1.74,3.37,3.37,0,0,1,3.57-3.47,6,6,0,0,1,1.65.24l-.52,2.61a12.27,12.27,0,0,0-.2,2.24Zm.42-3.94h0a2.15,2.15,0,0,0-.4,0c-.94,0-1.64,1.16-1.64,2.09,0,.49.2.82.6.82s1-.5,1.22-1.72l.22-1.15Z"/><path class="cls-12" d="M133,343.6a11.74,11.74,0,0,1,4.73.79l1.14.54-1.35,6.18c7.34-2.09,15-2.71,21.59-.81-.47-1.8-1.41-5.93-1.41-5.93-.32-1.8-1.09-4.29-7.56-4.06-4.23-.13-11,1-18.09,3.33.31,0,.63,0,1,0Z"/><path class="cls-12" d="M114.83,363.12l1.36-7.15h3.39v0c.7-4.06,2.29-7.18,4.71-9.31-15.37,7-27.55,19.56-10.26,36.32,0,0-9.38-9.58.8-19.84Z"/><path class="cls-11" d="M115.85,383.77l3.86-20.34h-3.43l1.12-5.89h3.43l.21-1.34a14.06,14.06,0,0,1,4.39-8.57,11.58,11.58,0,0,1,7.44-2.46,10.36,10.36,0,0,1,4.07.64l-1.34,6.11a6.28,6.28,0,0,0-2.46-.43c-2.51,0-4,2.14-4.5,4.76l-.26,1.29h5.19l-1.12,5.89h-5.14l-3.8,20.34Z"/><path class="cls-11" d="M153.93,362l-2.77,14.72c-.53,2.76-.89,5.13-1.16,7.09h-5.66l.4-3.52-.09-.05c-2.23,2.85-4.86,4.06-7.49,4.06-3.52,0-5.62-2-5.62-6.11a20.12,20.12,0,0,1,.45-4L134.31,362h6.42l-2.23,11.69a18.07,18.07,0,0,0-.31,2.89c0,1.39.58,2.5,2.18,2.5,2.19,0,4.42-2.63,5.26-7L147.55,362Z"/><path class="cls-11" d="M165.78,356l-1.11,5.89h4.68l-1,4.9h-4.64l-1.47,7.4a15.55,15.55,0,0,0-.35,2.77c0,1.07.44,1.83,1.87,1.83a11.34,11.34,0,0,0,1.74-.09l-.72,5a13.07,13.07,0,0,1-3.79.49c-3.88,0-5.7-2-5.7-4.73a18.89,18.89,0,0,1,.49-4.06l1.65-8.65h-2.77l.89-4.9h2.81l.81-4.1,6.59-1.79Z"/><path class="cls-11" d="M190.84,362l-2.76,14.72c-.54,2.76-.89,5.13-1.16,7.09h-5.66l.4-3.52-.09-.05c-2.23,2.85-4.86,4.06-7.49,4.06-3.53,0-5.62-2-5.62-6.11a20,20,0,0,1,.44-4L171.22,362h6.42l-2.23,11.69a19.3,19.3,0,0,0-.31,2.89c0,1.39.58,2.5,2.19,2.5,2.18,0,4.41-2.63,5.26-7L184.47,362Z"/><path class="cls-11" d="M190.39,383.77l2.46-13c.62-3.3.89-7,1.11-8.83h5.57c-.13,1.47-.22,3-.4,4.46h.14c1.56-2.9,4-4.95,6.95-4.95a9.8,9.8,0,0,1,1.21,0l-1.25,6.24a8.45,8.45,0,0,0-1,0c-4.1,0-6,3.65-6.82,7.93l-1.52,8.12Z"/><path class="cls-11" d="M219.06,383.77c.05-1.3.18-2.77.27-4.33h-.09c-2,3.61-4.81,4.82-7.36,4.82-3.92,0-6.59-3-6.59-7.58,0-7.36,4.9-15.21,15.6-15.21a25.64,25.64,0,0,1,7.22,1.07L225.84,374a53.19,53.19,0,0,0-.89,9.81Zm1.83-17.26h0a9.41,9.41,0,0,0-1.74-.18c-4.14,0-7.18,5.09-7.18,9.14,0,2.14.85,3.62,2.63,3.62s4.28-2.19,5.31-7.54l1-5Z"/><ellipse class="cls-8" cx="202.55" cy="384.26" rx="4.83" ry="2.09"/><ellipse class="cls-8" cx="167.69" cy="384.26" rx="2.42" ry="2.09"/><ellipse class="cls-8" cx="153.82" cy="384.26" rx="2.42" ry="2.09"/><ellipse class="cls-8" cx="128.88" cy="384.26" rx="3.65" ry="2.09"/><path class="cls-13" d="M489.67,383.94h-1v-4.85l1.19,0a2.12,2.12,0,0,1,1.61.62,2.26,2.26,0,0,1,.6,1.65c0,1.75-.81,2.62-2.42,2.62Zm-.32-4.26v3.63a4.22,4.22,0,0,0,.55,0,1.27,1.27,0,0,0,1.09-.52,2.29,2.29,0,0,0,.4-1.45c0-1.15-.51-1.72-1.55-1.72l-.49,0Zm3.89-.63a.38.38,0,0,1,.28.12.36.36,0,0,1,0,.54.38.38,0,0,1-.28.12.37.37,0,0,1-.27-.12.37.37,0,0,1-.11-.27.41.41,0,0,1,.11-.28.4.4,0,0,1,.27-.11Zm-.34,4.89v-3h-.49v-.53h1.12v3.55Zm1.19-.21.23-.6a1.68,1.68,0,0,0,.84.35c.39,0,.59-.17.59-.49s-.19-.44-.57-.61a4,4,0,0,1-.58-.3,1.16,1.16,0,0,1-.26-.23.91.91,0,0,1-.17-.28,1.07,1.07,0,0,1-.05-.32.82.82,0,0,1,.31-.68,1.37,1.37,0,0,1,.84-.24,2.71,2.71,0,0,1,1,.24l-.18.59a1.18,1.18,0,0,0-.75-.3.67.67,0,0,0-.38.1.32.32,0,0,0-.15.27.56.56,0,0,0,.39.52l.45.2a1.72,1.72,0,0,1,.6.43,1,1,0,0,1,.19.61.9.9,0,0,1-.34.75,1.42,1.42,0,0,1-.92.27,2.18,2.18,0,0,1-1.06-.28Zm3-2.84h-.41v-.5h.41v-.74l.63-.24v1h1v.5h-1v1.76a1.06,1.06,0,0,0,.15.64.6.6,0,0,0,.49.19,1.07,1.07,0,0,0,.5-.13l.09.56a3.76,3.76,0,0,1-.86.1.93.93,0,0,1-.71-.32,1.13,1.13,0,0,1-.29-.79v-2Zm4.19.11a.68.68,0,0,0-.41-.14.75.75,0,0,0-.59.3,1.15,1.15,0,0,0-.25.75v2h-.63v-3.55H500V381a1.1,1.1,0,0,1,1-.63,2.77,2.77,0,0,1,.49.06l-.26.61Zm1.16-1.95a.37.37,0,0,1,.27.12.39.39,0,0,1,0,.54.37.37,0,0,1-.27.12.38.38,0,0,1-.28-.12.33.33,0,0,1-.11-.27.37.37,0,0,1,.11-.28.39.39,0,0,1,.28-.11Zm-.35,4.89v-3h-.49v-.53h1.12v3.55Zm2-.26-.22.33h-.31v-5.07h.62v1.71a.87.87,0,0,1,.34-.22,1.23,1.23,0,0,1,.49-.1,1.5,1.5,0,0,1,1.18.5,1.84,1.84,0,0,1,.45,1.27,2,2,0,0,1-.46,1.4,1.55,1.55,0,0,1-1.22.51,1.24,1.24,0,0,1-.5-.1.94.94,0,0,1-.37-.23Zm.09-2.55v2.05s.08.1.24.18a.92.92,0,0,0,.36.12,1.21,1.21,0,0,0,.92-.31,1.57,1.57,0,0,0,.28-1,1.31,1.31,0,0,0-.33-.95,1.18,1.18,0,0,0-.87-.33.79.79,0,0,0-.33.1,1,1,0,0,0-.27.17Zm3.55-.74v2.26c0,.55.23.83.71.83a1,1,0,0,0,.57-.18.84.84,0,0,0,.34-.42v-2.49h.63v3.55h-.63v-.49a.91.91,0,0,1-.43.38,1.25,1.25,0,0,1-.62.18,1.15,1.15,0,0,1-.89-.34,1.33,1.33,0,0,1-.31-.95v-2.33Zm3.55-1.34a.38.38,0,0,1,.28.12.39.39,0,0,1,0,.54.38.38,0,0,1-.28.12.41.41,0,0,1-.39-.39.38.38,0,0,1,.12-.28.37.37,0,0,1,.27-.11Zm-.34,4.89v-3h-.49v-.53h1.12v3.55Zm4.1-3.26-.31.45a1,1,0,0,0-.34-.19,1.72,1.72,0,0,0-.48-.08,1,1,0,0,0-.82.36,1.47,1.47,0,0,0-.3,1,1.36,1.36,0,0,0,.31.95,1.12,1.12,0,0,0,.86.33,1.41,1.41,0,0,0,.85-.33l.25.53a2.27,2.27,0,0,1-1.26.33,1.64,1.64,0,0,1-1.2-.49,1.82,1.82,0,0,1-.47-1.32,1.88,1.88,0,0,1,.49-1.36,1.79,1.79,0,0,1,1.35-.51,1.9,1.9,0,0,1,.59.11,1.76,1.76,0,0,1,.48.24Zm-1.78,4.77-.08-.33a.91.91,0,0,0,.43-.09.27.27,0,0,0,.18-.25q0-.24-.3-.24v-.4a.66.66,0,0,1,.51.19.61.61,0,0,1,.18.45.58.58,0,0,1-.24.49,1.12,1.12,0,0,1-.68.18Zm4.26-1.92a1.38,1.38,0,0,1-1.15.48,1,1,0,0,1-.73-.31,1,1,0,0,1-.31-.75,1.12,1.12,0,0,1,.48-.91,1.85,1.85,0,0,1,1.2-.38,1.38,1.38,0,0,1,.45.09c0-.57-.26-.86-.77-.86a1.26,1.26,0,0,0-.91.32l-.26-.53a1.55,1.55,0,0,1,.5-.25,1.89,1.89,0,0,1,.6-.1,1.49,1.49,0,0,1,1.12.35,1.52,1.52,0,0,1,.35,1.11v1.28a.64.64,0,0,0,.28.62V384a1.13,1.13,0,0,1-.58-.11.6.6,0,0,1-.27-.36Zm-.06-1.33a2,2,0,0,0-.42-.07,1.15,1.15,0,0,0-.77.25.7.7,0,0,0-.31.58c0,.36.22.55.66.55a1.08,1.08,0,0,0,.84-.45v-.86Zm.37-3.2c-.12.46-.33.68-.64.68a1.09,1.09,0,0,1-.46-.12.84.84,0,0,0-.35-.13.39.39,0,0,0-.36.25h-.3a1,1,0,0,1,.22-.48.49.49,0,0,1,.39-.2,1,1,0,0,1,.5.13.84.84,0,0,0,.35.12.35.35,0,0,0,.36-.25Zm.81,3.16a1.93,1.93,0,0,1,.45-1.33,1.44,1.44,0,0,1,1.16-.5,1.48,1.48,0,0,1,1.18.48,2.36,2.36,0,0,1,0,2.7,1.63,1.63,0,0,1-2.35,0,2.06,2.06,0,0,1-.43-1.35Zm.67,0c0,.89.31,1.33.94,1.33a.82.82,0,0,0,.69-.35,1.67,1.67,0,0,0,.25-1c0-.88-.31-1.32-.94-1.32a.82.82,0,0,0-.69.35,1.62,1.62,0,0,0-.25,1Z"/><path class="cls-13" d="M527.17,382.24h-2.56a1.3,1.3,0,0,0,.34,1,1.06,1.06,0,0,0,.78.29,1.31,1.31,0,0,0,.9-.31l.27.45a1.18,1.18,0,0,1-.45.25,2.25,2.25,0,0,1-.84.14,1.58,1.58,0,0,1-1.14-.45,1.76,1.76,0,0,1-.52-1.35,1.9,1.9,0,0,1,.53-1.4,1.55,1.55,0,0,1,1.13-.48,1.58,1.58,0,0,1,1.19.43,1.58,1.58,0,0,1,.37,1.47Zm-1.52-1.37a1,1,0,0,0-.71.27,1,1,0,0,0-.31.65h2a.88.88,0,0,0-.94-.92Z"/><path class="cls-13" d="M529.14,383.91v-4.86h.67v4.26H532v.6Zm3-1.79a1.9,1.9,0,0,1,.45-1.32,1.62,1.62,0,0,1,2.34,0,2.36,2.36,0,0,1,0,2.7,1.64,1.64,0,0,1-2.35,0,2,2,0,0,1-.43-1.35Zm.67,0c0,.89.31,1.34.94,1.34a.79.79,0,0,0,.69-.36,1.65,1.65,0,0,0,.25-1c0-.88-.31-1.31-.94-1.31a.79.79,0,0,0-.69.35,1.59,1.59,0,0,0-.25,1Zm2.87,2.76.34-.51a1.85,1.85,0,0,0,1,.37,1.28,1.28,0,0,0,.67-.15.41.41,0,0,0,.25-.36c0-.29-.21-.43-.62-.43a2,2,0,0,0-.39.05,3,3,0,0,1-.43,0c-.51,0-.76-.19-.76-.57a.43.43,0,0,1,.18-.32,1.12,1.12,0,0,1,.44-.2,1.34,1.34,0,0,1-.36-2.15,1.37,1.37,0,0,1,1-.37,1.3,1.3,0,0,1,.81.22l.32-.38.41.39-.38.28a1.33,1.33,0,0,1,.25.82,1.29,1.29,0,0,1-.34.9,1.27,1.27,0,0,1-.88.42l-.52.05-.25.08c-.1,0-.15.09-.15.16s.1.13.32.13a3.74,3.74,0,0,0,.45-.05,3.43,3.43,0,0,1,.44-.05,1.22,1.22,0,0,1,.82.25.88.88,0,0,1,.29.69.93.93,0,0,1-.44.8,1.91,1.91,0,0,1-1.11.3,2.11,2.11,0,0,1-.72-.13,2.24,2.24,0,0,1-.62-.29ZM537,380.8a.71.71,0,0,0-.54.23.85.85,0,0,0-.2.56.91.91,0,0,0,.2.62.66.66,0,0,0,.54.24.63.63,0,0,0,.52-.24.92.92,0,0,0,.19-.62.85.85,0,0,0-.2-.56.68.68,0,0,0-.51-.23Zm2.3,3.11v-3h-.49v-.53h1.13v3.55Zm1-5.36-.75,1.1h-.47l.56-1.1Zm.15,5.14.22-.59a1.71,1.71,0,0,0,.85.34c.39,0,.58-.16.58-.49s-.18-.43-.56-.6a4,4,0,0,1-.58-.3,1.55,1.55,0,0,1-.27-.24,1.07,1.07,0,0,1-.16-.27.87.87,0,0,1-.06-.32.81.81,0,0,1,.32-.68,1.28,1.28,0,0,1,.83-.25,2.56,2.56,0,0,1,1,.25l-.18.58a1.2,1.2,0,0,0-.75-.3.66.66,0,0,0-.38.11.32.32,0,0,0-.15.27.55.55,0,0,0,.39.51l.45.21a1.6,1.6,0,0,1,.6.43,1,1,0,0,1,.19.6.9.9,0,0,1-.34.75,1.43,1.43,0,0,1-.93.27,2.07,2.07,0,0,1-1-.28Zm3-2.83h-.41v-.5h.41v-.74l.63-.25v1h1v.5h-1v1.76a1,1,0,0,0,.15.63.57.57,0,0,0,.49.19,1.22,1.22,0,0,0,.5-.12l.09.55a3.33,3.33,0,0,1-.86.1.93.93,0,0,1-.71-.31,1.13,1.13,0,0,1-.29-.79v-2Zm2.91-1.84a.37.37,0,0,1,.28.11.4.4,0,0,1,.11.27.41.41,0,0,1-.11.28.37.37,0,0,1-.28.11.33.33,0,0,1-.27-.11.38.38,0,0,1-.12-.28.39.39,0,0,1,.11-.27.37.37,0,0,1,.28-.11Zm-.34,4.89v-3h-.49v-.53h1.12v3.55Zm4.1-3.26-.31.44a1,1,0,0,0-.34-.18,1.45,1.45,0,0,0-.48-.09,1,1,0,0,0-.82.36,1.5,1.5,0,0,0-.3,1,1.37,1.37,0,0,0,.31.95,1.15,1.15,0,0,0,.85.32,1.41,1.41,0,0,0,.86-.33l.25.53a2.27,2.27,0,0,1-1.26.33,1.6,1.6,0,0,1-1.2-.49,1.81,1.81,0,0,1-.47-1.31,1.86,1.86,0,0,1,.49-1.36,1.76,1.76,0,0,1,1.35-.52,1.68,1.68,0,0,1,.59.12,1.51,1.51,0,0,1,.48.24Zm2.48,2.85a1.41,1.41,0,0,1-1.16.47,1,1,0,0,1-.72-.3,1,1,0,0,1-.31-.75,1.13,1.13,0,0,1,.48-.92,1.85,1.85,0,0,1,1.2-.37,1.38,1.38,0,0,1,.45.09c0-.58-.26-.86-.77-.86a1.22,1.22,0,0,0-.9.31l-.27-.52a1.49,1.49,0,0,1,.49-.25,2,2,0,0,1,.61-.11,1.55,1.55,0,0,1,1.12.35,1.57,1.57,0,0,1,.35,1.12V383a.64.64,0,0,0,.28.62V384a1.24,1.24,0,0,1-.58-.11.6.6,0,0,1-.27-.36Zm-.06-1.34a2.53,2.53,0,0,0-.42-.06,1.25,1.25,0,0,0-.78.24.74.74,0,0,0-.3.58c0,.37.22.56.66.56a1.1,1.1,0,0,0,.84-.46v-.86Z"/><path class="cls-13" d="M581.58,405.86l4.35-.05-.06,1.1c0,.73-.34,1.1-1,1.1H572.94v4.33h11.89a5.3,5.3,0,0,0,3.82-1.58,5.22,5.22,0,0,0,1.61-3.85v-9.72a8.47,8.47,0,0,0-2.55-6.1,8.55,8.55,0,0,0-12.2,0,8.66,8.66,0,0,0,6.08,14.77ZM581.53,393a4.33,4.33,0,1,1-4.34,4.33,4.33,4.33,0,0,1,4.34-4.33Z"/><path class="cls-14" d="M589.61,373.48v-3.07a16.14,16.14,0,0,1-9.78,3.06h0c-4.81-.48-8.87-1.7-12.27-5.11a17.51,17.51,0,0,1,12.36-29.84,16.47,16.47,0,0,1,9.71,3v-3h7.68v35h-7.68v-.06Zm-9.69-26.21a8.31,8.31,0,0,0-6.21,2.59,8.74,8.74,0,0,0,12.36,12.36,8.77,8.77,0,0,0-6.15-15Z"/><path class="cls-14" d="M539.24,373.63,525.51,344a4.74,4.74,0,0,1-.2-3.5,4.35,4.35,0,0,1,5.73-2.67,4.45,4.45,0,0,1,2.6,2.35l9.42,20.1,9.4-20.1a4.49,4.49,0,0,1,2.49-2.35,4.36,4.36,0,0,1,3.5.07,4.26,4.26,0,0,1,2.28,2.6,4.17,4.17,0,0,1-.12,3.37l-13.87,29.76Z"/><polygon class="cls-14" points="512.53 346.88 521.56 346.88 521.56 373.63 512.53 373.63 512.53 346.88 512.53 346.88"/><path class="cls-14" d="M489.25,373.63,475.52,344a4.74,4.74,0,0,1-.19-3.5,4,4,0,0,1,2.35-2.6,4,4,0,0,1,3.38-.07,4.48,4.48,0,0,1,2.6,2.35l9.41,20.1,9.41-20.1a4.5,4.5,0,0,1,2.48-2.35,4.36,4.36,0,0,1,3.5.07,4.27,4.27,0,0,1,2.29,2.6,4.21,4.21,0,0,1-.13,3.37l-13.86,29.76Z"/><path class="cls-15" d="M539.65,326c-11.08-10.2-19.71,7.49-22.48,16.25,1.29-3.06,9.06-25,22.1-13.37,8.92,8.37,13.91,33,16.25,47a5.77,5.77,0,0,1,.51-.62,4.22,4.22,0,0,1,3.18-1.34,4.56,4.56,0,0,1,1.58.27c-3.7-18.36-12.85-41.41-21.14-48.2Z"/><path class="cls-14" d="M559.54,377.15a4.42,4.42,0,0,1,3.25,1.34,4.26,4.26,0,0,1,1.34,3.12,4.58,4.58,0,0,1-4.59,4.57,4.18,4.18,0,0,1-3.17-1.34,4.49,4.49,0,0,1-1.27-3.23,4.35,4.35,0,0,1,1.27-3.12,4.21,4.21,0,0,1,3.17-1.34Z"/><path class="cls-13" d="M562.59,388.53a8.22,8.22,0,0,1,6.07,2.56,8.65,8.65,0,0,1,0,12.23,8.64,8.64,0,0,1-14.74-6.13,8.38,8.38,0,0,1,2.54-6.1,8.29,8.29,0,0,1,6.13-2.56Zm0,4.33a4.11,4.11,0,0,0-3.08,1.28,4.33,4.33,0,0,0,6.13,6.13,4.35,4.35,0,0,0-3-7.41Z"/><path class="cls-13" d="M551.83,401.46a2.12,2.12,0,0,1,1.56.64,2.15,2.15,0,0,1,.64,1.55,2.19,2.19,0,0,1-2.2,2.2H539.24V389.29h4.33v12.17Z"/></svg>